Ume-P-Gothic-Balsa-stroke.ufo
<glyph name="exclam" format="1">
  <advance width="840"/>
  <unicode hex="0021"/>
  <outline>
    <contour>
      <point x="422" y="2988" type="move"/>
      <point x="416" y="1204" type="line"/>
    </contour>
    <contour>
      <point x="424" y="508" type="move"/>
      <point x="424" y="273" type="line"/>
    </contour>
  </outline>
</glyph>
<glyph name="dollar" format="1">
  <advance width="1971"/>
  <unicode hex="0024"/>
  <outline>
    <contour>
      <point x="1001" y="3378" type="move"/>
      <point x="1001" y="3135" type="line"/>
      <point x="1001" y="3061" type="line"/>
      <point x="1000" y="3024" type="line"/>
      <point x="1009" y="3021"/>
      <point x="1021" y="3022"/>
      <point x="1032" y="3021" type="curve" smooth="yes"/>
      <point x="1046" y="3021"/>
      <point x="1062" y="3019"/>
      <point x="1077" y="3018" type="curve" smooth="yes"/>
      <point x="1134" y="3014"/>
      <point x="1193" y="3009"/>
      <point x="1251" y="3000" type="curve" smooth="yes"/>
      <point x="1282" y="2995"/>
      <point x="1314" y="2984"/>
      <point x="1345" y="2974" type="curve" smooth="yes"/>
      <point x="1447" y="2940"/>
      <point x="1536" y="2884"/>
      <point x="1621" y="2817" type="curve" smooth="yes"/>
      <point x="1647" y="2795"/>
      <point x="1674" y="2772"/>
      <point x="1699" y="2749" type="curve" smooth="yes"/>
      <point x="1708" y="2740"/>
      <point x="1721" y="2731"/>
      <point x="1728" y="2720" type="curve" smooth="yes"/>
      <point x="1733" y="2711"/>
      <point x="1735" y="2698"/>
      <point x="1739" y="2689" type="curve" smooth="yes"/>
      <point x="1746" y="2667"/>
      <point x="1753" y="2645"/>
      <point x="1760" y="2624" type="curve" smooth="yes"/>
      <point x="1782" y="2551"/>
      <point x="1803" y="2477"/>
      <point x="1827" y="2405" type="curve" smooth="yes"/>
    </contour>
    <contour>
      <point x="1001" y="3023" type="move"/>
      <point x="1001" y="2008" type="line"/>
      <point x="1001" y="1759" type="line"/>
      <point x="1001" y="1699" type="line" smooth="yes"/>
      <point x="1001" y="1694"/>
      <point x="1003" y="1681"/>
      <point x="999" y="1678" type="curve" smooth="yes"/>
      <point x="992" y="1672"/>
      <point x="971" y="1678"/>
      <point x="963" y="1679" type="curve" smooth="yes"/>
      <point x="928" y="1683"/>
      <point x="894" y="1688"/>
      <point x="860" y="1692" type="curve" smooth="yes"/>
      <point x="825" y="1696"/>
      <point x="788" y="1700"/>
      <point x="755" y="1708" type="curve" smooth="yes"/>
      <point x="632" y="1740"/>
      <point x="507" y="1814"/>
      <point x="434" y="1919" type="curve" smooth="yes"/>
      <point x="364" y="2017"/>
      <point x="331" y="2128"/>
      <point x="318" y="2248" type="curve" smooth="yes"/>
      <point x="315" y="2281"/>
      <point x="310" y="2314"/>
      <point x="310" y="2348" type="curve" smooth="yes"/>
      <point x="309" y="2380"/>
      <point x="312" y="2413"/>
      <point x="315" y="2446" type="curve" smooth="yes"/>
      <point x="321" y="2508"/>
      <point x="329" y="2570"/>
      <point x="345" y="2631" type="curve" smooth="yes"/>
      <point x="371" y="2730"/>
      <point x="418" y="2836"/>
      <point x="500" y="2903" type="curve" smooth="yes"/>
      <point x="568" y="2959"/>
      <point x="656" y="2990"/>
      <point x="742" y="3005" type="curve" smooth="yes"/>
      <point x="777" y="3011"/>
      <point x="813" y="3012"/>
      <point x="849" y="3016" type="curve" smooth="yes"/>
      <point x="899" y="3020"/>
      <point x="949" y="3024"/>
      <point x="1000" y="3024" type="curve" smooth="yes"/>
    </contour>
    <contour>
      <point x="1001" y="1676" type="move"/>
      <point x="1001" y="648" type="line"/>
      <point x="1001" y="382" type="line"/>
      <point x="1001" y="313" type="line" smooth="yes"/>
      <point x="1001" y="307"/>
      <point x="1003" y="292"/>
      <point x="999" y="287" type="curve" smooth="yes"/>
      <point x="997" y="283"/>
      <point x="985" y="286"/>
      <point x="982" y="286" type="curve" smooth="yes"/>
      <point x="965" y="288"/>
      <point x="949" y="289"/>
      <point x="933" y="290" type="curve" smooth="yes"/>
      <point x="864" y="297"/>
      <point x="792" y="301"/>
      <point x="726" y="318" type="curve" smooth="yes"/>
      <point x="597" y="351"/>
      <point x="472" y="411"/>
      <point x="365" y="489" type="curve" smooth="yes"/>
      <point x="339" y="507"/>
      <point x="314" y="527"/>
      <point x="291" y="548" type="curve" smooth="yes"/>
      <point x="277" y="560"/>
      <point x="262" y="571"/>
      <point x="251" y="586" type="curve" smooth="yes"/>
      <point x="245" y="593"/>
      <point x="242" y="606"/>
      <point x="239" y="616" type="curve" smooth="yes"/>
      <point x="233" y="635"/>
      <point x="226" y="653"/>
      <point x="219" y="673" type="curve" smooth="yes"/>
      <point x="206" y="713"/>
      <point x="192" y="753"/>
      <point x="179" y="794" type="curve" smooth="yes"/>
      <point x="173" y="814"/>
      <point x="163" y="836"/>
      <point x="160" y="858" type="curve" smooth="yes"/>
    </contour>
    <contour>
      <point x="1001" y="-288" type="move"/>
      <point x="1001" y="132" type="line"/>
      <point x="1001" y="240" type="line"/>
      <point x="1001" y="268" type="line" smooth="yes"/>
      <point x="1001" y="270"/>
      <point x="1000" y="275"/>
      <point x="1002" y="278" type="curve" smooth="yes"/>
      <point x="1004" y="281"/>
      <point x="1010" y="280"/>
      <point x="1014" y="280" type="curve" smooth="yes"/>
      <point x="1026" y="282"/>
      <point x="1040" y="281"/>
      <point x="1053" y="282" type="curve" smooth="yes"/>
      <point x="1103" y="285"/>
      <point x="1154" y="289"/>
      <point x="1205" y="294" type="curve" smooth="yes"/>
      <point x="1332" y="306"/>
      <point x="1466" y="352"/>
      <point x="1555" y="449" type="curve" smooth="yes"/>
      <point x="1633" y="532"/>
      <point x="1669" y="642"/>
      <point x="1686" y="754" type="curve" smooth="yes"/>
      <point x="1694" y="808"/>
      <point x="1701" y="865"/>
      <point x="1700" y="921" type="curve" smooth="yes"/>
      <point x="1699" y="956"/>
      <point x="1695" y="991"/>
      <point x="1692" y="1027" type="curve" smooth="yes"/>
      <point x="1679" y="1148"/>
      <point x="1644" y="1265"/>
      <point x="1565" y="1361" type="curve" smooth="yes"/>
      <point x="1505" y="1434"/>
      <point x="1419" y="1492"/>
      <point x="1336" y="1536" type="curve" smooth="yes"/>
      <point x="1306" y="1552"/>
      <point x="1274" y="1571"/>
      <point x="1242" y="1580" type="curve" smooth="yes"/>
      <point x="1211" y="1590"/>
      <point x="1177" y="1592"/>
      <point x="1146" y="1596" type="curve" smooth="yes"/>
      <point x="1098" y="1602"/>
      <point x="1049" y="1611"/>
      <point x="1002" y="1611" type="curve" smooth="yes"/>
    </contour>
    <contour>
      <point x="1001" y="284" type="move"/>
      <point x="1001" y="281" type="line"/>
    </contour>
  </outline>
</glyph>
<glyph name="parenleft" format="1">
  <advance width="711"/>
  <unicode hex="0028"/>
  <outline>
    <contour>
      <point x="647" y="3330" type="move" smooth="yes"/>
      <point x="631" y="3310"/>
      <point x="618" y="3288"/>
      <point x="604" y="3267" type="curve" smooth="yes"/>
      <point x="580" y="3231"/>
      <point x="557" y="3194"/>
      <point x="535" y="3158" type="curve" smooth="yes"/>
      <point x="454" y="3024"/>
      <point x="385" y="2884"/>
      <point x="327" y="2740" type="curve" smooth="yes"/>
      <point x="194" y="2412"/>
      <point x="130" y="2064"/>
      <point x="115" y="1713" type="curve" smooth="yes"/>
      <point x="111" y="1624"/>
      <point x="110" y="1537"/>
      <point x="114" y="1449" type="curve" smooth="yes"/>
      <point x="118" y="1349"/>
      <point x="125" y="1251"/>
      <point x="134" y="1153" type="curve" smooth="yes"/>
      <point x="140" y="1088"/>
      <point x="151" y="1023"/>
      <point x="163" y="960" type="curve" smooth="yes"/>
      <point x="195" y="777"/>
      <point x="242" y="597"/>
      <point x="307" y="424" type="curve" smooth="yes"/>
      <point x="366" y="268"/>
      <point x="440" y="118"/>
      <point x="525" y="-25" type="curve" smooth="yes"/>
      <point x="554" y="-72"/>
      <point x="585" y="-119"/>
      <point x="616" y="-165" type="curve" smooth="yes"/>
      <point x="626" y="-179"/>
      <point x="637" y="-192"/>
      <point x="646" y="-207" type="curve" smooth="yes"/>
    </contour>
  </outline>
</glyph>
<glyph name="comma" format="1">
  <advance width="922"/>
  <unicode hex="002C"/>
  <outline>
    <contour>
      <point x="404" y="671" type="move"/>
      <point x="404" y="615" type="line" smooth="yes"/>
      <point x="404" y="608"/>
      <point x="401" y="597"/>
      <point x="405" y="592" type="curve" smooth="yes"/>
      <point x="412" y="581"/>
      <point x="424" y="572"/>
      <point x="433" y="564" type="curve" smooth="yes"/>
      <point x="490" y="507" type="line" smooth="yes"/>
      <point x="498" y="498"/>
      <point x="517" y="485"/>
      <point x="520" y="474" type="curve" smooth="yes"/>
      <point x="524" y="458"/>
      <point x="520" y="440"/>
      <point x="520" y="425" type="curve" smooth="yes"/>
      <point x="520" y="384"/>
      <point x="518" y="344"/>
      <point x="517" y="304" type="curve" smooth="yes"/>
      <point x="510" y="158"/>
      <point x="501" y="1"/>
      <point x="428" y="-129" type="curve" smooth="yes"/>
      <point x="397" y="-186"/>
      <point x="341" y="-250"/>
      <point x="272" y="-259" type="curve" smooth="yes"/>
    </contour>
  </outline>
</glyph>
<glyph name="period" format="1">
  <advance width="784"/>
  <unicode hex="002E"/>
  <outline>
    <contour>
      <point x="352" y="702" type="move"/>
      <point x="352" y="345" type="line"/>
    </contour>
  </outline>
</glyph>
<glyph name="one" format="1">
  <advance width="1994"/>
  <unicode hex="0031"/>
  <outline>
    <contour>
      <point x="1037" y="3046" type="move" smooth="yes"/>
      <point x="1030" y="3012"/>
      <point x="1028" y="2977"/>
      <point x="1023" y="2944" type="curve" smooth="yes"/>
      <point x="1015" y="2888"/>
      <point x="1005" y="2832"/>
      <point x="994" y="2777" type="curve" smooth="yes"/>
      <point x="989" y="2752"/>
      <point x="983" y="2727"/>
      <point x="977" y="2703" type="curve" smooth="yes"/>
      <point x="974" y="2695"/>
      <point x="974" y="2683"/>
      <point x="969" y="2677" type="curve" smooth="yes"/>
      <point x="963" y="2671"/>
      <point x="948" y="2668"/>
      <point x="941" y="2666" type="curve" smooth="yes"/>
      <point x="917" y="2657"/>
      <point x="893" y="2650"/>
      <point x="870" y="2643" type="curve" smooth="yes"/>
      <point x="757" y="2612"/>
      <point x="643" y="2617"/>
      <point x="528" y="2617" type="curve" smooth="yes"/>
    </contour>
    <contour>
      <point x="970" y="2676" type="move"/>
      <point x="1000" y="2646" type="line" smooth="yes"/>
      <point x="1004" y="2641"/>
      <point x="1011" y="2636"/>
      <point x="1013" y="2631" type="curve" smooth="yes"/>
      <point x="1017" y="2619"/>
      <point x="1014" y="2601"/>
      <point x="1014" y="2590" type="curve" smooth="yes"/>
      <point x="1014" y="2495" type="line"/>
      <point x="1014" y="2180" type="line"/>
      <point x="1014" y="804" type="line"/>
      <point x="1014" y="412" type="line"/>
      <point x="1014" y="310" type="line" smooth="yes"/>
      <point x="1014" y="300"/>
      <point x="1017" y="280"/>
      <point x="1011" y="272" type="curve" smooth="yes"/>
      <point x="998" y="254"/>
      <point x="983" y="257"/>
      <point x="964" y="257" type="curve" smooth="yes"/>
      <point x="888" y="257" type="line"/>
      <point x="529" y="257" type="line"/>
    </contour>
    <contour>
      <point x="1014" y="273" type="move"/>
      <point x="1031" y="257" type="line"/>
      <point x="1066" y="257" type="line"/>
      <point x="1146" y="257" type="line"/>
      <point x="1498" y="257" type="line"/>
    </contour>
  </outline>
</glyph>
<glyph name="two" format="1">
  <advance width="1502"/>
  <unicode hex="0032"/>
  <outline>
    <contour>
      <point x="208" y="2495" type="move" smooth="yes"/>
      <point x="216" y="2607"/>
      <point x="257" y="2719"/>
      <point x="319" y="2814" type="curve" smooth="yes"/>
      <point x="354" y="2867"/>
      <point x="398" y="2916"/>
      <point x="453" y="2950" type="curve" smooth="yes"/>
      <point x="537" y="3002"/>
      <point x="630" y="3014"/>
      <point x="727" y="3021" type="curve" smooth="yes"/>
      <point x="765" y="3023"/>
      <point x="803" y="3020"/>
      <point x="842" y="3018" type="curve" smooth="yes"/>
      <point x="902" y="3013"/>
      <point x="961" y="3004"/>
      <point x="1019" y="2984" type="curve" smooth="yes"/>
      <point x="1123" y="2948"/>
      <point x="1214" y="2875"/>
      <point x="1267" y="2778" type="curve" smooth="yes"/>
      <point x="1293" y="2730"/>
      <point x="1312" y="2678"/>
      <point x="1323" y="2626" type="curve" smooth="yes"/>
      <point x="1347" y="2511"/>
      <point x="1351" y="2394"/>
      <point x="1340" y="2279" type="curve" smooth="yes"/>
      <point x="1331" y="2192"/>
      <point x="1319" y="2105"/>
      <point x="1294" y="2021" type="curve" smooth="yes"/>
      <point x="1244" y="1853"/>
      <point x="1164" y="1702"/>
      <point x="1058" y="1564" type="curve" smooth="yes"/>
      <point x="983" y="1466"/>
      <point x="902" y="1374"/>
      <point x="816" y="1287" type="curve" smooth="yes"/>
      <point x="716" y="1186"/>
      <point x="610" y="1091"/>
      <point x="518" y="983" type="curve" smooth="yes"/>
      <point x="406" y="851"/>
      <point x="304" y="699"/>
      <point x="260" y="531" type="curve" smooth="yes"/>
      <point x="254" y="507"/>
      <point x="251" y="482"/>
      <point x="247" y="458" type="curve" smooth="yes"/>
      <point x="240" y="416"/>
      <point x="235" y="374"/>
      <point x="229" y="333" type="curve" smooth="yes"/>
      <point x="227" y="322"/>
      <point x="220" y="296"/>
      <point x="227" y="288" type="curve" smooth="yes"/>
      <point x="232" y="281"/>
      <point x="242" y="268"/>
      <point x="251" y="265" type="curve" smooth="yes"/>
      <point x="256" y="263"/>
      <point x="265" y="265"/>
      <point x="271" y="265" type="curve" smooth="yes"/>
      <point x="316" y="265" type="line"/>
      <point x="515" y="265" type="line"/>
      <point x="1358" y="265" type="line"/>
    </contour>
  </outline>
</glyph>
<glyph name="five" format="1">
  <advance width="1557"/>
  <unicode hex="0035"/>
  <outline>
    <contour>
      <point x="144" y="319" type="move" smooth="yes"/>
      <point x="294" y="276"/>
      <point x="450" y="262"/>
      <point x="606" y="272" type="curve" smooth="yes"/>
      <point x="725" y="281"/>
      <point x="842" y="304"/>
      <point x="947" y="366" type="curve" smooth="yes"/>
      <point x="1138" y="480"/>
      <point x="1249" y="696"/>
      <point x="1294" y="909" type="curve" smooth="yes"/>
      <point x="1306" y="963"/>
      <point x="1311" y="1019"/>
      <point x="1315" y="1075" type="curve" smooth="yes"/>
      <point x="1317" y="1106"/>
      <point x="1320" y="1137"/>
      <point x="1321" y="1169" type="curve" smooth="yes"/>
      <point x="1321" y="1227"/>
      <point x="1314" y="1287"/>
      <point x="1308" y="1346" type="curve" smooth="yes"/>
      <point x="1294" y="1472"/>
      <point x="1259" y="1602"/>
      <point x="1192" y="1711" type="curve" smooth="yes"/>
      <point x="1099" y="1862"/>
      <point x="942" y="1975"/>
      <point x="770" y="2019" type="curve" smooth="yes"/>
      <point x="690" y="2040"/>
      <point x="609" y="2045"/>
      <point x="528" y="2050" type="curve" smooth="yes"/>
      <point x="494" y="2053"/>
      <point x="461" y="2046"/>
      <point x="428" y="2046" type="curve" smooth="yes"/>
      <point x="380" y="2044"/>
      <point x="332" y="2049"/>
      <point x="285" y="2044" type="curve" smooth="yes"/>
      <point x="263" y="2042"/>
      <point x="240" y="2043"/>
      <point x="219" y="2041" type="curve" smooth="yes"/>
      <point x="210" y="2040"/>
      <point x="197" y="2037"/>
      <point x="190" y="2044" type="curve" smooth="yes"/>
      <point x="185" y="2048"/>
      <point x="177" y="2054"/>
      <point x="175" y="2060" type="curve" smooth="yes"/>
      <point x="172" y="2068"/>
      <point x="175" y="2082"/>
      <point x="175" y="2092" type="curve" smooth="yes"/>
      <point x="175" y="2165" type="line"/>
      <point x="175" y="2499" type="line"/>
      <point x="175" y="2886" type="line"/>
      <point x="175" y="2986" type="line" smooth="yes"/>
      <point x="175" y="2995"/>
      <point x="171" y="3015"/>
      <point x="177" y="3024" type="curve" smooth="yes"/>
      <point x="180" y="3028"/>
      <point x="187" y="3036"/>
      <point x="193" y="3038" type="curve" smooth="yes"/>
      <point x="198" y="3040"/>
      <point x="206" y="3039"/>
      <point x="213" y="3039" type="curve" smooth="yes"/>
      <point x="256" y="3039" type="line"/>
      <point x="468" y="3039" type="line"/>
      <point x="1349" y="3039" type="line"/>
    </contour>
  </outline>
</glyph>
<glyph name="six" format="1">
  <advance width="1543"/>
  <unicode hex="0036"/>
  <outline>
    <contour>
      <point x="860" y="3060" type="move" smooth="yes"/>
      <point x="801" y="2964"/>
      <point x="739" y="2872"/>
      <point x="683" y="2776" type="curve" smooth="yes"/>
      <point x="572" y="2588"/>
      <point x="471" y="2393"/>
      <point x="387" y="2192" type="curve" smooth="yes"/>
      <point x="376" y="2166"/>
      <point x="362" y="2140"/>
      <point x="355" y="2114" type="curve" smooth="yes"/>
      <point x="350" y="2097"/>
      <point x="348" y="2078"/>
      <point x="345" y="2061" type="curve" smooth="yes"/>
      <point x="327" y="1947" type="line" smooth="yes"/>
      <point x="324" y="1926"/>
      <point x="322" y="1905"/>
      <point x="318" y="1885" type="curve" smooth="yes"/>
      <point x="317" y="1878"/>
      <point x="314" y="1866"/>
      <point x="317" y="1860" type="curve" smooth="yes"/>
      <point x="321" y="1854"/>
      <point x="332" y="1840"/>
      <point x="339" y="1840" type="curve" smooth="yes"/>
      <point x="343" y="1840"/>
      <point x="348" y="1843"/>
      <point x="352" y="1844" type="curve" smooth="yes"/>
      <point x="362" y="1847"/>
      <point x="373" y="1851"/>
      <point x="383" y="1855" type="curve" smooth="yes"/>
      <point x="416" y="1865"/>
      <point x="449" y="1875"/>
      <point x="483" y="1883" type="curve" smooth="yes"/>
      <point x="511" y="1889"/>
      <point x="542" y="1891"/>
      <point x="570" y="1899" type="curve" smooth="yes"/>
      <point x="589" y="1904"/>
      <point x="606" y="1915"/>
      <point x="625" y="1920" type="curve" smooth="yes"/>
      <point x="674" y="1935"/>
      <point x="731" y="1945"/>
      <point x="782" y="1947" type="curve" smooth="yes"/>
      <point x="802" y="1948"/>
      <point x="824" y="1944"/>
      <point x="844" y="1942" type="curve" smooth="yes"/>
      <point x="880" y="1937"/>
      <point x="917" y="1932"/>
      <point x="952" y="1921" type="curve" smooth="yes"/>
      <point x="1108" y="1869"/>
      <point x="1212" y="1713"/>
      <point x="1265" y="1565" type="curve" smooth="yes"/>
      <point x="1328" y="1388"/>
      <point x="1343" y="1192"/>
      <point x="1330" y="1006" type="curve" smooth="yes"/>
      <point x="1319" y="844"/>
      <point x="1292" y="686"/>
      <point x="1214" y="543" type="curve" smooth="yes"/>
      <point x="1165" y="455"/>
      <point x="1093" y="370"/>
      <point x="1003" y="325" type="curve" smooth="yes"/>
      <point x="949" y="298"/>
      <point x="891" y="287"/>
      <point x="831" y="280" type="curve" smooth="yes"/>
      <point x="810" y="278"/>
      <point x="788" y="275"/>
      <point x="767" y="275" type="curve" smooth="yes"/>
      <point x="746" y="274"/>
      <point x="724" y="278"/>
      <point x="703" y="280" type="curve" smooth="yes"/>
      <point x="644" y="287"/>
      <point x="587" y="298"/>
      <point x="533" y="323" type="curve" smooth="yes"/>
      <point x="457" y="360"/>
      <point x="391" y="422"/>
      <point x="345" y="493" type="curve" smooth="yes"/>
      <point x="269" y="610"/>
      <point x="228" y="742"/>
      <point x="208" y="880" type="curve" smooth="yes"/>
      <point x="201" y="930"/>
      <point x="198" y="981"/>
      <point x="195" y="1033" type="curve" smooth="yes"/>
      <point x="184" y="1186"/>
      <point x="193" y="1343"/>
      <point x="221" y="1495" type="curve" smooth="yes"/>
      <point x="237" y="1580"/>
      <point x="261" y="1665"/>
      <point x="294" y="1746" type="curve" smooth="yes"/>
      <point x="307" y="1776"/>
      <point x="319" y="1810"/>
      <point x="338" y="1839" type="curve" smooth="yes"/>
    </contour>
  </outline>
</glyph>
<glyph name="semicolon" format="1">
  <advance width="893"/>
  <unicode hex="003B"/>
  <outline>
    <contour>
      <point x="432" y="2335" type="move"/>
      <point x="432" y="2118" type="line"/>
    </contour>
    <contour>
      <point x="432" y="725" type="move"/>
      <point x="432" y="584" type="line"/>
      <point x="432" y="543" type="line" smooth="yes"/>
      <point x="432" y="537"/>
      <point x="430" y="529"/>
      <point x="432" y="524" type="curve" smooth="yes"/>
      <point x="436" y="514"/>
      <point x="449" y="505"/>
      <point x="457" y="498" type="curve" smooth="yes"/>
      <point x="516" y="439" type="line" smooth="yes"/>
      <point x="522" y="432"/>
      <point x="538" y="421"/>
      <point x="540" y="412" type="curve" smooth="yes"/>
      <point x="544" y="398"/>
      <point x="541" y="380"/>
      <point x="541" y="367" type="curve" smooth="yes"/>
      <point x="541" y="331"/>
      <point x="539" y="294"/>
      <point x="538" y="259" type="curve" smooth="yes"/>
      <point x="532" y="130"/>
      <point x="525" y="-6"/>
      <point x="466" y="-124" type="curve" smooth="yes"/>
      <point x="436" y="-182"/>
      <point x="387" y="-242"/>
      <point x="320" y="-256" type="curve" smooth="yes"/>
    </contour>
  </outline>
</glyph>
<glyph name="greater" format="1">
  <advance width="1892"/>
  <unicode hex="003E"/>
  <outline>
    <contour>
      <point x="323" y="2492" type="move"/>
      <point x="399" y="2437" type="line"/>
      <point x="592" y="2299" type="line"/>
      <point x="1237" y="1836" type="line"/>
      <point x="1400" y="1720" type="line"/>
      <point x="1452" y="1682" type="line"/>
      <point x="1479" y="1662" type="line"/>
      <point x="1496" y="1624" type="line"/>
      <point x="1513" y="1581" type="line"/>
      <point x="1520" y="1563" type="line"/>
      <point x="1512" y="1543" type="line"/>
      <point x="1495" y="1501" type="line"/>
      <point x="1474" y="1452" type="line"/>
      <point x="1451" y="1434" type="line"/>
      <point x="1405" y="1403" type="line"/>
      <point x="1237" y="1286" type="line"/>
      <point x="548" y="808" type="line"/>
      <point x="382" y="693" type="line"/>
      <point x="320" y="651" type="line"/>
    </contour>
    <contour>
      <point x="1522" y="1563" type="move"/>
      <point x="1588" y="1562" type="line"/>
    </contour>
  </outline>
</glyph>
<glyph name="question" format="1">
  <advance width="1560"/>
  <unicode hex="003F"/>
  <outline>
    <contour>
      <point x="176" y="2891" type="move" smooth="yes"/>
      <point x="194" y="2898"/>
      <point x="211" y="2908"/>
      <point x="230" y="2916" type="curve" smooth="yes"/>
      <point x="263" y="2932"/>
      <point x="298" y="2946"/>
      <point x="334" y="2958" type="curve" smooth="yes"/>
      <point x="425" y="2988"/>
      <point x="517" y="3002"/>
      <point x="613" y="3013" type="curve" smooth="yes"/>
      <point x="719" y="3025"/>
      <point x="830" y="3020"/>
      <point x="937" y="3003" type="curve" smooth="yes"/>
      <point x="979" y="2996"/>
      <point x="1019" y="2983"/>
      <point x="1059" y="2966" type="curve" smooth="yes"/>
      <point x="1078" y="2958"/>
      <point x="1097" y="2946"/>
      <point x="1115" y="2934" type="curve" smooth="yes"/>
      <point x="1251" y="2844"/>
      <point x="1297" y="2679"/>
      <point x="1312" y="2526" type="curve" smooth="yes"/>
      <point x="1315" y="2487"/>
      <point x="1321" y="2447"/>
      <point x="1319" y="2409" type="curve" smooth="yes"/>
      <point x="1317" y="2362"/>
      <point x="1312" y="2314"/>
      <point x="1307" y="2268" type="curve" smooth="yes"/>
      <point x="1300" y="2214"/>
      <point x="1287" y="2161"/>
      <point x="1271" y="2110" type="curve" smooth="yes"/>
      <point x="1251" y="2049"/>
      <point x="1222" y="1990"/>
      <point x="1188" y="1936" type="curve" smooth="yes"/>
      <point x="1155" y="1884"/>
      <point x="1118" y="1835"/>
      <point x="1076" y="1791" type="curve" smooth="yes"/>
      <point x="1041" y="1753"/>
      <point x="1003" y="1719"/>
      <point x="969" y="1681" type="curve" smooth="yes"/>
      <point x="933" y="1641"/>
      <point x="901" y="1599"/>
      <point x="869" y="1556" type="curve" smooth="yes"/>
      <point x="798" y="1457"/>
      <point x="758" y="1340"/>
      <point x="753" y="1219" type="curve" smooth="yes"/>
    </contour>
    <contour>
      <point x="754" y="469" type="move"/>
      <point x="754" y="312" type="line"/>
    </contour>
  </outline>
</glyph>
<glyph name="A" format="1">
  <advance width="1824"/>
  <unicode hex="0041"/>
  <outline>
    <contour>
      <point x="1824" y="259" type="move" smooth="yes"/>
      <point x="1810" y="289"/>
      <point x="1803" y="325"/>
      <point x="1794" y="358" type="curve" smooth="yes"/>
      <point x="1778" y="413"/>
      <point x="1761" y="468"/>
      <point x="1745" y="524" type="curve" smooth="yes"/>
      <point x="1700" y="677"/>
      <point x="1654" y="830"/>
      <point x="1609" y="984" type="curve" smooth="yes"/>
      <point x="1587" y="1058"/>
      <point x="1566" y="1132"/>
      <point x="1543" y="1207" type="curve" smooth="yes"/>
      <point x="1534" y="1235"/>
      <point x="1529" y="1268"/>
      <point x="1517" y="1295" type="curve" smooth="yes"/>
      <point x="1512" y="1306"/>
      <point x="1490" y="1314"/>
      <point x="1481" y="1320" type="curve" smooth="yes"/>
      <point x="1476" y="1323"/>
      <point x="1470" y="1326"/>
      <point x="1468" y="1332" type="curve" smooth="yes"/>
      <point x="1463" y="1348"/>
      <point x="1463" y="1367"/>
      <point x="1461" y="1384" type="curve" smooth="yes"/>
      <point x="1456" y="1422"/>
      <point x="1451" y="1461"/>
      <point x="1446" y="1500" type="curve" smooth="yes"/>
      <point x="1443" y="1521"/>
      <point x="1442" y="1544"/>
      <point x="1437" y="1566" type="curve" smooth="yes"/>
      <point x="1415" y="1653"/>
      <point x="1385" y="1740"/>
      <point x="1359" y="1827" type="curve" smooth="yes"/>
      <point x="1319" y="1961"/>
      <point x="1281" y="2096"/>
      <point x="1240" y="2231" type="curve" smooth="yes"/>
      <point x="1187" y="2407"/>
      <point x="1135" y="2584"/>
      <point x="1083" y="2761" type="curve" smooth="yes"/>
      <point x="1069" y="2809"/>
      <point x="1055" y="2857"/>
      <point x="1040" y="2906" type="curve" smooth="yes"/>
      <point x="1036" y="2918"/>
      <point x="1033" y="2931"/>
      <point x="1029" y="2944" type="curve" smooth="yes"/>
      <point x="1028" y="2949"/>
      <point x="1027" y="2956"/>
      <point x="1022" y="2960" type="curve" smooth="yes"/>
      <point x="1012" y="2969"/>
      <point x="998" y="2976"/>
      <point x="987" y="2983" type="curve" smooth="yes"/>
      <point x="974" y="2990"/>
      <point x="962" y="3001"/>
      <point x="949" y="3006" type="curve" smooth="yes"/>
      <point x="938" y="3010"/>
      <point x="912" y="3009"/>
      <point x="901" y="3006" type="curve" smooth="yes"/>
      <point x="885" y="3002"/>
      <point x="867" y="2986"/>
      <point x="854" y="2978" type="curve" smooth="yes"/>
      <point x="843" y="2971"/>
      <point x="819" y="2962"/>
      <point x="813" y="2950" type="curve" smooth="yes"/>
      <point x="807" y="2938"/>
      <point x="804" y="2923"/>
      <point x="800" y="2910" type="curve" smooth="yes"/>
      <point x="794" y="2886"/>
      <point x="787" y="2863"/>
      <point x="779" y="2840" type="curve" smooth="yes"/>
      <point x="750" y="2745"/>
      <point x="722" y="2650"/>
      <point x="694" y="2555" type="curve" smooth="yes"/>
      <point x="613" y="2286"/>
      <point x="530" y="2018"/>
      <point x="451" y="1749" type="curve" smooth="yes"/>
      <point x="438" y="1702"/>
      <point x="423" y="1656"/>
      <point x="409" y="1610" type="curve" smooth="yes"/>
      <point x="404" y="1592"/>
      <point x="397" y="1574"/>
      <point x="393" y="1557" type="curve" smooth="yes"/>
      <point x="384" y="1516"/>
      <point x="382" y="1472"/>
      <point x="376" y="1431" type="curve" smooth="yes"/>
      <point x="373" y="1404"/>
      <point x="369" y="1378"/>
      <point x="366" y="1352" type="curve" smooth="yes"/>
      <point x="365" y="1344"/>
      <point x="360" y="1330"/>
      <point x="363" y="1323" type="curve" smooth="yes"/>
      <point x="370" y="1304"/>
      <point x="408" y="1312"/>
      <point x="424" y="1312" type="curve" smooth="yes"/>
      <point x="611" y="1312" type="line"/>
      <point x="1244" y="1312" type="line"/>
      <point x="1395" y="1312" type="line"/>
      <point x="1433" y="1312" type="line" smooth="yes"/>
      <point x="1438" y="1312"/>
      <point x="1445" y="1310"/>
      <point x="1451" y="1312" type="curve" smooth="yes"/>
      <point x="1457" y="1315"/>
      <point x="1463" y="1323"/>
      <point x="1469" y="1329" type="curve" smooth="yes"/>
    </contour>
    <contour>
      <point x="0" y="252" type="move" smooth="yes"/>
      <point x="13" y="282"/>
      <point x="20" y="317"/>
      <point x="29" y="349" type="curve" smooth="yes"/>
      <point x="44" y="401"/>
      <point x="61" y="453"/>
      <point x="76" y="506" type="curve" smooth="yes"/>
      <point x="130" y="683"/>
      <point x="181" y="863"/>
      <point x="237" y="1040" type="curve" smooth="yes"/>
      <point x="256" y="1099"/>
      <point x="273" y="1160"/>
      <point x="291" y="1220" type="curve" smooth="yes"/>
      <point x="297" y="1236"/>
      <point x="302" y="1253"/>
      <point x="307" y="1270" type="curve" smooth="yes"/>
      <point x="308" y="1276"/>
      <point x="310" y="1287"/>
      <point x="314" y="1292" type="curve" smooth="yes"/>
      <point x="318" y="1297"/>
      <point x="325" y="1300"/>
      <point x="331" y="1303" type="curve" smooth="yes"/>
      <point x="341" y="1309"/>
      <point x="350" y="1316"/>
      <point x="361" y="1322" type="curve" smooth="yes"/>
    </contour>
  </outline>
</glyph>
<glyph name="E" format="1">
  <advance width="1825"/>
  <unicode hex="0045"/>
  <outline>
    <contour>
      <point x="1560" y="281" type="move"/>
      <point x="557" y="281" type="line"/>
      <point x="302" y="281" type="line"/>
      <point x="238" y="281" type="line" smooth="yes"/>
      <point x="231" y="281"/>
      <point x="219" y="278"/>
      <point x="213" y="284" type="curve" smooth="yes"/>
      <point x="205" y="291"/>
      <point x="208" y="309"/>
      <point x="208" y="320" type="curve" smooth="yes"/>
      <point x="208" y="418" type="line"/>
      <point x="208" y="816" type="line"/>
      <point x="208" y="2428" type="line"/>
      <point x="208" y="2876" type="line"/>
      <point x="208" y="2986" type="line"/>
      <point x="208" y="3012" type="line" smooth="yes"/>
      <point x="208" y="3014"/>
      <point x="207" y="3019"/>
      <point x="210" y="3021" type="curve" smooth="yes"/>
      <point x="214" y="3025"/>
      <point x="229" y="3023"/>
      <point x="234" y="3023" type="curve" smooth="yes"/>
      <point x="301" y="3023" type="line"/>
      <point x="561" y="3023" type="line"/>
      <point x="1568" y="3023" type="line"/>
    </contour>
    <contour>
      <point x="209" y="1765" type="move"/>
      <point x="1419" y="1765" type="line"/>
    </contour>
  </outline>
</glyph>
<glyph name="F" format="1">
  <advance width="1824"/>
  <unicode hex="0046"/>
  <outline>
    <contour>
      <point x="208" y="273" type="move"/>
      <point x="208" y="2349" type="line"/>
      <point x="208" y="2857" type="line"/>
      <point x="208" y="2981" type="line"/>
      <point x="208" y="3011" type="line"/>
      <point x="209" y="3021" type="line"/>
      <point x="234" y="3023" type="line"/>
      <point x="301" y="3023" type="line"/>
      <point x="560" y="3023" type="line"/>
      <point x="1568" y="3023" type="line"/>
    </contour>
    <contour>
      <point x="209" y="1765" type="move"/>
      <point x="1278" y="1765" type="line"/>
    </contour>
  </outline>
</glyph>
<glyph name="H" format="1">
  <advance width="1969"/>
  <unicode hex="0048"/>
  <outline>
    <contour>
      <point x="144" y="3023" type="move"/>
      <point x="144" y="274" type="line"/>
    </contour>
    <contour>
      <point x="1793" y="3015" type="move"/>
      <point x="1793" y="282" type="line"/>
    </contour>
    <contour>
      <point x="145" y="1765" type="move"/>
      <point x="1792" y="1765" type="line"/>
    </contour>
  </outline>
</glyph>
<glyph name="J" format="1">
  <advance width="1598"/>
  <unicode hex="004A"/>
  <outline>
    <contour>
      <point x="1357" y="3015" type="move"/>
      <point x="1357" y="1598" type="line" smooth="yes"/>
      <point x="1357" y="1447"/>
      <point x="1360" y="1296"/>
      <point x="1354" y="1146" type="curve" smooth="yes"/>
      <point x="1348" y="1020"/>
      <point x="1340" y="894"/>
      <point x="1298" y="774" type="curve" smooth="yes"/>
      <point x="1277" y="711"/>
      <point x="1248" y="651"/>
      <point x="1211" y="598" type="curve" smooth="yes"/>
      <point x="1185" y="561"/>
      <point x="1156" y="527"/>
      <point x="1124" y="497" type="curve" smooth="yes"/>
      <point x="965" y="349"/>
      <point x="748" y="303"/>
      <point x="539" y="288" type="curve" smooth="yes"/>
      <point x="472" y="284"/>
      <point x="406" y="284"/>
      <point x="340" y="288" type="curve" smooth="yes"/>
      <point x="258" y="294"/>
      <point x="178" y="304"/>
      <point x="99" y="320" type="curve" smooth="yes"/>
      <point x="66" y="327"/>
      <point x="30" y="332"/>
      <point x="0" y="346" type="curve" smooth="yes"/>
    </contour>
  </outline>
</glyph>
<glyph name="L" format="1">
  <advance width="1675"/>
  <unicode hex="004C"/>
  <outline>
    <contour>
      <point x="209" y="3023" type="move"/>
      <point x="209" y="952" type="line"/>
      <point x="209" y="440" type="line"/>
      <point x="209" y="314" type="line" smooth="yes"/>
      <point x="209" y="301"/>
      <point x="204" y="277"/>
      <point x="214" y="269" type="curve" smooth="yes"/>
      <point x="220" y="263"/>
      <point x="230" y="266"/>
      <point x="238" y="266" type="curve" smooth="yes"/>
      <point x="297" y="266" type="line"/>
      <point x="534" y="266" type="line"/>
      <point x="1467" y="266" type="line"/>
    </contour>
  </outline>
</glyph>
<glyph name="M" format="1">
  <advance width="2409"/>
  <unicode hex="004D"/>
  <outline>
    <contour>
      <point x="161" y="281" type="move"/>
      <point x="161" y="2358" type="line"/>
      <point x="161" y="2781" type="line"/>
      <point x="161" y="2894" type="line" smooth="yes"/>
      <point x="161" y="2905"/>
      <point x="157" y="2928"/>
      <point x="163" y="2938" type="curve" smooth="yes"/>
      <point x="169" y="2948"/>
      <point x="181" y="2956"/>
      <point x="189" y="2965" type="curve" smooth="yes"/>
      <point x="193" y="2968"/>
      <point x="196" y="2973"/>
      <point x="201" y="2975" type="curve" smooth="yes"/>
      <point x="214" y="2980"/>
      <point x="235" y="2976"/>
      <point x="248" y="2976" type="curve" smooth="yes"/>
      <point x="262" y="2976"/>
      <point x="281" y="2979"/>
      <point x="295" y="2975" type="curve" smooth="yes"/>
      <point x="310" y="2970"/>
      <point x="325" y="2958"/>
      <point x="338" y="2950" type="curve" smooth="yes"/>
      <point x="365" y="2935"/>
      <point x="394" y="2921"/>
      <point x="419" y="2903" type="curve" smooth="yes"/>
      <point x="427" y="2898"/>
      <point x="429" y="2884"/>
      <point x="432" y="2876" type="curve" smooth="yes"/>
      <point x="439" y="2854"/>
      <point x="447" y="2832"/>
      <point x="455" y="2811" type="curve" smooth="yes"/>
      <point x="488" y="2723"/>
      <point x="519" y="2636"/>
      <point x="551" y="2549" type="curve" smooth="yes"/>
      <point x="676" y="2216"/>
      <point x="794" y="1881"/>
      <point x="916" y="1548" type="curve" smooth="yes"/>
      <point x="946" y="1466"/>
      <point x="975" y="1385"/>
      <point x="1005" y="1304" type="curve" smooth="yes"/>
      <point x="1014" y="1279"/>
      <point x="1023" y="1253"/>
      <point x="1033" y="1229" type="curve" smooth="yes"/>
      <point x="1036" y="1219"/>
      <point x="1039" y="1205"/>
      <point x="1045" y="1197" type="curve" smooth="yes"/>
      <point x="1050" y="1189"/>
      <point x="1062" y="1185"/>
      <point x="1070" y="1180" type="curve" smooth="yes"/>
      <point x="1089" y="1170"/>
      <point x="1107" y="1159"/>
      <point x="1126" y="1148" type="curve" smooth="yes"/>
      <point x="1133" y="1144"/>
      <point x="1145" y="1134"/>
      <point x="1153" y="1134" type="curve" smooth="yes"/>
      <point x="1161" y="1133"/>
      <point x="1173" y="1143"/>
      <point x="1180" y="1147" type="curve" smooth="yes"/>
      <point x="1199" y="1157"/>
      <point x="1217" y="1168"/>
      <point x="1236" y="1178" type="curve" smooth="yes"/>
      <point x="1245" y="1183"/>
      <point x="1259" y="1188"/>
      <point x="1264" y="1196" type="curve" smooth="yes"/>
      <point x="1271" y="1205"/>
      <point x="1274" y="1220"/>
      <point x="1279" y="1231" type="curve" smooth="yes"/>
      <point x="1308" y="1305" type="line" smooth="yes"/>
      <point x="1340" y="1384"/>
      <point x="1372" y="1464"/>
      <point x="1403" y="1544" type="curve" smooth="yes"/>
      <point x="1534" y="1877"/>
      <point x="1668" y="2210"/>
      <point x="1802" y="2544" type="curve" smooth="yes"/>
      <point x="1837" y="2631"/>
      <point x="1872" y="2720"/>
      <point x="1907" y="2808" type="curve" smooth="yes"/>
      <point x="1916" y="2831"/>
      <point x="1926" y="2854"/>
      <point x="1935" y="2878" type="curve" smooth="yes"/>
      <point x="1938" y="2886"/>
      <point x="1941" y="2900"/>
      <point x="1949" y="2905" type="curve" smooth="yes"/>
      <point x="1975" y="2923"/>
      <point x="2004" y="2936"/>
      <point x="2031" y="2951" type="curve" smooth="yes"/>
      <point x="2044" y="2959"/>
      <point x="2060" y="2972"/>
      <point x="2075" y="2975" type="curve" smooth="yes"/>
      <point x="2086" y="2978"/>
      <point x="2100" y="2976"/>
      <point x="2111" y="2976" type="curve" smooth="yes"/>
      <point x="2122" y="2976"/>
      <point x="2143" y="2980"/>
      <point x="2153" y="2974" type="curve" smooth="yes"/>
      <point x="2163" y="2970"/>
      <point x="2171" y="2957"/>
      <point x="2179" y="2950" type="curve" smooth="yes"/>
      <point x="2185" y="2943"/>
      <point x="2195" y="2936"/>
      <point x="2199" y="2929" type="curve" smooth="yes"/>
      <point x="2201" y="2924"/>
      <point x="2200" y="2918"/>
      <point x="2200" y="2914" type="curve" smooth="yes"/>
      <point x="2200" y="2882" type="line"/>
      <point x="2200" y="2767" type="line"/>
      <point x="2200" y="2357" type="line"/>
      <point x="2200" y="273" type="line"/>
    </contour>
  </outline>
</glyph>
<glyph name="N" format="1">
  <advance width="1946"/>
  <unicode hex="004E"/>
  <outline>
    <contour>
      <point x="1785" y="3023" type="move"/>
      <point x="1785" y="978" type="line"/>
      <point x="1785" y="490" type="line"/>
      <point x="1785" y="395" type="line" smooth="yes"/>
      <point x="1785" y="382"/>
      <point x="1788" y="364"/>
      <point x="1784" y="353" type="curve" smooth="yes"/>
      <point x="1782" y="347"/>
      <point x="1776" y="343"/>
      <point x="1773" y="340" type="curve" smooth="yes"/>
      <point x="1764" y="331"/>
      <point x="1756" y="319"/>
      <point x="1746" y="313" type="curve" smooth="yes"/>
      <point x="1737" y="308"/>
      <point x="1717" y="312"/>
      <point x="1707" y="312" type="curve" smooth="yes"/>
      <point x="1695" y="312"/>
      <point x="1679" y="309"/>
      <point x="1668" y="312" type="curve" smooth="yes"/>
      <point x="1658" y="315"/>
      <point x="1649" y="322"/>
      <point x="1640" y="326" type="curve" smooth="yes"/>
      <point x="1617" y="338"/>
      <point x="1595" y="350"/>
      <point x="1573" y="361" type="curve" smooth="yes"/>
      <point x="1561" y="367"/>
      <point x="1543" y="372"/>
      <point x="1535" y="382" type="curve" smooth="yes"/>
      <point x="1526" y="391"/>
      <point x="1521" y="410"/>
      <point x="1516" y="422" type="curve" smooth="yes"/>
      <point x="1504" y="448"/>
      <point x="1491" y="474"/>
      <point x="1479" y="501" type="curve" smooth="yes"/>
      <point x="1426" y="611"/>
      <point x="1377" y="723"/>
      <point x="1324" y="834" type="curve" smooth="yes"/>
      <point x="1203" y="1090"/>
      <point x="1086" y="1349"/>
      <point x="967" y="1607" type="curve" smooth="yes"/>
      <point x="826" y="1914"/>
      <point x="682" y="2219"/>
      <point x="541" y="2527" type="curve" smooth="yes"/>
      <point x="505" y="2604"/>
      <point x="468" y="2682"/>
      <point x="433" y="2760" type="curve" smooth="yes"/>
      <point x="400" y="2832" type="line" smooth="yes"/>
      <point x="396" y="2840"/>
      <point x="393" y="2852"/>
      <point x="386" y="2858" type="curve" smooth="yes"/>
      <point x="375" y="2869"/>
      <point x="355" y="2875"/>
      <point x="342" y="2882" type="curve" smooth="yes"/>
      <point x="309" y="2898"/>
      <point x="275" y="2914"/>
      <point x="244" y="2933" type="curve" smooth="yes"/>
      <point x="229" y="2941"/>
      <point x="201" y="2947"/>
      <point x="200" y="2966" type="curve" smooth="yes"/>
    </contour>
    <contour>
      <point x="202" y="2955" type="move"/>
      <point x="163" y="2916" type="line"/>
      <point x="145" y="2897" type="line"/>
      <point x="144" y="2880" type="line"/>
      <point x="144" y="2843" type="line"/>
      <point x="144" y="2709" type="line"/>
      <point x="144" y="2249" type="line"/>
      <point x="144" y="274" type="line"/>
    </contour>
  </outline>
</glyph>
<glyph name="R" format="1">
  <advance width="1884"/>
  <unicode hex="0052"/>
  <outline>
    <contour>
      <point x="208" y="281" type="move"/>
      <point x="208" y="2250" type="line"/>
      <point x="208" y="2800" type="line"/>
      <point x="208" y="2954" type="line"/>
      <point x="208" y="2996" type="line" smooth="yes"/>
      <point x="208" y="3001"/>
      <point x="206" y="3009"/>
      <point x="209" y="3015" type="curve" smooth="yes"/>
      <point x="212" y="3020"/>
      <point x="219" y="3028"/>
      <point x="225" y="3030" type="curve" smooth="yes"/>
      <point x="232" y="3033"/>
      <point x="244" y="3031"/>
      <point x="252" y="3031" type="curve" smooth="yes"/>
      <point x="312" y="3031" type="line"/>
      <point x="625" y="3031" type="line" smooth="yes"/>
      <point x="752" y="3031"/>
      <point x="879" y="3033"/>
      <point x="1006" y="3028" type="curve" smooth="yes"/>
      <point x="1145" y="3021"/>
      <point x="1281" y="3012"/>
      <point x="1416" y="2974" type="curve" smooth="yes"/>
      <point x="1577" y="2929"/>
      <point x="1726" y="2832"/>
      <point x="1789" y="2672" type="curve" smooth="yes"/>
      <point x="1812" y="2616"/>
      <point x="1822" y="2557"/>
      <point x="1828" y="2498" type="curve" smooth="yes"/>
      <point x="1831" y="2470"/>
      <point x="1835" y="2441"/>
      <point x="1836" y="2414" type="curve" smooth="yes"/>
      <point x="1836" y="2386"/>
      <point x="1831" y="2356"/>
      <point x="1828" y="2329" type="curve" smooth="yes"/>
      <point x="1817" y="2222"/>
      <point x="1789" y="2122"/>
      <point x="1725" y="2035" type="curve" smooth="yes"/>
      <point x="1661" y="1948"/>
      <point x="1570" y="1886"/>
      <point x="1471" y="1846" type="curve" smooth="yes"/>
      <point x="1368" y="1805"/>
      <point x="1255" y="1783"/>
      <point x="1145" y="1775" type="curve" smooth="yes"/>
      <point x="1127" y="1774"/>
      <point x="1109" y="1772"/>
      <point x="1091" y="1772" type="curve" smooth="yes"/>
      <point x="1081" y="1771"/>
      <point x="1070" y="1772"/>
      <point x="1060" y="1770" type="curve" smooth="yes"/>
      <point x="1053" y="1769"/>
      <point x="1042" y="1758"/>
      <point x="1040" y="1752" type="curve" smooth="yes"/>
      <point x="1039" y="1742"/>
      <point x="1045" y="1727"/>
      <point x="1047" y="1718" type="curve" smooth="yes"/>
      <point x="1053" y="1693"/>
      <point x="1058" y="1669"/>
      <point x="1063" y="1645" type="curve" smooth="yes"/>
      <point x="1068" y="1621"/>
      <point x="1072" y="1598"/>
      <point x="1078" y="1576" type="curve" smooth="yes"/>
      <point x="1080" y="1565"/>
      <point x="1081" y="1553"/>
      <point x="1085" y="1543" type="curve" smooth="yes"/>
      <point x="1097" y="1510"/>
      <point x="1120" y="1479"/>
      <point x="1138" y="1449" type="curve" smooth="yes"/>
      <point x="1169" y="1392"/>
      <point x="1200" y="1335"/>
      <point x="1233" y="1280" type="curve" smooth="yes"/>
      <point x="1276" y="1205"/>
      <point x="1316" y="1129"/>
      <point x="1358" y="1055" type="curve" smooth="yes"/>
      <point x="1441" y="908"/>
      <point x="1524" y="762"/>
      <point x="1606" y="615" type="curve" smooth="yes"/>
      <point x="1655" y="526"/>
      <point x="1706" y="439"/>
      <point x="1754" y="351" type="curve" smooth="yes"/>
      <point x="1773" y="316"/>
      <point x="1797" y="282"/>
      <point x="1813" y="246" type="curve" smooth="yes"/>
    </contour>
    <contour>
      <point x="209" y="1765" type="move"/>
      <point x="755" y="1765" type="line"/>
      <point x="932" y="1765" type="line"/>
      <point x="987" y="1765" type="line"/>
      <point x="1015" y="1764" type="line"/>
      <point x="1040" y="1754" type="line"/>
    </contour>
  </outline>
</glyph>
<glyph name="U" format="1">
  <advance width="1994"/>
  <unicode hex="0055"/>
  <outline>
    <contour>
      <point x="208" y="3023" type="move"/>
      <point x="208" y="1495" type="line" smooth="yes"/>
      <point x="208" y="1349"/>
      <point x="204" y="1202"/>
      <point x="214" y="1057" type="curve" smooth="yes"/>
      <point x="224" y="918"/>
      <point x="240" y="780"/>
      <point x="303" y="654" type="curve" smooth="yes"/>
      <point x="338" y="585"/>
      <point x="383" y="520"/>
      <point x="439" y="468" type="curve" smooth="yes"/>
      <point x="575" y="341"/>
      <point x="760" y="294"/>
      <point x="940" y="281" type="curve" smooth="yes"/>
      <point x="1014" y="276"/>
      <point x="1086" y="275"/>
      <point x="1159" y="282" type="curve" smooth="yes"/>
      <point x="1243" y="290"/>
      <point x="1327" y="302"/>
      <point x="1406" y="330" type="curve" smooth="yes"/>
      <point x="1541" y="378"/>
      <point x="1661" y="464"/>
      <point x="1737" y="588" type="curve" smooth="yes"/>
      <point x="1828" y="735"/>
      <point x="1854" y="901"/>
      <point x="1861" y="1072" type="curve" smooth="yes"/>
      <point x="1867" y="1196"/>
      <point x="1865" y="1321"/>
      <point x="1865" y="1447" type="curve" smooth="yes"/>
      <point x="1865" y="3023" type="line"/>
    </contour>
  </outline>
</glyph>
<glyph name="X" format="1">
  <advance width="1859"/>
  <unicode hex="0058"/>
  <outline>
    <contour>
      <point x="133" y="3053" type="move" smooth="yes"/>
      <point x="213" y="2915"/>
      <point x="291" y="2776"/>
      <point x="369" y="2638" type="curve" smooth="yes"/>
      <point x="477" y="2446"/>
      <point x="587" y="2255"/>
      <point x="696" y="2064" type="curve" smooth="yes"/>
      <point x="724" y="2014"/>
      <point x="752" y="1965"/>
      <point x="780" y="1916" type="curve" smooth="yes"/>
      <point x="788" y="1901"/>
      <point x="797" y="1886"/>
      <point x="805" y="1872" type="curve" smooth="yes"/>
      <point x="809" y="1865"/>
      <point x="812" y="1856"/>
      <point x="818" y="1851" type="curve" smooth="yes"/>
      <point x="824" y="1846"/>
      <point x="833" y="1843"/>
      <point x="840" y="1840" type="curve" smooth="yes"/>
      <point x="853" y="1834"/>
      <point x="867" y="1827"/>
      <point x="881" y="1821" type="curve" smooth="yes"/>
      <point x="891" y="1816"/>
      <point x="903" y="1812"/>
      <point x="912" y="1804" type="curve" smooth="yes"/>
      <point x="917" y="1798"/>
      <point x="928" y="1790"/>
      <point x="929" y="1783" type="curve" smooth="yes"/>
      <point x="932" y="1763"/>
      <point x="930" y="1740"/>
      <point x="930" y="1721" type="curve" smooth="yes"/>
      <point x="930" y="1594" type="line"/>
      <point x="930" y="1544" type="line" smooth="yes"/>
      <point x="930" y="1537"/>
      <point x="931" y="1527"/>
      <point x="928" y="1522" type="curve" smooth="yes"/>
      <point x="926" y="1516"/>
      <point x="920" y="1512"/>
      <point x="916" y="1508" type="curve" smooth="yes"/>
      <point x="897" y="1489"/>
      <point x="865" y="1479"/>
      <point x="841" y="1468" type="curve" smooth="yes"/>
      <point x="833" y="1465"/>
      <point x="823" y="1462"/>
      <point x="817" y="1456" type="curve" smooth="yes"/>
      <point x="804" y="1443"/>
      <point x="795" y="1419"/>
      <point x="786" y="1403" type="curve" smooth="yes"/>
      <point x="763" y="1363"/>
      <point x="740" y="1322"/>
      <point x="717" y="1283" type="curve" smooth="yes"/>
      <point x="580" y="1042"/>
      <point x="444" y="801"/>
      <point x="306" y="561" type="curve" smooth="yes"/>
      <point x="265" y="489"/>
      <point x="225" y="417"/>
      <point x="184" y="346" type="curve" smooth="yes"/>
      <point x="165" y="313"/>
      <point x="149" y="278"/>
      <point x="128" y="248" type="curve" smooth="yes"/>
    </contour>
    <contour>
      <point x="1726" y="3053" type="move" smooth="yes"/>
      <point x="1681" y="2978"/>
      <point x="1640" y="2901"/>
      <point x="1597" y="2826" type="curve" smooth="yes"/>
      <point x="1481" y="2624"/>
      <point x="1367" y="2421"/>
      <point x="1251" y="2220" type="curve" smooth="yes"/>
      <point x="1203" y="2135"/>
      <point x="1155" y="2051"/>
      <point x="1107" y="1967" type="curve" smooth="yes"/>
      <point x="1092" y="1940"/>
      <point x="1077" y="1914"/>
      <point x="1062" y="1888" type="curve" smooth="yes"/>
      <point x="1056" y="1876"/>
      <point x="1050" y="1861"/>
      <point x="1041" y="1852" type="curve" smooth="yes"/>
      <point x="1032" y="1843"/>
      <point x="1014" y="1838"/>
      <point x="1003" y="1833" type="curve" smooth="yes"/>
      <point x="987" y="1825"/>
      <point x="967" y="1819"/>
      <point x="953" y="1809" type="curve" smooth="yes"/>
      <point x="944" y="1803"/>
      <point x="937" y="1794"/>
      <point x="930" y="1787" type="curve" smooth="yes"/>
    </contour>
    <contour>
      <point x="930" y="1521" type="move" smooth="yes"/>
      <point x="937" y="1513"/>
      <point x="943" y="1505"/>
      <point x="952" y="1499" type="curve" smooth="yes"/>
      <point x="966" y="1489"/>
      <point x="986" y="1482"/>
      <point x="1003" y="1475" type="curve" smooth="yes"/>
      <point x="1014" y="1470"/>
      <point x="1033" y="1465"/>
      <point x="1042" y="1455" type="curve" smooth="yes"/>
      <point x="1051" y="1446"/>
      <point x="1056" y="1431"/>
      <point x="1063" y="1420" type="curve" smooth="yes"/>
      <point x="1079" y="1392"/>
      <point x="1094" y="1364"/>
      <point x="1110" y="1337" type="curve" smooth="yes"/>
      <point x="1157" y="1254"/>
      <point x="1204" y="1172"/>
      <point x="1251" y="1090" type="curve" smooth="yes"/>
      <point x="1412" y="809"/>
      <point x="1566" y="526"/>
      <point x="1731" y="248" type="curve" smooth="yes"/>
    </contour>
  </outline>
</glyph>
<glyph name="bracketleft" format="1">
  <advance width="1159"/>
  <unicode hex="005B"/>
  <outline>
    <contour>
      <point x="984" y="-118" type="move"/>
      <point x="486" y="-118" type="line"/>
      <point x="365" y="-118" type="line" smooth="yes"/>
      <point x="352" y="-118"/>
      <point x="331" y="-122"/>
      <point x="322" y="-111" type="curve" smooth="yes"/>
      <point x="319" y="-106"/>
      <point x="320" y="-101"/>
      <point x="320" y="-96" type="curve" smooth="yes"/>
      <point x="320" y="-63" type="line"/>
      <point x="320" y="68" type="line"/>
      <point x="320" y="570" type="line"/>
      <point x="320" y="2505" type="line"/>
      <point x="320" y="3060" type="line"/>
      <point x="320" y="3201" type="line"/>
      <point x="320" y="3236" type="line" smooth="yes"/>
      <point x="320" y="3241"/>
      <point x="319" y="3247"/>
      <point x="323" y="3251" type="curve" smooth="yes"/>
      <point x="331" y="3261"/>
      <point x="356" y="3257"/>
      <point x="368" y="3257" type="curve" smooth="yes"/>
      <point x="496" y="3257" type="line"/>
      <point x="1015" y="3257" type="line"/>
    </contour>
  </outline>
</glyph>
<glyph name="backslash" format="1">
  <advance width="1372"/>
  <unicode hex="005C"/>
  <outline>
    <contour>
      <point x="80" y="3188" type="move"/>
      <point x="113" y="3099" type="line"/>
      <point x="184" y="2909" type="line"/>
      <point x="382" y="2379" type="line"/>
      <point x="998" y="732" type="line"/>
      <point x="1197" y="199" type="line"/>
      <point x="1259" y="33" type="line"/>
      <point x="1292" y="-52" type="line"/>
    </contour>
  </outline>
</glyph>
<glyph name="bracketright" format="1">
  <advance width="1051"/>
  <unicode hex="005D"/>
  <outline>
    <contour>
      <point x="176" y="3265" type="move"/>
      <point x="600" y="3265" type="line"/>
      <point x="685" y="3265" type="line" smooth="yes"/>
      <point x="695" y="3265"/>
      <point x="711" y="3268"/>
      <point x="722" y="3264" type="curve" smooth="yes"/>
      <point x="729" y="3261"/>
      <point x="741" y="3248"/>
      <point x="745" y="3242" type="curve" smooth="yes"/>
      <point x="748" y="3237"/>
      <point x="747" y="3230"/>
      <point x="747" y="3226" type="curve" smooth="yes"/>
      <point x="747" y="3190" type="line"/>
      <point x="747" y="3055" type="line"/>
      <point x="747" y="2548" type="line"/>
      <point x="747" y="654" type="line"/>
      <point x="747" y="95" type="line"/>
      <point x="747" y="-50" type="line"/>
      <point x="747" y="-87" type="line" smooth="yes"/>
      <point x="747" y="-92"/>
      <point x="748" y="-98"/>
      <point x="744" y="-103" type="curve" smooth="yes"/>
      <point x="736" y="-113"/>
      <point x="719" y="-110"/>
      <point x="708" y="-110" type="curve" smooth="yes"/>
      <point x="607" y="-110" type="line"/>
      <point x="192" y="-110" type="line"/>
    </contour>
  </outline>
</glyph>
<glyph name="underscore" format="1">
  <advance width="939"/>
  <unicode hex="005F"/>
  <outline>
    <contour>
      <point x="0" y="-289" type="move"/>
      <point x="939" y="-289" type="line"/>
    </contour>
  </outline>
</glyph>
<glyph name="grave" format="1">
  <advance width="512"/>
  <unicode hex="0060"/>
  <outline>
    <contour>
      <point x="144" y="3135" type="move"/>
      <point x="275" y="2882" type="line"/>
      <point x="368" y="2704" type="line"/>
    </contour>
  </outline>
</glyph>
<glyph name="a" format="1">
  <advance width="1321"/>
  <unicode hex="0061"/>
  <outline>
    <contour>
      <point x="205" y="1896" type="move" smooth="yes"/>
      <point x="215" y="1927"/>
      <point x="224" y="1959"/>
      <point x="237" y="1991" type="curve" smooth="yes"/>
      <point x="271" y="2075"/>
      <point x="326" y="2157"/>
      <point x="401" y="2211" type="curve" smooth="yes"/>
      <point x="477" y="2265"/>
      <point x="568" y="2283"/>
      <point x="660" y="2290" type="curve" smooth="yes"/>
      <point x="697" y="2292"/>
      <point x="736" y="2297"/>
      <point x="774" y="2295" type="curve" smooth="yes"/>
      <point x="928" y="2289"/>
      <point x="1095" y="2240"/>
      <point x="1184" y="2103" type="curve" smooth="yes"/>
      <point x="1223" y="2043"/>
      <point x="1236" y="1971"/>
      <point x="1244" y="1902" type="curve" smooth="yes"/>
      <point x="1252" y="1824"/>
      <point x="1257" y="1747"/>
      <point x="1257" y="1669" type="curve" smooth="yes"/>
      <point x="1257" y="878" type="line"/>
      <point x="1257" y="598" type="line"/>
      <point x="1257" y="524" type="line" smooth="yes"/>
      <point x="1257" y="513"/>
      <point x="1259" y="500"/>
      <point x="1253" y="491" type="curve" smooth="yes"/>
      <point x="1250" y="485"/>
      <point x="1242" y="485"/>
      <point x="1237" y="483" type="curve" smooth="yes"/>
      <point x="1222" y="479"/>
      <point x="1208" y="474"/>
      <point x="1194" y="470" type="curve" smooth="yes"/>
      <point x="1158" y="460"/>
      <point x="1122" y="450"/>
      <point x="1087" y="440" type="curve" smooth="yes"/>
      <point x="1066" y="435"/>
      <point x="1043" y="431"/>
      <point x="1023" y="424" type="curve" smooth="yes"/>
      <point x="1005" y="418"/>
      <point x="987" y="400"/>
      <point x="972" y="390" type="curve" smooth="yes"/>
      <point x="938" y="368"/>
      <point x="903" y="348"/>
      <point x="867" y="332" type="curve" smooth="yes"/>
      <point x="815" y="309"/>
      <point x="760" y="298"/>
      <point x="705" y="290" type="curve" smooth="yes"/>
      <point x="671" y="286"/>
      <point x="636" y="279"/>
      <point x="603" y="279" type="curve" smooth="yes"/>
      <point x="581" y="278"/>
      <point x="560" y="282"/>
      <point x="539" y="284" type="curve" smooth="yes"/>
      <point x="490" y="290"/>
      <point x="442" y="301"/>
      <point x="398" y="321" type="curve" smooth="yes"/>
      <point x="267" y="379"/>
      <point x="205" y="508"/>
      <point x="187" y="643" type="curve" smooth="yes"/>
      <point x="181" y="690"/>
      <point x="174" y="739"/>
      <point x="176" y="788" type="curve" smooth="yes"/>
      <point x="179" y="935"/>
      <point x="220" y="1079"/>
      <point x="323" y="1190" type="curve" smooth="yes"/>
      <point x="398" y="1271"/>
      <point x="498" y="1327"/>
      <point x="600" y="1367" type="curve" smooth="yes"/>
      <point x="719" y="1414"/>
      <point x="849" y="1445"/>
      <point x="977" y="1460" type="curve" smooth="yes"/>
      <point x="1024" y="1466"/>
      <point x="1073" y="1466"/>
      <point x="1121" y="1470" type="curve" smooth="yes"/>
      <point x="1165" y="1473"/>
      <point x="1211" y="1476"/>
      <point x="1256" y="1476" type="curve" smooth="yes"/>
    </contour>
    <contour>
      <point x="1253" y="488" type="move" smooth="yes"/>
      <point x="1258" y="482"/>
      <point x="1257" y="476"/>
      <point x="1257" y="469" type="curve" smooth="yes"/>
      <point x="1257" y="432" type="line"/>
      <point x="1257" y="282" type="line"/>
    </contour>
  </outline>
</glyph>
<glyph name="b" format="1">
  <advance width="1593"/>
  <unicode hex="0062"/>
  <outline>
    <contour>
      <point x="244" y="3156" type="move"/>
      <point x="292" y="181" type="line"/>
      <point x="229" y="181" type="line" smooth="yes"/>
      <point x="224" y="180"/>
      <point x="209" y="178"/>
      <point x="205" y="182" type="curve" smooth="yes"/>
      <point x="202" y="183"/>
      <point x="203" y="188"/>
      <point x="203" y="191" type="curve" smooth="yes"/>
      <point x="203" y="215" type="line"/>
      <point x="203" y="298" type="line" smooth="yes"/>
      <point x="203" y="304"/>
      <point x="206" y="321"/>
      <point x="202" y="326" type="curve" smooth="yes"/>
      <point x="197" y="330"/>
      <point x="190" y="327"/>
      <point x="186" y="323" type="curve" smooth="yes"/>
      <point x="175" y="314"/>
      <point x="165" y="303"/>
      <point x="155" y="293" type="curve" smooth="yes"/>
      <point x="152" y="289"/>
      <point x="146" y="281"/>
      <point x="141" y="284" type="curve" smooth="yes"/>
      <point x="133" y="289"/>
      <point x="117" y="304"/>
      <point x="114" y="313" type="curve" smooth="yes"/>
      <point x="112" y="317"/>
      <point x="113" y="324"/>
      <point x="113" y="330" type="curve" smooth="yes"/>
      <point x="113" y="366" type="line" smooth="yes"/>
      <point x="113" y="372"/>
      <point x="110" y="394"/>
      <point x="116" y="397" type="curve" smooth="yes"/>
      <point x="122" y="401"/>
      <point x="137" y="395"/>
      <point x="140" y="389" type="curve" smooth="yes"/>
      <point x="145" y="377"/>
      <point x="133" y="348"/>
      <point x="151" y="342" type="curve" smooth="yes"/>
      <point x="158" y="340"/>
      <point x="167" y="341"/>
      <point x="174" y="341" type="curve" smooth="yes"/>
      <point x="190" y="341"/>
      <point x="210" y="337"/>
      <point x="224" y="346" type="curve" smooth="yes"/>
      <point x="234" y="351"/>
      <point x="238" y="360"/>
      <point x="240" y="370" type="curve" smooth="yes"/>
      <point x="241" y="372"/>
      <point x="243" y="376"/>
      <point x="246" y="375" type="curve" smooth="yes"/>
      <point x="248" y="374"/>
      <point x="248" y="370"/>
      <point x="248" y="368" type="curve" smooth="yes"/>
      <point x="248" y="362"/>
      <point x="246" y="351"/>
      <point x="249" y="346" type="curve" smooth="yes"/>
      <point x="254" y="339"/>
      <point x="271" y="346"/>
      <point x="278" y="341" type="curve" smooth="yes"/>
      <point x="281" y="339"/>
      <point x="279" y="331"/>
      <point x="279" y="328" type="curve" smooth="yes"/>
      <point x="279" y="289" type="line" smooth="yes"/>
      <point x="279" y="278"/>
      <point x="279" y="269"/>
      <point x="280" y="259" type="curve" smooth="yes"/>
      <point x="281" y="256"/>
      <point x="282" y="251"/>
      <point x="278" y="250" type="curve" smooth="yes"/>
      <point x="273" y="249"/>
      <point x="271" y="257"/>
      <point x="271" y="261" type="curve" smooth="yes"/>
      <point x="271" y="278"/>
      <point x="267" y="291"/>
      <point x="250" y="299" type="curve"/>
      <point x="246" y="291"/>
      <point x="245" y="274"/>
      <point x="248" y="266" type="curve" smooth="yes"/>
      <point x="249" y="261"/>
      <point x="255" y="258"/>
      <point x="256" y="254" type="curve" smooth="yes"/>
      <point x="259" y="242"/>
      <point x="255" y="231"/>
      <point x="260" y="220" type="curve" smooth="yes"/>
      <point x="264" y="209"/>
      <point x="275" y="201"/>
      <point x="283" y="193" type="curve" smooth="yes"/>
      <point x="287" y="189"/>
      <point x="290" y="184"/>
      <point x="295" y="182" type="curve" smooth="yes"/>
      <point x="303" y="179"/>
      <point x="314" y="182"/>
      <point x="322" y="182" type="curve" smooth="yes"/>
      <point x="328" y="182"/>
      <point x="336" y="180"/>
      <point x="342" y="182" type="curve" smooth="yes"/>
      <point x="348" y="184"/>
      <point x="353" y="191"/>
      <point x="357" y="196" type="curve" smooth="yes"/>
      <point x="373" y="212"/>
      <point x="379" y="223"/>
      <point x="379" y="246" type="curve" smooth="yes"/>
      <point x="379" y="256"/>
      <point x="382" y="265"/>
      <point x="382" y="276" type="curve" smooth="yes"/>
      <point x="382" y="280"/>
      <point x="382" y="285"/>
      <point x="386" y="287" type="curve" smooth="yes"/>
      <point x="393" y="292"/>
      <point x="409" y="288"/>
      <point x="417" y="286" type="curve" smooth="yes"/>
      <point x="439" y="280"/>
      <point x="464" y="271"/>
      <point x="486" y="272" type="curve" smooth="yes"/>
      <point x="505" y="273"/>
      <point x="514" y="284"/>
      <point x="527" y="297" type="curve" smooth="yes"/>
      <point x="564" y="334" type="line"/>
      <point x="553" y="348"/>
      <point x="545" y="364"/>
      <point x="536" y="380" type="curve" smooth="yes"/>
      <point x="532" y="386"/>
      <point x="529" y="395"/>
      <point x="524" y="400" type="curve" smooth="yes"/>
      <point x="516" y="408"/>
      <point x="498" y="402"/>
      <point x="491" y="410" type="curve" smooth="yes"/>
      <point x="476" y="428"/>
      <point x="475" y="458"/>
      <point x="460" y="475" type="curve" smooth="yes"/>
      <point x="456" y="479"/>
      <point x="449" y="478"/>
      <point x="444" y="481" type="curve" smooth="yes"/>
      <point x="439" y="483"/>
      <point x="440" y="490"/>
      <point x="435" y="493" type="curve" smooth="yes"/>
      <point x="427" y="497"/>
      <point x="416" y="495"/>
      <point x="409" y="500" type="curve" smooth="yes"/>
      <point x="403" y="505"/>
      <point x="404" y="515"/>
      <point x="398" y="520" type="curve" smooth="yes"/>
      <point x="393" y="524"/>
      <point x="385" y="522"/>
      <point x="381" y="528" type="curve" smooth="yes"/>
      <point x="375" y="535"/>
      <point x="369" y="552"/>
      <point x="368" y="562" type="curve" smooth="yes"/>
      <point x="368" y="568"/>
      <point x="369" y="576"/>
      <point x="368" y="583" type="curve" smooth="yes"/>
      <point x="367" y="587"/>
      <point x="362" y="589"/>
      <point x="360" y="594" type="curve" smooth="yes"/>
      <point x="358" y="597"/>
      <point x="359" y="601"/>
      <point x="357" y="605" type="curve" smooth="yes"/>
      <point x="349" y="615"/>
      <point x="338" y="623"/>
      <point x="329" y="633" type="curve" smooth="yes"/>
      <point x="275" y="687" type="line" smooth="yes"/>
      <point x="267" y="695"/>
      <point x="249" y="707"/>
      <point x="245" y="719" type="curve" smooth="yes"/>
      <point x="243" y="724"/>
      <point x="244" y="733"/>
      <point x="244" y="739" type="curve" smooth="yes"/>
      <point x="244" y="783" type="line"/>
      <point x="244" y="933" type="line"/>
      <point x="244" y="1439" type="line"/>
    </contour>
    <contour>
      <point x="245" y="2094" type="move" smooth="yes"/>
      <point x="293" y="2103"/>
      <point x="341" y="2120"/>
      <point x="388" y="2132" type="curve" smooth="yes"/>
      <point x="407" y="2136"/>
      <point x="426" y="2141"/>
      <point x="445" y="2145" type="curve" smooth="yes"/>
      <point x="456" y="2148"/>
      <point x="469" y="2149"/>
      <point x="480" y="2153" type="curve" smooth="yes"/>
      <point x="499" y="2161"/>
      <point x="517" y="2177"/>
      <point x="534" y="2187" type="curve" smooth="yes"/>
      <point x="568" y="2208"/>
      <point x="603" y="2225"/>
      <point x="639" y="2240" type="curve" smooth="yes"/>
      <point x="688" y="2261"/>
      <point x="740" y="2271"/>
      <point x="792" y="2279" type="curve" smooth="yes"/>
      <point x="818" y="2283"/>
      <point x="846" y="2287"/>
      <point x="872" y="2286" type="curve" smooth="yes"/>
      <point x="897" y="2286"/>
      <point x="922" y="2282"/>
      <point x="946" y="2279" type="curve" smooth="yes"/>
      <point x="996" y="2272"/>
      <point x="1043" y="2261"/>
      <point x="1088" y="2238" type="curve" smooth="yes"/>
      <point x="1261" y="2150"/>
      <point x="1331" y="1944"/>
      <point x="1356" y="1765" type="curve" smooth="yes"/>
      <point x="1361" y="1735"/>
      <point x="1365" y="1705"/>
      <point x="1368" y="1676" type="curve" smooth="yes"/>
      <point x="1377" y="1588"/>
      <point x="1379" y="1501"/>
      <point x="1383" y="1413" type="curve" smooth="yes"/>
      <point x="1386" y="1344"/>
      <point x="1384" y="1274"/>
      <point x="1384" y="1206" type="curve" smooth="yes"/>
      <point x="1384" y="1153"/>
      <point x="1381" y="1100"/>
      <point x="1378" y="1048" type="curve" smooth="yes"/>
      <point x="1371" y="883"/>
      <point x="1345" y="714"/>
      <point x="1276" y="563" type="curve" smooth="yes"/>
      <point x="1231" y="461"/>
      <point x="1156" y="369"/>
      <point x="1053" y="323" type="curve" smooth="yes"/>
      <point x="1014" y="305"/>
      <point x="973" y="295"/>
      <point x="930" y="289" type="curve" smooth="yes"/>
      <point x="899" y="285"/>
      <point x="867" y="279"/>
      <point x="836" y="279" type="curve" smooth="yes"/>
      <point x="818" y="278"/>
      <point x="799" y="281"/>
      <point x="780" y="283" type="curve" smooth="yes"/>
      <point x="707" y="291"/>
      <point x="632" y="302"/>
      <point x="564" y="333" type="curve" smooth="yes"/>
    </contour>
    <contour>
      <point x="285" y="471" type="move" smooth="yes"/>
      <point x="305" y="468"/>
      <point x="310" y="447"/>
      <point x="312" y="431" type="curve"/>
      <point x="317" y="431"/>
      <point x="323" y="433"/>
      <point x="327" y="431" type="curve" smooth="yes"/>
      <point x="331" y="430"/>
      <point x="334" y="418"/>
      <point x="330" y="416" type="curve" smooth="yes"/>
      <point x="327" y="414"/>
      <point x="324" y="415"/>
      <point x="321" y="415" type="curve" smooth="yes"/>
      <point x="314" y="415"/>
      <point x="293" y="412"/>
      <point x="288" y="417" type="curve" smooth="yes"/>
      <point x="285" y="419"/>
      <point x="285" y="425"/>
      <point x="284" y="428" type="curve"/>
      <point x="291" y="430"/>
      <point x="298" y="435"/>
      <point x="295" y="444" type="curve" smooth="yes"/>
      <point x="293" y="451"/>
      <point x="285" y="449"/>
      <point x="284" y="457" type="curve" smooth="yes"/>
      <point x="283" y="465"/>
      <point x="284" y="479"/>
      <point x="287" y="486" type="curve" smooth="yes"/>
      <point x="288" y="490"/>
      <point x="291" y="492"/>
      <point x="292" y="496" type="curve" smooth="yes"/>
      <point x="295" y="513"/>
      <point x="292" y="531"/>
      <point x="285" y="547" type="curve" smooth="yes"/>
      <point x="281" y="556"/>
      <point x="271" y="564"/>
      <point x="263" y="572" type="curve" smooth="yes"/>
      <point x="218" y="617" type="line" smooth="yes"/>
      <point x="212" y="623"/>
      <point x="201" y="630"/>
      <point x="197" y="639" type="curve" smooth="yes"/>
      <point x="196" y="642"/>
      <point x="198" y="648"/>
      <point x="199" y="652" type="curve" smooth="yes"/>
      <point x="201" y="663"/>
      <point x="205" y="676"/>
      <point x="212" y="686" type="curve" smooth="yes"/>
      <point x="222" y="697"/>
      <point x="234" y="707"/>
      <point x="244" y="718" type="curve" smooth="yes"/>
    </contour>
    <contour>
      <point x="196" y="639" type="move" smooth="yes"/>
      <point x="192" y="634"/>
      <point x="176" y="623"/>
      <point x="176" y="616" type="curve" smooth="yes"/>
      <point x="177" y="608"/>
      <point x="191" y="598"/>
      <point x="196" y="594" type="curve" smooth="yes"/>
      <point x="207" y="583"/>
      <point x="219" y="572"/>
      <point x="229" y="561" type="curve" smooth="yes"/>
      <point x="232" y="557"/>
      <point x="231" y="553"/>
      <point x="234" y="550" type="curve" smooth="yes"/>
      <point x="238" y="545"/>
      <point x="243" y="540"/>
      <point x="248" y="536" type="curve" smooth="yes"/>
      <point x="258" y="526"/>
      <point x="275" y="535"/>
      <point x="274" y="516" type="curve" smooth="yes"/>
      <point x="273" y="512"/>
      <point x="273" y="507"/>
      <point x="271" y="505" type="curve" smooth="yes"/>
      <point x="267" y="502"/>
      <point x="260" y="504"/>
      <point x="255" y="503" type="curve" smooth="yes"/>
      <point x="246" y="501"/>
      <point x="235" y="488"/>
      <point x="224" y="496" type="curve" smooth="yes"/>
      <point x="211" y="506"/>
      <point x="227" y="523"/>
      <point x="230" y="533" type="curve" smooth="yes"/>
      <point x="231" y="539"/>
      <point x="229" y="545"/>
      <point x="232" y="551" type="curve" smooth="yes"/>
    </contour>
    <contour>
      <point x="205" y="483" type="move" smooth="yes"/>
      <point x="212" y="489"/>
      <point x="220" y="488"/>
      <point x="229" y="488" type="curve"/>
      <point x="229" y="480" type="line"/>
      <point x="248" y="479"/>
      <point x="243" y="462"/>
      <point x="248" y="449" type="curve" smooth="yes"/>
      <point x="250" y="445"/>
      <point x="255" y="443"/>
      <point x="256" y="439" type="curve" smooth="yes"/>
      <point x="256" y="434"/>
      <point x="251" y="431"/>
      <point x="246" y="431" type="curve"/>
      <point x="247" y="425"/>
      <point x="250" y="405"/>
      <point x="245" y="402" type="curve" smooth="yes"/>
      <point x="239" y="399"/>
      <point x="231" y="403"/>
      <point x="225" y="400" type="curve"/>
      <point x="219" y="409"/>
      <point x="225" y="413"/>
      <point x="227" y="423" type="curve" smooth="yes"/>
      <point x="227" y="426"/>
      <point x="226" y="432"/>
      <point x="225" y="436" type="curve" smooth="yes"/>
      <point x="222" y="449"/>
      <point x="218" y="464"/>
      <point x="210" y="476" type="curve" smooth="yes"/>
      <point x="207" y="480"/>
      <point x="198" y="482"/>
      <point x="196" y="487" type="curve" smooth="yes"/>
      <point x="192" y="500"/>
      <point x="200" y="517"/>
      <point x="195" y="531" type="curve" smooth="yes"/>
      <point x="190" y="544"/>
      <point x="174" y="555"/>
      <point x="164" y="565" type="curve" smooth="yes"/>
      <point x="160" y="568"/>
      <point x="154" y="573"/>
      <point x="152" y="579" type="curve" smooth="yes"/>
      <point x="149" y="594"/>
      <point x="165" y="605"/>
      <point x="175" y="615" type="curve" smooth="yes"/>
    </contour>
    <contour>
      <point x="381" y="527" type="move"/>
      <point x="371" y="518" type="line"/>
      <point x="350" y="521" type="line"/>
      <point x="325" y="513" type="line"/>
      <point x="310" y="513" type="line"/>
      <point x="303" y="530"/>
      <point x="317" y="544"/>
      <point x="327" y="556" type="curve" smooth="yes"/>
      <point x="330" y="559"/>
      <point x="331" y="565"/>
      <point x="335" y="569" type="curve" smooth="yes"/>
      <point x="342" y="578"/>
      <point x="351" y="585"/>
      <point x="359" y="594" type="curve" smooth="yes"/>
    </contour>
    <contour>
      <point x="196" y="485" type="move" smooth="yes"/>
      <point x="190" y="474"/>
      <point x="199" y="459"/>
      <point x="205" y="450" type="curve" smooth="yes"/>
      <point x="207" y="446"/>
      <point x="208" y="437"/>
      <point x="205" y="434" type="curve" smooth="yes"/>
      <point x="198" y="427"/>
      <point x="190" y="447"/>
      <point x="180" y="440" type="curve"/>
      <point x="166" y="453"/>
      <point x="145" y="463"/>
      <point x="135" y="480" type="curve" smooth="yes"/>
      <point x="132" y="485"/>
      <point x="134" y="494"/>
      <point x="134" y="500" type="curve" smooth="yes"/>
      <point x="134" y="541" type="line" smooth="yes"/>
      <point x="134" y="546"/>
      <point x="133" y="554"/>
      <point x="135" y="559" type="curve" smooth="yes"/>
      <point x="139" y="565"/>
      <point x="147" y="571"/>
      <point x="152" y="577" type="curve" smooth="yes"/>
    </contour>
    <contour>
      <point x="287" y="538" type="move" smooth="yes"/>
      <point x="282" y="530"/>
      <point x="287" y="520"/>
      <point x="286" y="512" type="curve" smooth="yes"/>
      <point x="283" y="495"/>
      <point x="261" y="488"/>
      <point x="249" y="500" type="curve" smooth="yes"/>
    </contour>
    <contour>
      <point x="230" y="532" type="move"/>
      <point x="250" y="513" type="line"/>
      <point x="272" y="513" type="line"/>
    </contour>
    <contour>
      <point x="242" y="522" type="move"/>
      <point x="272" y="522" type="line"/>
    </contour>
    <contour>
      <point x="385" y="289" type="move" smooth="yes"/>
      <point x="377" y="296"/>
      <point x="366" y="294"/>
      <point x="358" y="303" type="curve" smooth="yes"/>
      <point x="349" y="312"/>
      <point x="351" y="328"/>
      <point x="351" y="341" type="curve" smooth="yes"/>
      <point x="351" y="344"/>
      <point x="350" y="353"/>
      <point x="355" y="353" type="curve" smooth="yes"/>
      <point x="363" y="353"/>
      <point x="373" y="338"/>
      <point x="381" y="335" type="curve" smooth="yes"/>
      <point x="394" y="330"/>
      <point x="413" y="329"/>
      <point x="425" y="333" type="curve" smooth="yes"/>
      <point x="430" y="334"/>
      <point x="438" y="337"/>
      <point x="437" y="344" type="curve" smooth="yes"/>
      <point x="437" y="347"/>
      <point x="433" y="350"/>
      <point x="430" y="353" type="curve" smooth="yes"/>
      <point x="411" y="372" type="line"/>
      <point x="409" y="368"/>
      <point x="408" y="363"/>
      <point x="404" y="361" type="curve" smooth="yes"/>
      <point x="397" y="356"/>
      <point x="379" y="360"/>
      <point x="370" y="360" type="curve" smooth="yes"/>
      <point x="367" y="359"/>
      <point x="363" y="359"/>
      <point x="361" y="364" type="curve" smooth="yes"/>
      <point x="360" y="370"/>
      <point x="361" y="379"/>
      <point x="361" y="387" type="curve" smooth="yes"/>
      <point x="361" y="402"/>
      <point x="359" y="418"/>
      <point x="363" y="434" type="curve" smooth="yes"/>
      <point x="365" y="444"/>
      <point x="372" y="457"/>
      <point x="371" y="468" type="curve"/>
      <point x="365" y="464"/>
      <point x="361" y="461"/>
      <point x="357" y="456" type="curve" smooth="yes"/>
      <point x="355" y="453"/>
      <point x="353" y="446"/>
      <point x="348" y="446" type="curve" smooth="yes"/>
      <point x="342" y="446"/>
      <point x="347" y="462"/>
      <point x="347" y="466" type="curve" smooth="yes"/>
      <point x="349" y="475"/>
      <point x="349" y="490"/>
      <point x="353" y="499" type="curve" smooth="yes"/>
      <point x="357" y="506"/>
      <point x="366" y="512"/>
      <point x="371" y="518" type="curve" smooth="yes"/>
    </contour>
    <contour>
      <point x="309" y="512" type="move" smooth="yes"/>
      <point x="310" y="507"/>
      <point x="310" y="502"/>
      <point x="313" y="499" type="curve" smooth="yes"/>
      <point x="317" y="493"/>
      <point x="323" y="490"/>
      <point x="327" y="484" type="curve" smooth="yes"/>
      <point x="331" y="475"/>
      <point x="327" y="469"/>
      <point x="327" y="461" type="curve" smooth="yes"/>
      <point x="327" y="451"/>
      <point x="332" y="441"/>
      <point x="326" y="433" type="curve" smooth="yes"/>
    </contour>
    <contour>
      <point x="250" y="511" type="move"/>
      <point x="250" y="501" type="line"/>
    </contour>
    <contour>
      <point x="283" y="502" type="move"/>
      <point x="291" y="494" type="line"/>
    </contour>
    <contour>
      <point x="376" y="361" type="move" smooth="yes"/>
      <point x="376" y="384"/>
      <point x="373" y="409"/>
      <point x="378" y="433" type="curve" smooth="yes"/>
      <point x="380" y="444"/>
      <point x="386" y="455"/>
      <point x="390" y="466" type="curve" smooth="yes"/>
      <point x="392" y="471"/>
      <point x="390" y="477"/>
      <point x="392" y="483" type="curve" smooth="yes"/>
      <point x="394" y="489"/>
      <point x="403" y="495"/>
      <point x="408" y="501" type="curve" smooth="yes"/>
    </contour>
    <contour>
      <point x="292" y="492" type="move"/>
      <point x="325" y="463" type="line"/>
    </contour>
    <contour>
      <point x="230" y="489" type="move"/>
      <point x="287" y="491" type="line"/>
    </contour>
    <contour>
      <point x="253" y="488" type="move" smooth="yes"/>
      <point x="253" y="480"/>
      <point x="249" y="479"/>
      <point x="243" y="476" type="curve" smooth="yes"/>
    </contour>
    <contour>
      <point x="269" y="488" type="move" smooth="yes"/>
      <point x="269" y="475"/>
      <point x="262" y="468"/>
      <point x="250" y="478" type="curve" smooth="yes"/>
    </contour>
    <contour>
      <point x="390" y="484" type="move"/>
      <point x="372" y="468" type="line"/>
    </contour>
    <contour>
      <point x="391" y="362" type="move" smooth="yes"/>
      <point x="391" y="382"/>
      <point x="387" y="409"/>
      <point x="395" y="429" type="curve" smooth="yes"/>
      <point x="398" y="435"/>
      <point x="404" y="438"/>
      <point x="408" y="444" type="curve" smooth="yes"/>
      <point x="419" y="457"/>
      <point x="430" y="469"/>
      <point x="442" y="481" type="curve" smooth="yes"/>
    </contour>
    <contour>
      <point x="134" y="480" type="move" smooth="yes"/>
      <point x="120" y="464"/>
      <point x="137" y="451"/>
      <point x="147" y="441" type="curve"/>
      <point x="139" y="430"/>
      <point x="153" y="413"/>
      <point x="157" y="403" type="curve" smooth="yes"/>
      <point x="164" y="385"/>
      <point x="160" y="360"/>
      <point x="160" y="342" type="curve" smooth="yes"/>
    </contour>
    <contour>
      <point x="228" y="479" type="move" smooth="yes"/>
      <point x="227" y="461"/>
      <point x="237" y="445"/>
      <point x="246" y="431" type="curve" smooth="yes"/>
    </contour>
    <contour>
      <point x="270" y="474" type="move"/>
      <point x="284" y="472" type="line"/>
    </contour>
    <contour>
      <point x="247" y="460" type="move" smooth="yes"/>
      <point x="252" y="460"/>
      <point x="258" y="461"/>
      <point x="262" y="458" type="curve" smooth="yes"/>
      <point x="269" y="453"/>
      <point x="263" y="444"/>
      <point x="257" y="443" type="curve" smooth="yes"/>
    </contour>
    <contour>
      <point x="114" y="397" type="move" smooth="yes"/>
      <point x="108" y="405"/>
      <point x="111" y="419"/>
      <point x="111" y="429" type="curve" smooth="yes"/>
      <point x="111" y="432"/>
      <point x="110" y="437"/>
      <point x="112" y="441" type="curve" smooth="yes"/>
      <point x="116" y="447"/>
      <point x="124" y="453"/>
      <point x="129" y="459" type="curve" smooth="yes"/>
    </contour>
    <contour>
      <point x="220" y="456" type="move"/>
      <point x="228" y="458" type="line"/>
    </contour>
    <contour>
      <point x="285" y="451" type="move"/>
      <point x="283" y="429" type="line"/>
      <point x="274" y="433" type="line"/>
    </contour>
    <contour>
      <point x="361" y="362" type="move" smooth="yes"/>
      <point x="357" y="359"/>
      <point x="348" y="358"/>
      <point x="346" y="364" type="curve" smooth="yes"/>
      <point x="343" y="370"/>
      <point x="345" y="380"/>
      <point x="345" y="387" type="curve" smooth="yes"/>
      <point x="345" y="406"/>
      <point x="345" y="425"/>
      <point x="347" y="445" type="curve" smooth="yes"/>
    </contour>
    <contour>
      <point x="147" y="440" type="move" smooth="yes"/>
      <point x="154" y="432"/>
      <point x="166" y="423"/>
      <point x="170" y="415" type="curve" smooth="yes"/>
      <point x="181" y="395"/>
      <point x="175" y="363"/>
      <point x="175" y="342" type="curve" smooth="yes"/>
    </contour>
    <contour>
      <point x="180" y="440" type="move"/>
      <point x="189" y="411" type="line"/>
      <point x="189" y="343" type="line"/>
    </contour>
    <contour>
      <point x="285" y="416" type="move" smooth="yes"/>
      <point x="272" y="416"/>
      <point x="262" y="418"/>
      <point x="274" y="432" type="curve" smooth="yes"/>
    </contour>
    <contour>
      <point x="204" y="431" type="move"/>
      <point x="208" y="366" type="line"/>
      <point x="204" y="342" type="line"/>
    </contour>
    <contour>
      <point x="311" y="430" type="move"/>
      <point x="311" y="417" type="line"/>
    </contour>
    <contour>
      <point x="266" y="420" type="move"/>
      <point x="248" y="416" type="line"/>
    </contour>
    <contour>
      <point x="331" y="414" type="move"/>
      <point x="344" y="412" type="line"/>
      <point x="333" y="409" type="line"/>
    </contour>
    <contour>
      <point x="411" y="372" type="move" smooth="yes"/>
      <point x="411" y="379"/>
      <point x="409" y="397"/>
      <point x="414" y="403" type="curve" smooth="yes"/>
      <point x="417" y="408"/>
      <point x="424" y="410"/>
      <point x="429" y="411" type="curve" smooth="yes"/>
      <point x="434" y="412"/>
      <point x="438" y="413"/>
      <point x="442" y="411" type="curve" smooth="yes"/>
      <point x="450" y="406"/>
      <point x="459" y="388"/>
      <point x="468" y="388" type="curve" smooth="yes"/>
      <point x="475" y="388"/>
      <point x="486" y="404"/>
      <point x="491" y="409" type="curve" smooth="yes"/>
    </contour>
    <contour>
      <point x="257" y="401" type="move" smooth="yes"/>
      <point x="265" y="401"/>
      <point x="269" y="390"/>
      <point x="262" y="386" type="curve" smooth="yes"/>
      <point x="254" y="381"/>
      <point x="256" y="404"/>
      <point x="256" y="409" type="curve" smooth="yes"/>
    </contour>
    <contour>
      <point x="289" y="409" type="move"/>
      <point x="289" y="385" type="line"/>
    </contour>
    <contour>
      <point x="344" y="365" type="move" smooth="yes"/>
      <point x="331" y="368"/>
      <point x="338" y="397"/>
      <point x="333" y="409" type="curve" smooth="yes"/>
    </contour>
    <contour>
      <point x="351" y="354" type="move" smooth="yes"/>
      <point x="344" y="357"/>
      <point x="337" y="358"/>
      <point x="332" y="366" type="curve" smooth="yes"/>
      <point x="330" y="369"/>
      <point x="331" y="373"/>
      <point x="331" y="377" type="curve" smooth="yes"/>
      <point x="331" y="386"/>
      <point x="329" y="398"/>
      <point x="333" y="407" type="curve" smooth="yes"/>
    </contour>
    <contour>
      <point x="272" y="399" type="move" smooth="yes"/>
      <point x="282" y="405"/>
      <point x="285" y="389"/>
      <point x="279" y="386" type="curve" smooth="yes"/>
      <point x="272" y="382"/>
      <point x="272" y="393"/>
      <point x="280" y="395" type="curve" smooth="yes"/>
    </contour>
    <contour>
      <point x="304" y="399" type="move" smooth="yes"/>
      <point x="301" y="401"/>
      <point x="295" y="401"/>
      <point x="297" y="396" type="curve" smooth="yes"/>
      <point x="298" y="392"/>
      <point x="303" y="393"/>
      <point x="303" y="389" type="curve" smooth="yes"/>
      <point x="305" y="384"/>
      <point x="298" y="385"/>
      <point x="296" y="388" type="curve" smooth="yes"/>
    </contour>
    <contour>
      <point x="312" y="399" type="move" smooth="yes"/>
      <point x="320" y="405"/>
      <point x="324" y="391"/>
      <point x="320" y="386" type="curve" smooth="yes"/>
      <point x="314" y="381"/>
      <point x="309" y="392"/>
      <point x="320" y="395" type="curve" smooth="yes"/>
    </contour>
    <contour>
      <point x="247" y="401" type="move"/>
      <point x="246" y="377" type="line"/>
    </contour>
    <contour>
      <point x="225" y="400" type="move"/>
      <point x="244" y="393" type="line" smooth="yes"/>
      <point x="237" y="393"/>
      <point x="232" y="395"/>
      <point x="226" y="391" type="curve" smooth="yes"/>
    </contour>
    <contour>
      <point x="225" y="390" type="move" smooth="yes"/>
      <point x="225" y="376"/>
      <point x="223" y="369"/>
      <point x="209" y="366" type="curve" smooth="yes"/>
    </contour>
    <contour>
      <point x="468" y="387" type="move"/>
      <point x="438" y="346" type="line"/>
      <point x="442" y="360" type="line"/>
    </contour>
    <contour>
      <point x="281" y="377" type="move"/>
      <point x="281" y="375" type="line"/>
    </contour>
    <contour>
      <point x="330" y="365" type="move" smooth="yes"/>
      <point x="326" y="365"/>
      <point x="325" y="367"/>
      <point x="323" y="371" type="curve" smooth="yes"/>
    </contour>
    <contour>
      <point x="256" y="352" type="move" smooth="yes"/>
      <point x="256" y="355"/>
      <point x="255" y="364"/>
      <point x="257" y="367" type="curve" smooth="yes"/>
      <point x="259" y="369"/>
      <point x="262" y="368"/>
      <point x="264" y="368" type="curve" smooth="yes"/>
      <point x="275" y="368"/>
      <point x="273" y="361"/>
      <point x="273" y="352" type="curve" smooth="yes"/>
    </contour>
    <contour>
      <point x="281" y="369" type="move"/>
      <point x="281" y="352" type="line"/>
    </contour>
    <contour>
      <point x="289" y="352" type="move" smooth="yes"/>
      <point x="289" y="355"/>
      <point x="288" y="364"/>
      <point x="290" y="367" type="curve" smooth="yes"/>
      <point x="298" y="376"/>
      <point x="298" y="354"/>
      <point x="298" y="352" type="curve" smooth="yes"/>
    </contour>
    <contour>
      <point x="315" y="354" type="move" smooth="yes"/>
      <point x="312" y="352"/>
      <point x="303" y="353"/>
      <point x="306" y="359" type="curve" smooth="yes"/>
      <point x="308" y="362"/>
      <point x="314" y="359"/>
      <point x="315" y="364" type="curve" smooth="yes"/>
      <point x="315" y="372"/>
      <point x="306" y="367"/>
      <point x="305" y="362" type="curve" smooth="yes"/>
    </contour>
    <contour>
      <point x="264" y="368" type="move"/>
      <point x="264" y="352" type="line"/>
    </contour>
    <contour>
      <point x="379" y="259" type="move" smooth="yes"/>
      <point x="373" y="265"/>
      <point x="362" y="278"/>
      <point x="355" y="265" type="curve" smooth="yes"/>
      <point x="353" y="260"/>
      <point x="354" y="256"/>
      <point x="351" y="252" type="curve"/>
      <point x="345" y="257"/>
      <point x="333" y="256"/>
      <point x="328" y="262" type="curve" smooth="yes"/>
      <point x="324" y="268"/>
      <point x="323" y="280"/>
      <point x="323" y="288" type="curve" smooth="yes"/>
      <point x="323" y="305"/>
      <point x="324" y="322"/>
      <point x="323" y="340" type="curve" smooth="yes"/>
      <point x="323" y="347"/>
      <point x="321" y="358"/>
      <point x="325" y="366" type="curve" smooth="yes"/>
    </contour>
    <contour>
      <point x="353" y="267" type="move" smooth="yes"/>
      <point x="350" y="276"/>
      <point x="342" y="282"/>
      <point x="340" y="292" type="curve" smooth="yes"/>
      <point x="334" y="311"/>
      <point x="338" y="337"/>
      <point x="338" y="358" type="curve" smooth="yes"/>
    </contour>
    <contour>
      <point x="248" y="344" type="move"/>
      <point x="245" y="322" type="line"/>
      <point x="250" y="300" type="line"/>
    </contour>
    <contour>
      <point x="322" y="343" type="move" smooth="yes"/>
      <point x="317" y="344"/>
      <point x="312" y="343"/>
      <point x="307" y="341" type="curve"/>
      <point x="311" y="334"/>
      <point x="309" y="326"/>
      <point x="309" y="319" type="curve" smooth="yes"/>
      <point x="309" y="303"/>
      <point x="310" y="288"/>
      <point x="309" y="273" type="curve" smooth="yes"/>
      <point x="309" y="266"/>
      <point x="305" y="257"/>
      <point x="297" y="263" type="curve" smooth="yes"/>
      <point x="292" y="266"/>
      <point x="294" y="275"/>
      <point x="294" y="281" type="curve" smooth="yes"/>
      <point x="294" y="324" type="line" smooth="yes"/>
      <point x="294" y="328"/>
      <point x="296" y="336"/>
      <point x="293" y="340" type="curve" smooth="yes"/>
      <point x="290" y="344"/>
      <point x="284" y="343"/>
      <point x="280" y="343" type="curve" smooth="yes"/>
    </contour>
    <contour>
      <point x="294" y="342" type="move"/>
      <point x="306" y="341" type="line"/>
    </contour>
    <contour>
      <point x="271" y="342" type="move" smooth="yes"/>
      <point x="271" y="332"/>
      <point x="268" y="322"/>
      <point x="268" y="314" type="curve" smooth="yes"/>
      <point x="268" y="306"/>
      <point x="273" y="299"/>
      <point x="271" y="291" type="curve" smooth="yes"/>
      <point x="270" y="286"/>
      <point x="266" y="284"/>
      <point x="264" y="280" type="curve" smooth="yes"/>
      <point x="262" y="269"/>
      <point x="265" y="264"/>
      <point x="256" y="256" type="curve" smooth="yes"/>
    </contour>
    <contour>
      <point x="270" y="331" type="move" smooth="yes"/>
      <point x="262" y="330"/>
      <point x="261" y="322"/>
      <point x="266" y="317" type="curve" smooth="yes"/>
    </contour>
    <contour>
      <point x="218" y="182" type="move"/>
      <point x="218" y="295" type="line" smooth="yes"/>
      <point x="218" y="308"/>
      <point x="224" y="333"/>
      <point x="203" y="327" type="curve" smooth="yes"/>
    </contour>
    <contour>
      <point x="232" y="182" type="move"/>
      <point x="232" y="283" type="line" smooth="yes"/>
      <point x="232" y="294"/>
      <point x="228" y="313"/>
      <point x="235" y="323" type="curve"/>
      <point x="230" y="327"/>
      <point x="225" y="329"/>
      <point x="218" y="327" type="curve" smooth="yes"/>
    </contour>
    <contour>
      <point x="235" y="323" type="move"/>
      <point x="243" y="323" type="line"/>
    </contour>
    <contour>
      <point x="272" y="299" type="move"/>
      <point x="278" y="299" type="line"/>
    </contour>
    <contour>
      <point x="143" y="282" type="move"/>
      <point x="202" y="181" type="line"/>
      <point x="160" y="181" type="line" smooth="yes"/>
      <point x="156" y="181"/>
      <point x="148" y="179"/>
      <point x="145" y="182" type="curve" smooth="yes"/>
      <point x="141" y="185"/>
      <point x="143" y="201"/>
      <point x="143" y="207" type="curve" smooth="yes"/>
    </contour>
    <contour>
      <point x="351" y="251" type="move" smooth="yes"/>
      <point x="348" y="242"/>
      <point x="345" y="238"/>
      <point x="335" y="238" type="curve" smooth="yes"/>
      <point x="333" y="238"/>
      <point x="329" y="237"/>
      <point x="327" y="239" type="curve" smooth="yes"/>
      <point x="324" y="244"/>
      <point x="328" y="254"/>
      <point x="326" y="260" type="curve"/>
      <point x="320" y="254"/>
      <point x="312" y="252"/>
      <point x="306" y="260" type="curve" smooth="yes"/>
    </contour>
    <contour>
      <point x="306" y="259" type="move" smooth="yes"/>
      <point x="302" y="253"/>
      <point x="305" y="247"/>
      <point x="302" y="242" type="curve" smooth="yes"/>
      <point x="296" y="232"/>
      <point x="283" y="244"/>
      <point x="278" y="249" type="curve" smooth="yes"/>
    </contour>
    <contour>
      <point x="302" y="238" type="move"/>
      <point x="325" y="238" type="line"/>
    </contour>
  </outline>
</glyph>
<glyph name="d" format="1">
  <advance width="1516"/>
  <unicode hex="0064"/>
  <outline>
    <contour>
      <point x="1388" y="3171" type="move"/>
      <point x="1388" y="2487" type="line"/>
      <point x="1388" y="2259" type="line" smooth="yes"/>
      <point x="1388" y="2221"/>
      <point x="1389" y="2183"/>
      <point x="1388" y="2146" type="curve" smooth="yes"/>
      <point x="1387" y="2137"/>
      <point x="1376" y="2133"/>
      <point x="1376" y="2126" type="curve" smooth="yes"/>
      <point x="1375" y="2116"/>
      <point x="1384" y="2104"/>
      <point x="1387" y="2095" type="curve" smooth="yes"/>
      <point x="1390" y="2084"/>
      <point x="1388" y="2070"/>
      <point x="1388" y="2060" type="curve" smooth="yes"/>
      <point x="1388" y="1293" type="line"/>
      <point x="1388" y="711" type="line"/>
      <point x="1388" y="533" type="line"/>
      <point x="1388" y="479" type="line" smooth="yes"/>
      <point x="1388" y="470"/>
      <point x="1389" y="459"/>
      <point x="1387" y="451" type="curve" smooth="yes"/>
      <point x="1384" y="440"/>
      <point x="1379" y="430"/>
      <point x="1375" y="421" type="curve" smooth="yes"/>
      <point x="1374" y="417"/>
      <point x="1373" y="411"/>
      <point x="1369" y="408" type="curve" smooth="yes"/>
      <point x="1365" y="404"/>
      <point x="1357" y="404"/>
      <point x="1352" y="402" type="curve" smooth="yes"/>
      <point x="1338" y="399"/>
      <point x="1325" y="395"/>
      <point x="1311" y="392" type="curve" smooth="yes"/>
      <point x="1276" y="383"/>
      <point x="1241" y="375"/>
      <point x="1206" y="368" type="curve" smooth="yes"/>
      <point x="1189" y="364"/>
      <point x="1171" y="363"/>
      <point x="1155" y="358" type="curve" smooth="yes"/>
      <point x="1137" y="352"/>
      <point x="1121" y="340"/>
      <point x="1104" y="333" type="curve" smooth="yes"/>
      <point x="1074" y="319"/>
      <point x="1042" y="309"/>
      <point x="1010" y="301" type="curve" smooth="yes"/>
      <point x="970" y="291"/>
      <point x="929" y="286"/>
      <point x="889" y="282" type="curve" smooth="yes"/>
      <point x="869" y="280"/>
      <point x="848" y="277"/>
      <point x="828" y="278" type="curve" smooth="yes"/>
      <point x="800" y="278"/>
      <point x="771" y="282"/>
      <point x="744" y="285" type="curve" smooth="yes"/>
      <point x="631" y="299"/>
      <point x="529" y="336"/>
      <point x="446" y="417" type="curve" smooth="yes"/>
      <point x="336" y="523"/>
      <point x="285" y="678"/>
      <point x="257" y="825" type="curve" smooth="yes"/>
      <point x="225" y="995"/>
      <point x="221" y="1173"/>
      <point x="225" y="1347" type="curve" smooth="yes"/>
      <point x="228" y="1492"/>
      <point x="234" y="1637"/>
      <point x="261" y="1781" type="curve" smooth="yes"/>
      <point x="291" y="1943"/>
      <point x="352" y="2121"/>
      <point x="498" y="2214" type="curve" smooth="yes"/>
      <point x="561" y="2255"/>
      <point x="633" y="2274"/>
      <point x="707" y="2282" type="curve" smooth="yes"/>
      <point x="725" y="2283"/>
      <point x="744" y="2287"/>
      <point x="762" y="2286" type="curve" smooth="yes"/>
      <point x="798" y="2285"/>
      <point x="834" y="2280"/>
      <point x="870" y="2276" type="curve" smooth="yes"/>
      <point x="923" y="2269"/>
      <point x="974" y="2260"/>
      <point x="1025" y="2243" type="curve" smooth="yes"/>
      <point x="1059" y="2232"/>
      <point x="1092" y="2215"/>
      <point x="1124" y="2199" type="curve" smooth="yes"/>
      <point x="1136" y="2193"/>
      <point x="1148" y="2183"/>
      <point x="1161" y="2178" type="curve" smooth="yes"/>
      <point x="1177" y="2173"/>
      <point x="1195" y="2171"/>
      <point x="1212" y="2167" type="curve" smooth="yes"/>
      <point x="1251" y="2159"/>
      <point x="1290" y="2150"/>
      <point x="1328" y="2139" type="curve" smooth="yes"/>
      <point x="1343" y="2135"/>
      <point x="1358" y="2132"/>
      <point x="1373" y="2127" type="curve" smooth="yes"/>
    </contour>
    <contour>
      <point x="1370" y="408" type="move"/>
      <point x="1387" y="389" type="line"/>
      <point x="1388" y="352" type="line"/>
      <point x="1388" y="267" type="line"/>
    </contour>
  </outline>
</glyph>
<glyph name="e" format="1">
  <advance width="1579"/>
  <unicode hex="0065"/>
  <outline>
    <contour>
      <point x="241" y="1298" type="move" smooth="yes"/>
      <point x="241" y="1358"/>
      <point x="242" y="1418"/>
      <point x="244" y="1479" type="curve" smooth="yes"/>
      <point x="254" y="1686"/>
      <point x="277" y="1904"/>
      <point x="407" y="2076" type="curve" smooth="yes"/>
      <point x="430" y="2105"/>
      <point x="455" y="2133"/>
      <point x="483" y="2158" type="curve" smooth="yes"/>
      <point x="529" y="2201"/>
      <point x="583" y="2238"/>
      <point x="642" y="2260" type="curve" smooth="yes"/>
      <point x="730" y="2294"/>
      <point x="833" y="2301"/>
      <point x="927" y="2292" type="curve" smooth="yes"/>
      <point x="1002" y="2284"/>
      <point x="1074" y="2271"/>
      <point x="1144" y="2237" type="curve" smooth="yes"/>
      <point x="1207" y="2207"/>
      <point x="1262" y="2159"/>
      <point x="1308" y="2107" type="curve" smooth="yes"/>
      <point x="1414" y="1985"/>
      <point x="1451" y="1817"/>
      <point x="1467" y="1661" type="curve" smooth="yes"/>
      <point x="1476" y="1576"/>
      <point x="1476" y="1491"/>
      <point x="1482" y="1406" type="curve" smooth="yes"/>
      <point x="1483" y="1383"/>
      <point x="1483" y="1360"/>
      <point x="1483" y="1338" type="curve" smooth="yes"/>
      <point x="1483" y="1330"/>
      <point x="1485" y="1317"/>
      <point x="1480" y="1311" type="curve" smooth="yes"/>
      <point x="1466" y="1291"/>
      <point x="1442" y="1297"/>
      <point x="1421" y="1297" type="curve" smooth="yes"/>
      <point x="1271" y="1297" type="line"/>
      <point x="643" y="1297" type="line"/>
      <point x="336" y="1297" type="line"/>
      <point x="264" y="1297" type="line" smooth="yes"/>
      <point x="258" y="1297"/>
      <point x="242" y="1299"/>
      <point x="241" y="1292" type="curve" smooth="yes"/>
      <point x="238" y="1275"/>
      <point x="241" y="1255"/>
      <point x="242" y="1237" type="curve" smooth="yes"/>
      <point x="242" y="1186"/>
      <point x="244" y="1136"/>
      <point x="247" y="1087" type="curve" smooth="yes"/>
      <point x="259" y="924"/>
      <point x="293" y="762"/>
      <point x="371" y="618" type="curve" smooth="yes"/>
      <point x="418" y="530"/>
      <point x="480" y="451"/>
      <point x="561" y="392" type="curve" smooth="yes"/>
      <point x="652" y="327"/>
      <point x="760" y="294"/>
      <point x="871" y="283" type="curve" smooth="yes"/>
      <point x="893" y="281"/>
      <point x="916" y="277"/>
      <point x="939" y="278" type="curve" smooth="yes"/>
      <point x="968" y="278"/>
      <point x="998" y="283"/>
      <point x="1028" y="286" type="curve" smooth="yes"/>
      <point x="1077" y="292"/>
      <point x="1126" y="301"/>
      <point x="1174" y="317" type="curve" smooth="yes"/>
      <point x="1248" y="343"/>
      <point x="1314" y="388"/>
      <point x="1365" y="448" type="curve" smooth="yes"/>
      <point x="1381" y="466"/>
      <point x="1398" y="486"/>
      <point x="1409" y="509" type="curve" smooth="yes"/>
    </contour>
  </outline>
</glyph>
<glyph name="g" format="1">
  <advance width="1479"/>
  <unicode hex="0067"/>
  <outline>
    <contour>
      <point x="1222" y="2289" type="move"/>
      <point x="1222" y="1418" type="line"/>
      <point x="1222" y="804" type="line"/>
      <point x="1222" y="609" type="line" smooth="yes"/>
      <point x="1222" y="584"/>
      <point x="1223" y="559"/>
      <point x="1221" y="535" type="curve" smooth="yes"/>
      <point x="1221" y="526"/>
      <point x="1222" y="518"/>
      <point x="1221" y="510" type="curve" smooth="yes"/>
      <point x="1217" y="489"/>
      <point x="1186" y="487"/>
      <point x="1169" y="483" type="curve" smooth="yes"/>
      <point x="1115" y="470"/>
      <point x="1062" y="458"/>
      <point x="1007" y="447" type="curve" smooth="yes"/>
      <point x="984" y="442"/>
      <point x="965" y="430"/>
      <point x="944" y="421" type="curve" smooth="yes"/>
      <point x="919" y="409"/>
      <point x="893" y="398"/>
      <point x="866" y="390" type="curve" smooth="yes"/>
      <point x="826" y="378"/>
      <point x="785" y="372"/>
      <point x="744" y="366" type="curve" smooth="yes"/>
      <point x="723" y="363"/>
      <point x="701" y="358"/>
      <point x="679" y="359" type="curve" smooth="yes"/>
      <point x="651" y="359"/>
      <point x="623" y="365"/>
      <point x="595" y="369" type="curve" smooth="yes"/>
      <point x="534" y="379"/>
      <point x="478" y="398"/>
      <point x="429" y="436" type="curve" smooth="yes"/>
      <point x="317" y="524"/>
      <point x="267" y="675"/>
      <point x="242" y="810" type="curve" smooth="yes"/>
      <point x="207" y="992"/>
      <point x="206" y="1179"/>
      <point x="208" y="1365" type="curve" smooth="yes"/>
      <point x="210" y="1527"/>
      <point x="211" y="1693"/>
      <point x="246" y="1854" type="curve" smooth="yes"/>
      <point x="279" y="2008"/>
      <point x="341" y="2188"/>
      <point x="498" y="2256" type="curve" smooth="yes"/>
      <point x="532" y="2271"/>
      <point x="568" y="2277"/>
      <point x="604" y="2282" type="curve" smooth="yes"/>
      <point x="620" y="2284"/>
      <point x="637" y="2287"/>
      <point x="653" y="2286" type="curve" smooth="yes"/>
      <point x="685" y="2285"/>
      <point x="717" y="2280"/>
      <point x="748" y="2276" type="curve" smooth="yes"/>
      <point x="794" y="2269"/>
      <point x="839" y="2261"/>
      <point x="883" y="2246" type="curve" smooth="yes"/>
      <point x="908" y="2237"/>
      <point x="933" y="2227"/>
      <point x="956" y="2215" type="curve" smooth="yes"/>
      <point x="968" y="2210"/>
      <point x="980" y="2201"/>
      <point x="992" y="2197" type="curve" smooth="yes"/>
      <point x="1003" y="2194"/>
      <point x="1016" y="2193"/>
      <point x="1027" y="2191" type="curve" smooth="yes"/>
      <point x="1052" y="2187"/>
      <point x="1077" y="2182"/>
      <point x="1102" y="2176" type="curve" smooth="yes"/>
      <point x="1142" y="2168"/>
      <point x="1181" y="2154"/>
      <point x="1221" y="2149" type="curve" smooth="yes"/>
    </contour>
    <contour>
      <point x="1214" y="496" type="move" smooth="yes"/>
      <point x="1223" y="486"/>
      <point x="1220" y="472"/>
      <point x="1219" y="461" type="curve" smooth="yes"/>
      <point x="1218" y="444"/>
      <point x="1218" y="428"/>
      <point x="1217" y="412" type="curve" smooth="yes"/>
      <point x="1212" y="334"/>
      <point x="1210" y="255"/>
      <point x="1197" y="178" type="curve" smooth="yes"/>
      <point x="1187" y="117"/>
      <point x="1171" y="57"/>
      <point x="1143" y="2" type="curve" smooth="yes"/>
      <point x="1125" y="-33"/>
      <point x="1104" y="-67"/>
      <point x="1078" y="-97" type="curve" smooth="yes"/>
      <point x="987" y="-201"/>
      <point x="859" y="-247"/>
      <point x="725" y="-262" type="curve" smooth="yes"/>
      <point x="567" y="-279"/>
      <point x="405" y="-261"/>
      <point x="249" y="-231" type="curve" smooth="yes"/>
    </contour>
  </outline>
</glyph>
<glyph name="h" format="1">
  <advance width="1277"/>
  <unicode hex="0068"/>
  <outline>
    <contour>
      <point x="111" y="3164" type="move"/>
      <point x="111" y="274" type="line"/>
    </contour>
    <contour>
      <point x="111" y="1799" type="move"/>
      <point x="111" y="1989" type="line"/>
      <point x="117" y="2014" type="line"/>
      <point x="111" y="2026" type="line"/>
      <point x="111" y="2050" type="line"/>
      <point x="111" y="2300" type="line"/>
    </contour>
    <contour>
      <point x="120" y="2016" type="move" smooth="yes"/>
      <point x="136" y="2024"/>
      <point x="157" y="2029"/>
      <point x="175" y="2035" type="curve" smooth="yes"/>
      <point x="209" y="2046"/>
      <point x="244" y="2058"/>
      <point x="280" y="2069" type="curve" smooth="yes"/>
      <point x="295" y="2074"/>
      <point x="315" y="2077"/>
      <point x="330" y="2085" type="curve" smooth="yes"/>
      <point x="345" y="2093"/>
      <point x="357" y="2111"/>
      <point x="371" y="2122" type="curve" smooth="yes"/>
      <point x="406" y="2151"/>
      <point x="443" y="2178"/>
      <point x="483" y="2200" type="curve" smooth="yes"/>
      <point x="550" y="2238"/>
      <point x="622" y="2259"/>
      <point x="699" y="2272" type="curve" smooth="yes"/>
      <point x="740" y="2278"/>
      <point x="783" y="2285"/>
      <point x="825" y="2286" type="curve" smooth="yes"/>
      <point x="848" y="2286"/>
      <point x="872" y="2282"/>
      <point x="896" y="2280" type="curve" smooth="yes"/>
      <point x="958" y="2273"/>
      <point x="1028" y="2256"/>
      <point x="1079" y="2216" type="curve" smooth="yes"/>
      <point x="1142" y="2167"/>
      <point x="1168" y="2091"/>
      <point x="1180" y="2015" type="curve" smooth="yes"/>
      <point x="1197" y="1905"/>
      <point x="1197" y="1795"/>
      <point x="1197" y="1685" type="curve" smooth="yes"/>
      <point x="1197" y="281" type="line"/>
    </contour>
  </outline>
</glyph>
<glyph name="j" format="1">
  <advance width="321"/>
  <unicode hex="006A"/>
  <outline>
    <contour>
      <point x="289" y="3164" type="move"/>
      <point x="289" y="2930" type="line"/>
    </contour>
    <contour>
      <point x="289" y="2289" type="move"/>
      <point x="289" y="315" type="line" smooth="yes"/>
      <point x="289" y="198"/>
      <point x="289" y="82"/>
      <point x="277" y="-33" type="curve" smooth="yes"/>
      <point x="269" y="-101"/>
      <point x="254" y="-174"/>
      <point x="199" y="-221" type="curve" smooth="yes"/>
      <point x="159" y="-254"/>
      <point x="109" y="-265"/>
      <point x="60" y="-272" type="curve" smooth="yes"/>
      <point x="39" y="-275"/>
      <point x="17" y="-278"/>
      <point x="-4" y="-279" type="curve" smooth="yes"/>
    </contour>
  </outline>
</glyph>
<glyph name="k" format="1">
  <advance width="1216"/>
  <unicode hex="006B"/>
  <outline>
    <contour>
      <point x="81" y="273" type="move"/>
      <point x="81" y="911" type="line" smooth="yes"/>
      <point x="81" y="1017"/>
      <point x="79" y="1123"/>
      <point x="81" y="1230" type="curve" smooth="yes"/>
      <point x="82" y="1250"/>
      <point x="93" y="1273"/>
      <point x="99" y="1293" type="curve" smooth="yes"/>
      <point x="101" y="1299"/>
      <point x="105" y="1308"/>
      <point x="105" y="1316" type="curve" smooth="yes"/>
      <point x="105" y="1329"/>
      <point x="81" y="1334"/>
      <point x="81" y="1350" type="curve" smooth="yes"/>
      <point x="77" y="1954"/>
      <point x="81" y="2559"/>
      <point x="81" y="3164" type="curve" smooth="yes"/>
    </contour>
    <contour>
      <point x="1070" y="2331" type="move" smooth="yes"/>
      <point x="1040" y="2298"/>
      <point x="1014" y="2261"/>
      <point x="986" y="2227" type="curve" smooth="yes"/>
      <point x="934" y="2162"/>
      <point x="881" y="2098"/>
      <point x="829" y="2034" type="curve" smooth="yes"/>
      <point x="765" y="1956"/>
      <point x="703" y="1878"/>
      <point x="640" y="1801" type="curve" smooth="yes"/>
      <point x="607" y="1761"/>
      <point x="572" y="1722"/>
      <point x="542" y="1681" type="curve" smooth="yes"/>
      <point x="534" y="1669"/>
      <point x="532" y="1650"/>
      <point x="528" y="1637" type="curve" smooth="yes"/>
      <point x="501" y="1542" type="line"/>
      <point x="492" y="1510" type="line" smooth="yes"/>
      <point x="491" y="1505"/>
      <point x="490" y="1499"/>
      <point x="487" y="1496" type="curve" smooth="yes"/>
      <point x="478" y="1487"/>
      <point x="457" y="1483"/>
      <point x="445" y="1479" type="curve" smooth="yes"/>
      <point x="414" y="1467"/>
      <point x="382" y="1456"/>
      <point x="351" y="1442" type="curve" smooth="yes"/>
      <point x="332" y="1433"/>
      <point x="326" y="1403"/>
      <point x="307" y="1393" type="curve" smooth="yes"/>
      <point x="293" y="1386"/>
      <point x="276" y="1381"/>
      <point x="260" y="1375" type="curve" smooth="yes"/>
      <point x="228" y="1363"/>
      <point x="195" y="1351"/>
      <point x="162" y="1339" type="curve" smooth="yes"/>
      <point x="144" y="1332"/>
      <point x="124" y="1326"/>
      <point x="107" y="1318" type="curve" smooth="yes"/>
    </contour>
    <contour>
      <point x="488" y="1496" type="move"/>
      <point x="515" y="1469" type="line"/>
      <point x="540" y="1454" type="line"/>
      <point x="554" y="1428" type="line"/>
      <point x="590" y="1350" type="line"/>
      <point x="714" y="1084" type="line"/>
      <point x="969" y="538" type="line"/>
      <point x="1059" y="345" type="line"/>
      <point x="1103" y="250" type="line"/>
    </contour>
  </outline>
</glyph>
<glyph name="l" format="1">
  <advance width="333"/>
  <unicode hex="006C"/>
  <outline>
    <contour>
      <point x="64" y="3156" type="move"/>
      <point x="64" y="975" type="line"/>
      <point x="64" y="731" type="line" smooth="yes"/>
      <point x="64" y="654"/>
      <point x="63" y="578"/>
      <point x="71" y="503" type="curve" smooth="yes"/>
      <point x="76" y="463"/>
      <point x="82" y="424"/>
      <point x="92" y="386" type="curve" smooth="yes"/>
      <point x="97" y="364"/>
      <point x="104" y="341"/>
      <point x="120" y="325" type="curve" smooth="yes"/>
      <point x="156" y="287"/>
      <point x="220" y="289"/>
      <point x="269" y="281" type="curve" smooth="yes"/>
    </contour>
  </outline>
</glyph>
<glyph name="m" format="1">
  <advance width="2250"/>
  <unicode hex="006D"/>
  <outline>
    <contour>
      <point x="1097" y="273" type="move"/>
      <point x="1097" y="1599" type="line"/>
      <point x="1097" y="1954" type="line"/>
      <point x="1097" y="2049" type="line" smooth="yes"/>
      <point x="1097" y="2058"/>
      <point x="1092" y="2076"/>
      <point x="1098" y="2085" type="curve" smooth="yes"/>
      <point x="1119" y="2118"/>
      <point x="1172" y="2126"/>
      <point x="1208" y="2135" type="curve" smooth="yes"/>
      <point x="1219" y="2138"/>
      <point x="1234" y="2140"/>
      <point x="1243" y="2146" type="curve" smooth="yes"/>
      <point x="1258" y="2156"/>
      <point x="1271" y="2169"/>
      <point x="1286" y="2179" type="curve" smooth="yes"/>
      <point x="1317" y="2201"/>
      <point x="1350" y="2220"/>
      <point x="1385" y="2235" type="curve" smooth="yes"/>
      <point x="1427" y="2254"/>
      <point x="1471" y="2266"/>
      <point x="1516" y="2275" type="curve" smooth="yes"/>
      <point x="1551" y="2282"/>
      <point x="1586" y="2285"/>
      <point x="1621" y="2289" type="curve" smooth="yes"/>
      <point x="1655" y="2292"/>
      <point x="1690" y="2296"/>
      <point x="1724" y="2295" type="curve" smooth="yes"/>
      <point x="1861" y="2292"/>
      <point x="2016" y="2243"/>
      <point x="2075" y="2109" type="curve" smooth="yes"/>
      <point x="2103" y="2044"/>
      <point x="2107" y="1971"/>
      <point x="2114" y="1902" type="curve" smooth="yes"/>
      <point x="2127" y="1767"/>
      <point x="2120" y="1629"/>
      <point x="2120" y="1494" type="curve" smooth="yes"/>
      <point x="2120" y="1089"/>
      <point x="2121" y="685"/>
      <point x="2121" y="281" type="curve" smooth="yes"/>
    </contour>
    <contour>
      <point x="97" y="273" type="move"/>
      <point x="97" y="1637" type="line"/>
      <point x="97" y="1999" type="line"/>
      <point x="97" y="2095" type="line" smooth="yes"/>
      <point x="97" y="2103"/>
      <point x="93" y="2124"/>
      <point x="98" y="2131" type="curve" smooth="yes"/>
      <point x="100" y="2135"/>
      <point x="108" y="2136"/>
      <point x="112" y="2138" type="curve" smooth="yes"/>
      <point x="125" y="2143"/>
      <point x="138" y="2148"/>
      <point x="151" y="2152" type="curve" smooth="yes"/>
      <point x="188" y="2165"/>
      <point x="226" y="2176"/>
      <point x="264" y="2185" type="curve" smooth="yes"/>
      <point x="280" y="2189"/>
      <point x="298" y="2190"/>
      <point x="313" y="2196" type="curve" smooth="yes"/>
      <point x="326" y="2201"/>
      <point x="338" y="2213"/>
      <point x="351" y="2220" type="curve" smooth="yes"/>
      <point x="374" y="2234"/>
      <point x="399" y="2245"/>
      <point x="425" y="2254" type="curve" smooth="yes"/>
      <point x="473" y="2271"/>
      <point x="524" y="2280"/>
      <point x="574" y="2286" type="curve" smooth="yes"/>
      <point x="612" y="2290"/>
      <point x="650" y="2295"/>
      <point x="688" y="2294" type="curve" smooth="yes"/>
      <point x="772" y="2292"/>
      <point x="857" y="2272"/>
      <point x="931" y="2231" type="curve" smooth="yes"/>
      <point x="965" y="2212"/>
      <point x="995" y="2189"/>
      <point x="1020" y="2160" type="curve" smooth="yes"/>
      <point x="1031" y="2146"/>
      <point x="1038" y="2129"/>
      <point x="1050" y="2116" type="curve" smooth="yes"/>
      <point x="1055" y="2109"/>
      <point x="1064" y="2105"/>
      <point x="1071" y="2101" type="curve" smooth="yes"/>
      <point x="1079" y="2095"/>
      <point x="1087" y="2087"/>
      <point x="1096" y="2084" type="curve" smooth="yes"/>
    </contour>
    <contour>
      <point x="97" y="2289" type="move"/>
      <point x="97" y="2134" type="line"/>
    </contour>
  </outline>
</glyph>
<glyph name="q" format="1">
  <advance width="1477"/>
  <unicode hex="0071"/>
  <outline>
    <contour>
      <point x="1396" y="2289" type="move" smooth="yes"/>
      <point x="1396" y="2249"/>
      <point x="1400" y="2208"/>
      <point x="1396" y="2169" type="curve" smooth="yes"/>
      <point x="1396" y="2165"/>
      <point x="1393" y="2162"/>
      <point x="1393" y="2159" type="curve" smooth="yes"/>
      <point x="1392" y="2153"/>
      <point x="1396" y="2147"/>
      <point x="1396" y="2142" type="curve" smooth="yes"/>
      <point x="1396" y="2058" type="line"/>
      <point x="1396" y="1773" type="line"/>
      <point x="1396" y="899" type="line"/>
      <point x="1396" y="537" type="line"/>
      <point x="1396" y="444" type="line" smooth="yes"/>
      <point x="1396" y="432"/>
      <point x="1400" y="415"/>
      <point x="1392" y="406" type="curve" smooth="yes"/>
      <point x="1389" y="401"/>
      <point x="1381" y="400"/>
      <point x="1375" y="399" type="curve" smooth="yes"/>
      <point x="1361" y="396"/>
      <point x="1346" y="393"/>
      <point x="1331" y="390" type="curve" smooth="yes"/>
      <point x="1293" y="382"/>
      <point x="1255" y="374"/>
      <point x="1217" y="368" type="curve" smooth="yes"/>
      <point x="1197" y="364"/>
      <point x="1175" y="363"/>
      <point x="1155" y="358" type="curve" smooth="yes"/>
      <point x="1141" y="355"/>
      <point x="1127" y="346"/>
      <point x="1113" y="341" type="curve" smooth="yes"/>
      <point x="1081" y="330"/>
      <point x="1049" y="318"/>
      <point x="1015" y="310" type="curve" smooth="yes"/>
      <point x="819" y="263"/>
      <point x="578" y="251"/>
      <point x="428" y="412" type="curve" smooth="yes"/>
      <point x="320" y="528"/>
      <point x="278" y="697"/>
      <point x="259" y="851" type="curve" smooth="yes"/>
      <point x="239" y="1014"/>
      <point x="237" y="1181"/>
      <point x="241" y="1347" type="curve" smooth="yes"/>
      <point x="245" y="1513"/>
      <point x="253" y="1678"/>
      <point x="287" y="1842" type="curve" smooth="yes"/>
      <point x="321" y="2001"/>
      <point x="401" y="2163"/>
      <point x="550" y="2243" type="curve" smooth="yes"/>
      <point x="599" y="2269"/>
      <point x="654" y="2276"/>
      <point x="708" y="2282" type="curve" smooth="yes"/>
      <point x="820" y="2294"/>
      <point x="934" y="2278"/>
      <point x="1042" y="2246" type="curve" smooth="yes"/>
      <point x="1069" y="2238"/>
      <point x="1095" y="2228"/>
      <point x="1121" y="2218" type="curve" smooth="yes"/>
      <point x="1132" y="2214"/>
      <point x="1143" y="2207"/>
      <point x="1154" y="2204" type="curve" smooth="yes"/>
      <point x="1167" y="2201"/>
      <point x="1181" y="2200"/>
      <point x="1194" y="2198" type="curve" smooth="yes"/>
      <point x="1226" y="2193"/>
      <point x="1258" y="2187"/>
      <point x="1289" y="2181" type="curve" smooth="yes"/>
      <point x="1323" y="2174"/>
      <point x="1358" y="2162"/>
      <point x="1391" y="2160" type="curve" smooth="yes"/>
    </contour>
    <contour>
      <point x="1391" y="403" type="move" smooth="yes"/>
      <point x="1401" y="392"/>
      <point x="1396" y="368"/>
      <point x="1396" y="355" type="curve" smooth="yes"/>
      <point x="1396" y="225" type="line"/>
      <point x="1396" y="-289" type="line"/>
    </contour>
  </outline>
</glyph>
<glyph name="r" format="1">
  <advance width="873"/>
  <unicode hex="0072"/>
  <outline>
    <contour>
      <point x="95" y="274" type="move"/>
      <point x="95" y="1591" type="line"/>
      <point x="95" y="1937" type="line"/>
      <point x="95" y="2027" type="line" smooth="yes"/>
      <point x="95" y="2038"/>
      <point x="92" y="2055"/>
      <point x="99" y="2064" type="curve" smooth="yes"/>
      <point x="102" y="2069"/>
      <point x="109" y="2070"/>
      <point x="114" y="2072" type="curve" smooth="yes"/>
      <point x="126" y="2077"/>
      <point x="139" y="2081"/>
      <point x="151" y="2085" type="curve" smooth="yes"/>
      <point x="185" y="2098"/>
      <point x="220" y="2109"/>
      <point x="255" y="2119" type="curve" smooth="yes"/>
      <point x="273" y="2124"/>
      <point x="293" y="2127"/>
      <point x="310" y="2134" type="curve" smooth="yes"/>
      <point x="327" y="2141"/>
      <point x="342" y="2159"/>
      <point x="357" y="2169" type="curve" smooth="yes"/>
      <point x="384" y="2188"/>
      <point x="413" y="2203"/>
      <point x="443" y="2217" type="curve" smooth="yes"/>
      <point x="528" y="2256"/>
      <point x="615" y="2277"/>
      <point x="708" y="2287" type="curve" smooth="yes"/>
      <point x="747" y="2291"/>
      <point x="786" y="2296"/>
      <point x="824" y="2296" type="curve" smooth="yes"/>
    </contour>
    <contour>
      <point x="95" y="2289" type="move"/>
      <point x="95" y="2127" type="line"/>
      <point x="95" y="2087" type="line" smooth="yes"/>
      <point x="95" y="2079"/>
      <point x="94" y="2072"/>
      <point x="99" y="2067" type="curve" smooth="yes"/>
    </contour>
  </outline>
</glyph>
<glyph name="s" format="1">
  <advance width="1483"/>
  <unicode hex="0073"/>
  <outline>
    <contour>
      <point x="233" y="710" type="move" smooth="yes"/>
      <point x="247" y="666"/>
      <point x="256" y="622"/>
      <point x="274" y="581" type="curve" smooth="yes"/>
      <point x="316" y="485"/>
      <point x="380" y="405"/>
      <point x="470" y="352" type="curve" smooth="yes"/>
      <point x="522" y="321"/>
      <point x="581" y="302"/>
      <point x="641" y="292" type="curve" smooth="yes"/>
      <point x="687" y="285"/>
      <point x="736" y="277"/>
      <point x="783" y="277" type="curve" smooth="yes"/>
      <point x="829" y="277"/>
      <point x="876" y="284"/>
      <point x="921" y="291" type="curve" smooth="yes"/>
      <point x="1025" y="307"/>
      <point x="1128" y="347"/>
      <point x="1195" y="434" type="curve" smooth="yes"/>
      <point x="1240" y="494"/>
      <point x="1257" y="566"/>
      <point x="1266" y="640" type="curve" smooth="yes"/>
      <point x="1269" y="666"/>
      <point x="1275" y="694"/>
      <point x="1274" y="722" type="curve" smooth="yes"/>
      <point x="1273" y="758"/>
      <point x="1268" y="795"/>
      <point x="1263" y="832" type="curve" smooth="yes"/>
      <point x="1255" y="889"/>
      <point x="1241" y="947"/>
      <point x="1214" y="1000" type="curve" smooth="yes"/>
      <point x="1172" y="1084"/>
      <point x="1092" y="1156"/>
      <point x="1006" y="1195" type="curve" smooth="yes"/>
      <point x="971" y="1210"/>
      <point x="935" y="1220"/>
      <point x="899" y="1231" type="curve" smooth="yes"/>
      <point x="869" y="1241"/>
      <point x="839" y="1251"/>
      <point x="809" y="1259" type="curve" smooth="yes"/>
      <point x="773" y="1268"/>
      <point x="736" y="1276"/>
      <point x="699" y="1285" type="curve" smooth="yes"/>
      <point x="542" y="1327"/>
      <point x="367" y="1390"/>
      <point x="278" y="1536" type="curve" smooth="yes"/>
      <point x="256" y="1573"/>
      <point x="240" y="1613"/>
      <point x="229" y="1656" type="curve" smooth="yes"/>
      <point x="220" y="1692"/>
      <point x="216" y="1729"/>
      <point x="212" y="1766" type="curve" smooth="yes"/>
      <point x="210" y="1786"/>
      <point x="206" y="1806"/>
      <point x="207" y="1827" type="curve" smooth="yes"/>
      <point x="207" y="1855"/>
      <point x="212" y="1884"/>
      <point x="216" y="1912" type="curve" smooth="yes"/>
      <point x="220" y="1942"/>
      <point x="224" y="1973"/>
      <point x="233" y="2003" type="curve" smooth="yes"/>
      <point x="247" y="2052"/>
      <point x="274" y="2098"/>
      <point x="307" y="2137" type="curve" smooth="yes"/>
      <point x="426" y="2272"/>
      <point x="624" y="2298"/>
      <point x="794" y="2281" type="curve" smooth="yes"/>
      <point x="858" y="2274"/>
      <point x="920" y="2262"/>
      <point x="978" y="2233" type="curve" smooth="yes"/>
      <point x="1084" y="2181"/>
      <point x="1167" y="2090"/>
      <point x="1215" y="1983" type="curve" smooth="yes"/>
      <point x="1231" y="1946"/>
      <point x="1237" y="1907"/>
      <point x="1249" y="1869" type="curve" smooth="yes"/>
    </contour>
  </outline>
</glyph>
<glyph name="x" format="1">
  <advance width="1182"/>
  <unicode hex="0078"/>
  <outline>
    <contour>
      <point x="68" y="2320" type="move" smooth="yes"/>
      <point x="106" y="2254"/>
      <point x="136" y="2182"/>
      <point x="171" y="2115" type="curve" smooth="yes"/>
      <point x="263" y="1935"/>
      <point x="351" y="1752"/>
      <point x="445" y="1574" type="curve" smooth="yes"/>
      <point x="454" y="1557"/>
      <point x="462" y="1541"/>
      <point x="470" y="1525" type="curve" smooth="yes"/>
      <point x="473" y="1518"/>
      <point x="477" y="1509"/>
      <point x="483" y="1505" type="curve" smooth="yes"/>
      <point x="507" y="1489"/>
      <point x="536" y="1478"/>
      <point x="562" y="1465" type="curve" smooth="yes"/>
      <point x="569" y="1461"/>
      <point x="587" y="1456"/>
      <point x="590" y="1448" type="curve" smooth="yes"/>
      <point x="593" y="1440"/>
      <point x="591" y="1428"/>
      <point x="591" y="1420" type="curve" smooth="yes"/>
      <point x="591" y="1358" type="line"/>
      <point x="591" y="1199" type="line"/>
      <point x="591" y="1150" type="line" smooth="yes"/>
      <point x="591" y="1142"/>
      <point x="592" y="1133"/>
      <point x="590" y="1126" type="curve" smooth="yes"/>
      <point x="588" y="1117"/>
      <point x="570" y="1112"/>
      <point x="563" y="1108" type="curve" smooth="yes"/>
      <point x="537" y="1095"/>
      <point x="507" y="1085"/>
      <point x="483" y="1069" type="curve" smooth="yes"/>
      <point x="476" y="1064"/>
      <point x="473" y="1055"/>
      <point x="470" y="1049" type="curve" smooth="yes"/>
      <point x="460" y="1031"/>
      <point x="451" y="1012"/>
      <point x="442" y="995" type="curve" smooth="yes"/>
      <point x="364" y="851"/>
      <point x="296" y="703"/>
      <point x="221" y="559" type="curve" smooth="yes"/>
      <point x="187" y="492"/>
      <point x="154" y="426"/>
      <point x="120" y="360" type="curve" smooth="yes"/>
      <point x="101" y="323"/>
      <point x="79" y="286"/>
      <point x="64" y="248" type="curve" smooth="yes"/>
    </contour>
    <contour>
      <point x="1114" y="2320" type="move" smooth="yes"/>
      <point x="1017" y="2135"/>
      <point x="924" y="1949"/>
      <point x="831" y="1763" type="curve" smooth="yes"/>
      <point x="802" y="1705"/>
      <point x="772" y="1648"/>
      <point x="744" y="1591" type="curve" smooth="yes"/>
      <point x="716" y="1535" type="line" smooth="yes"/>
      <point x="712" y="1526"/>
      <point x="707" y="1515"/>
      <point x="701" y="1508" type="curve" smooth="yes"/>
      <point x="694" y="1501"/>
      <point x="681" y="1497"/>
      <point x="673" y="1492" type="curve" smooth="yes"/>
      <point x="620" y="1466" type="line" smooth="yes"/>
      <point x="610" y="1461"/>
      <point x="599" y="1457"/>
      <point x="591" y="1450" type="curve" smooth="yes"/>
    </contour>
    <contour>
      <point x="591" y="1123" type="move" smooth="yes"/>
      <point x="614" y="1105"/>
      <point x="645" y="1095"/>
      <point x="672" y="1082" type="curve" smooth="yes"/>
      <point x="681" y="1077"/>
      <point x="696" y="1073"/>
      <point x="703" y="1065" type="curve" smooth="yes"/>
      <point x="710" y="1058"/>
      <point x="713" y="1045"/>
      <point x="718" y="1037" type="curve" smooth="yes"/>
      <point x="727" y="1017"/>
      <point x="737" y="999"/>
      <point x="747" y="980" type="curve" smooth="yes"/>
      <point x="778" y="918"/>
      <point x="809" y="856"/>
      <point x="840" y="795" type="curve" smooth="yes"/>
      <point x="898" y="679"/>
      <point x="956" y="564"/>
      <point x="1015" y="450" type="curve" smooth="yes"/>
      <point x="1038" y="404"/>
      <point x="1062" y="358"/>
      <point x="1085" y="312" type="curve" smooth="yes"/>
      <point x="1096" y="290"/>
      <point x="1108" y="269"/>
      <point x="1118" y="247" type="curve" smooth="yes"/>
    </contour>
  </outline>
</glyph>
<glyph name="braceleft" format="1">
  <advance width="760"/>
  <unicode hex="007B"/>
  <outline>
    <contour>
      <point x="696" y="-189" type="move" smooth="yes"/>
      <point x="688" y="-187"/>
      <point x="680" y="-187"/>
      <point x="673" y="-186" type="curve" smooth="yes"/>
      <point x="652" y="-184"/>
      <point x="631" y="-179"/>
      <point x="611" y="-175" type="curve" smooth="yes"/>
      <point x="558" y="-162"/>
      <point x="509" y="-137"/>
      <point x="468" y="-102" type="curve" smooth="yes"/>
      <point x="384" y="-32"/>
      <point x="354" y="79"/>
      <point x="342" y="184" type="curve" smooth="yes"/>
      <point x="322" y="372"/>
      <point x="330" y="564"/>
      <point x="330" y="754" type="curve" smooth="yes"/>
      <point x="330" y="982" type="line" smooth="yes"/>
      <point x="330" y="1101"/>
      <point x="326" y="1224"/>
      <point x="291" y="1340" type="curve" smooth="yes"/>
      <point x="276" y="1390"/>
      <point x="253" y="1436"/>
      <point x="218" y="1476" type="curve" smooth="yes"/>
      <point x="208" y="1488"/>
      <point x="196" y="1498"/>
      <point x="184" y="1508" type="curve" smooth="yes"/>
      <point x="180" y="1512"/>
      <point x="174" y="1514"/>
      <point x="171" y="1519" type="curve" smooth="yes"/>
      <point x="163" y="1529"/>
      <point x="160" y="1546"/>
      <point x="154" y="1558" type="curve" smooth="yes"/>
      <point x="151" y="1565"/>
      <point x="144" y="1574"/>
      <point x="143" y="1582" type="curve" smooth="yes"/>
      <point x="142" y="1591"/>
      <point x="155" y="1607"/>
      <point x="159" y="1616" type="curve" smooth="yes"/>
      <point x="164" y="1625"/>
      <point x="167" y="1640"/>
      <point x="174" y="1648" type="curve" smooth="yes"/>
      <point x="183" y="1658"/>
      <point x="197" y="1666"/>
      <point x="208" y="1675" type="curve" smooth="yes"/>
      <point x="224" y="1689"/>
      <point x="238" y="1707"/>
      <point x="250" y="1725" type="curve" smooth="yes"/>
      <point x="299" y="1795"/>
      <point x="311" y="1890"/>
      <point x="321" y="1974" type="curve" smooth="yes"/>
      <point x="326" y="2012"/>
      <point x="330" y="2052"/>
      <point x="331" y="2091" type="curve" smooth="yes"/>
      <point x="334" y="2147"/>
      <point x="330" y="2205"/>
      <point x="330" y="2262" type="curve" smooth="yes"/>
      <point x="330" y="2439"/>
      <point x="325" y="2618"/>
      <point x="332" y="2796" type="curve" smooth="yes"/>
      <point x="338" y="2931"/>
      <point x="351" y="3090"/>
      <point x="455" y="3190" type="curve" smooth="yes"/>
      <point x="501" y="3235"/>
      <point x="558" y="3263"/>
      <point x="621" y="3277" type="curve" smooth="yes"/>
      <point x="643" y="3283"/>
      <point x="668" y="3282"/>
      <point x="691" y="3289" type="curve" smooth="yes"/>
    </contour>
    <contour>
      <point x="64" y="1586" type="move"/>
      <point x="142" y="1583" type="line"/>
    </contour>
  </outline>
</glyph>
<glyph name="exclamdown" format="1">
  <advance width="664"/>
  <unicode hex="00A1"/>
  <outline>
    <contour>
      <point x="328" y="3156" type="move"/>
      <point x="328" y="2938" type="line"/>
    </contour>
    <contour>
      <point x="320" y="2148" type="move"/>
      <point x="320" y="2" type="line"/>
    </contour>
  </outline>
</glyph>
<glyph name="sterling" format="1">
  <advance width="2696"/>
  <unicode hex="00A3"/>
  <outline>
    <contour>
      <point x="1917" y="1765" type="move"/>
      <point x="1303" y="1765" type="line" smooth="yes"/>
      <point x="1295" y="1765"/>
      <point x="1285" y="1766"/>
      <point x="1278" y="1764" type="curve" smooth="yes"/>
      <point x="1265" y="1759"/>
      <point x="1253" y="1741"/>
      <point x="1244" y="1732" type="curve" smooth="yes"/>
      <point x="1238" y="1726"/>
      <point x="1224" y="1707"/>
      <point x="1217" y="1708" type="curve" smooth="yes"/>
      <point x="1208" y="1709"/>
      <point x="1198" y="1717"/>
      <point x="1191" y="1721" type="curve" smooth="yes"/>
      <point x="1147" y="1743" type="line" smooth="yes"/>
      <point x="1140" y="1746"/>
      <point x="1131" y="1749"/>
      <point x="1126" y="1754" type="curve" smooth="yes"/>
      <point x="1120" y="1759"/>
      <point x="1119" y="1768"/>
      <point x="1114" y="1774" type="curve" smooth="yes"/>
      <point x="1110" y="1780"/>
      <point x="1101" y="1782"/>
      <point x="1096" y="1786" type="curve" smooth="yes"/>
      <point x="1083" y="1793"/>
      <point x="1069" y="1799"/>
      <point x="1057" y="1806" type="curve" smooth="yes"/>
      <point x="1052" y="1809"/>
      <point x="1045" y="1811"/>
      <point x="1042" y="1817" type="curve" smooth="yes"/>
      <point x="1037" y="1831"/>
      <point x="1037" y="1850"/>
      <point x="1034" y="1865" type="curve" smooth="yes"/>
      <point x="1029" y="1898"/>
      <point x="1024" y="1932"/>
      <point x="1020" y="1967" type="curve" smooth="yes"/>
      <point x="1017" y="1989"/>
      <point x="1016" y="2012"/>
      <point x="1009" y="2034" type="curve" smooth="yes"/>
      <point x="985" y="2103"/>
      <point x="972" y="2175"/>
      <point x="964" y="2248" type="curve" smooth="yes"/>
      <point x="960" y="2285"/>
      <point x="954" y="2324"/>
      <point x="954" y="2362" type="curve" smooth="yes"/>
      <point x="953" y="2395"/>
      <point x="959" y="2430"/>
      <point x="962" y="2464" type="curve" smooth="yes"/>
      <point x="970" y="2544"/>
      <point x="984" y="2623"/>
      <point x="1013" y="2700" type="curve" smooth="yes"/>
      <point x="1048" y="2793"/>
      <point x="1103" y="2888"/>
      <point x="1189" y="2944" type="curve" smooth="yes"/>
      <point x="1253" y="2986"/>
      <point x="1323" y="3003"/>
      <point x="1399" y="3011" type="curve" smooth="yes"/>
      <point x="1428" y="3014"/>
      <point x="1459" y="3017"/>
      <point x="1489" y="3018" type="curve" smooth="yes"/>
      <point x="1517" y="3020"/>
      <point x="1548" y="3014"/>
      <point x="1577" y="3012" type="curve" smooth="yes"/>
      <point x="1687" y="3001"/>
      <point x="1796" y="2975"/>
      <point x="1876" y="2892" type="curve" smooth="yes"/>
      <point x="1909" y="2857"/>
      <point x="1937" y="2819"/>
      <point x="1958" y="2777" type="curve" smooth="yes"/>
      <point x="1966" y="2759"/>
      <point x="1976" y="2738"/>
      <point x="1979" y="2719" type="curve" smooth="yes"/>
    </contour>
    <contour>
      <point x="1043" y="1815" type="move"/>
      <point x="1010" y="1782" type="line" smooth="yes"/>
      <point x="1004" y="1776"/>
      <point x="999" y="1769"/>
      <point x="993" y="1766" type="curve" smooth="yes"/>
      <point x="982" y="1760"/>
      <point x="960" y="1765"/>
      <point x="948" y="1765" type="curve" smooth="yes"/>
      <point x="837" y="1765" type="line"/>
      <point x="478" y="1765" type="line"/>
    </contour>
    <contour>
      <point x="2313" y="842" type="move" smooth="yes"/>
      <point x="2312" y="803"/>
      <point x="2304" y="764"/>
      <point x="2299" y="726" type="curve" smooth="yes"/>
      <point x="2285" y="628"/>
      <point x="2261" y="517"/>
      <point x="2196" y="441" type="curve" smooth="yes"/>
      <point x="2125" y="356"/>
      <point x="2020" y="315"/>
      <point x="1913" y="302" type="curve" smooth="yes"/>
      <point x="1891" y="300"/>
      <point x="1868" y="295"/>
      <point x="1846" y="296" type="curve" smooth="yes"/>
      <point x="1810" y="296"/>
      <point x="1773" y="303"/>
      <point x="1738" y="308" type="curve" smooth="yes"/>
      <point x="1690" y="315"/>
      <point x="1644" y="322"/>
      <point x="1599" y="339" type="curve" smooth="yes"/>
      <point x="1552" y="356"/>
      <point x="1508" y="379"/>
      <point x="1466" y="405" type="curve" smooth="yes"/>
      <point x="1449" y="415"/>
      <point x="1431" y="430"/>
      <point x="1413" y="437" type="curve" smooth="yes"/>
      <point x="1395" y="443"/>
      <point x="1372" y="444"/>
      <point x="1356" y="453" type="curve" smooth="yes"/>
      <point x="1347" y="457"/>
      <point x="1340" y="467"/>
      <point x="1334" y="474" type="curve" smooth="yes"/>
      <point x="1290" y="518" type="line" smooth="yes"/>
      <point x="1281" y="526"/>
      <point x="1267" y="536"/>
      <point x="1261" y="547" type="curve" smooth="yes"/>
      <point x="1258" y="551"/>
      <point x="1260" y="558"/>
      <point x="1260" y="563" type="curve" smooth="yes"/>
      <point x="1260" y="567"/>
      <point x="1259" y="572"/>
      <point x="1260" y="577" type="curve" smooth="yes"/>
      <point x="1262" y="583"/>
      <point x="1270" y="588"/>
      <point x="1275" y="593" type="curve" smooth="yes"/>
      <point x="1308" y="626" type="line" smooth="yes"/>
      <point x="1312" y="630"/>
      <point x="1320" y="636"/>
      <point x="1322" y="643" type="curve" smooth="yes"/>
      <point x="1332" y="674"/>
      <point x="1325" y="710"/>
      <point x="1330" y="743" type="curve" smooth="yes"/>
      <point x="1342" y="818"/>
      <point x="1359" y="892"/>
      <point x="1366" y="968" type="curve" smooth="yes"/>
      <point x="1367" y="979"/>
      <point x="1365" y="992"/>
      <point x="1364" y="1004" type="curve" smooth="yes"/>
      <point x="1361" y="1029"/>
      <point x="1358" y="1055"/>
      <point x="1356" y="1081" type="curve" smooth="yes"/>
      <point x="1345" y="1178"/>
      <point x="1326" y="1274"/>
      <point x="1298" y="1369" type="curve" smooth="yes"/>
      <point x="1288" y="1400"/>
      <point x="1278" y="1431"/>
      <point x="1267" y="1463" type="curve" smooth="yes"/>
      <point x="1262" y="1476"/>
      <point x="1255" y="1490"/>
      <point x="1251" y="1504" type="curve" smooth="yes"/>
      <point x="1247" y="1518"/>
      <point x="1247" y="1535"/>
      <point x="1244" y="1551" type="curve" smooth="yes"/>
      <point x="1240" y="1584"/>
      <point x="1234" y="1617"/>
      <point x="1229" y="1651" type="curve" smooth="yes"/>
      <point x="1226" y="1668"/>
      <point x="1224" y="1688"/>
      <point x="1219" y="1706" type="curve" smooth="yes"/>
    </contour>
    <contour>
      <point x="1260" y="547" type="move" smooth="yes"/>
      <point x="1229" y="516"/>
      <point x="1197" y="488"/>
      <point x="1169" y="456" type="curve" smooth="yes"/>
      <point x="1162" y="447"/>
      <point x="1163" y="435"/>
      <point x="1155" y="427" type="curve" smooth="yes"/>
      <point x="1124" y="390"/>
      <point x="1080" y="361"/>
      <point x="1039" y="337" type="curve" smooth="yes"/>
      <point x="996" y="313"/>
      <point x="950" y="296"/>
      <point x="903" y="284" type="curve" smooth="yes"/>
      <point x="849" y="271"/>
      <point x="795" y="265"/>
      <point x="740" y="262" type="curve" smooth="yes"/>
      <point x="657" y="259"/>
      <point x="572" y="263"/>
      <point x="493" y="285" type="curve" smooth="yes"/>
      <point x="432" y="302"/>
      <point x="370" y="329"/>
      <point x="331" y="380" type="curve" smooth="yes"/>
      <point x="305" y="413"/>
      <point x="295" y="457"/>
      <point x="286" y="498" type="curve" smooth="yes"/>
      <point x="280" y="523"/>
      <point x="270" y="552"/>
      <point x="272" y="579" type="curve" smooth="yes"/>
      <point x="273" y="618"/>
      <point x="284" y="661"/>
      <point x="294" y="700" type="curve" smooth="yes"/>
      <point x="298" y="715"/>
      <point x="305" y="730"/>
      <point x="312" y="744" type="curve" smooth="yes"/>
      <point x="352" y="816"/>
      <point x="435" y="839"/>
      <point x="511" y="850" type="curve" smooth="yes"/>
      <point x="541" y="854"/>
      <point x="573" y="859"/>
      <point x="604" y="860" type="curve" smooth="yes"/>
      <point x="630" y="861"/>
      <point x="658" y="855"/>
      <point x="684" y="852" type="curve" smooth="yes"/>
      <point x="759" y="843"/>
      <point x="832" y="826"/>
      <point x="902" y="794" type="curve" smooth="yes"/>
      <point x="941" y="776"/>
      <point x="979" y="756"/>
      <point x="1017" y="733" type="curve" smooth="yes"/>
      <point x="1031" y="725"/>
      <point x="1044" y="714"/>
      <point x="1059" y="706" type="curve" smooth="yes"/>
      <point x="1066" y="702"/>
      <point x="1075" y="701"/>
      <point x="1083" y="699" type="curve" smooth="yes"/>
      <point x="1100" y="695"/>
      <point x="1117" y="690"/>
      <point x="1135" y="685" type="curve" smooth="yes"/>
      <point x="1142" y="683"/>
      <point x="1150" y="682"/>
      <point x="1157" y="679" type="curve" smooth="yes"/>
      <point x="1169" y="671"/>
      <point x="1180" y="657"/>
      <point x="1190" y="647" type="curve" smooth="yes"/>
      <point x="1260" y="577" type="line"/>
    </contour>
  </outline>
</glyph>
<glyph name="currency" format="1">
  <advance width="1719"/>
  <unicode hex="00A4"/>
  <outline>
    <contour>
      <point x="183" y="3132" type="move" smooth="yes"/>
      <point x="183" y="3075"/>
      <point x="183" y="3019"/>
      <point x="182" y="2963" type="curve" smooth="yes"/>
      <point x="182" y="2898" type="line" smooth="yes"/>
      <point x="182" y="2888"/>
      <point x="180" y="2876"/>
      <point x="182" y="2868" type="curve" smooth="yes"/>
      <point x="184" y="2860"/>
      <point x="190" y="2852"/>
      <point x="193" y="2845" type="curve" smooth="yes"/>
      <point x="202" y="2828"/>
      <point x="210" y="2812"/>
      <point x="219" y="2796" type="curve" smooth="yes"/>
      <point x="245" y="2746"/>
      <point x="272" y="2696"/>
      <point x="297" y="2646" type="curve" smooth="yes"/>
      <point x="311" y="2619"/>
      <point x="325" y="2593"/>
      <point x="338" y="2567" type="curve" smooth="yes"/>
      <point x="344" y="2555"/>
      <point x="351" y="2536"/>
      <point x="360" y="2527" type="curve" smooth="yes"/>
      <point x="369" y="2519"/>
      <point x="386" y="2514"/>
      <point x="398" y="2508" type="curve" smooth="yes"/>
      <point x="407" y="2504"/>
      <point x="423" y="2492"/>
      <point x="434" y="2492" type="curve" smooth="yes"/>
      <point x="439" y="2492"/>
      <point x="445" y="2496"/>
      <point x="450" y="2497" type="curve" smooth="yes"/>
      <point x="483" y="2509" type="line" smooth="yes"/>
      <point x="500" y="2515"/>
      <point x="524" y="2517"/>
      <point x="539" y="2527" type="curve" smooth="yes"/>
      <point x="552" y="2536"/>
      <point x="562" y="2550"/>
      <point x="574" y="2560" type="curve" smooth="yes"/>
      <point x="598" y="2581"/>
      <point x="624" y="2600"/>
      <point x="653" y="2614" type="curve" smooth="yes"/>
      <point x="692" y="2634"/>
      <point x="735" y="2644"/>
      <point x="778" y="2655" type="curve" smooth="yes"/>
      <point x="797" y="2660"/>
      <point x="820" y="2668"/>
      <point x="841" y="2668" type="curve" smooth="yes"/>
      <point x="861" y="2669"/>
      <point x="886" y="2660"/>
      <point x="906" y="2655" type="curve" smooth="yes"/>
      <point x="954" y="2643"/>
      <point x="1003" y="2631"/>
      <point x="1047" y="2604" type="curve" smooth="yes"/>
      <point x="1073" y="2588"/>
      <point x="1098" y="2569"/>
      <point x="1120" y="2547" type="curve" smooth="yes"/>
      <point x="1132" y="2536"/>
      <point x="1141" y="2523"/>
      <point x="1153" y="2513" type="curve" smooth="yes"/>
      <point x="1159" y="2507"/>
      <point x="1171" y="2506"/>
      <point x="1179" y="2503" type="curve" smooth="yes"/>
      <point x="1197" y="2497"/>
      <point x="1216" y="2490"/>
      <point x="1235" y="2483" type="curve" smooth="yes"/>
      <point x="1241" y="2480"/>
      <point x="1254" y="2478"/>
      <point x="1259" y="2472" type="curve" smooth="yes"/>
      <point x="1261" y="2468"/>
      <point x="1262" y="2462"/>
      <point x="1263" y="2458" type="curve" smooth="yes"/>
      <point x="1267" y="2445"/>
      <point x="1270" y="2432"/>
      <point x="1273" y="2419" type="curve" smooth="yes"/>
      <point x="1281" y="2383"/>
      <point x="1288" y="2348"/>
      <point x="1295" y="2313" type="curve" smooth="yes"/>
      <point x="1299" y="2295"/>
      <point x="1300" y="2276"/>
      <point x="1306" y="2260" type="curve" smooth="yes"/>
      <point x="1371" y="2084"/>
      <point x="1400" y="1901"/>
      <point x="1409" y="1715" type="curve" smooth="yes"/>
      <point x="1410" y="1675"/>
      <point x="1409" y="1636"/>
      <point x="1409" y="1597" type="curve" smooth="yes"/>
      <point x="1408" y="1444"/>
      <point x="1400" y="1291"/>
      <point x="1370" y="1142" type="curve" smooth="yes"/>
      <point x="1358" y="1082"/>
      <point x="1343" y="1023"/>
      <point x="1326" y="966" type="curve" smooth="yes"/>
      <point x="1315" y="933"/>
      <point x="1302" y="900"/>
      <point x="1293" y="868" type="curve" smooth="yes"/>
      <point x="1286" y="839"/>
      <point x="1283" y="809"/>
      <point x="1278" y="780" type="curve" smooth="yes"/>
      <point x="1273" y="755"/>
      <point x="1269" y="731"/>
      <point x="1263" y="707" type="curve" smooth="yes"/>
      <point x="1260" y="693"/>
      <point x="1254" y="678"/>
      <point x="1255" y="665" type="curve" smooth="yes"/>
      <point x="1255" y="656"/>
      <point x="1266" y="653"/>
      <point x="1273" y="650" type="curve" smooth="yes"/>
      <point x="1290" y="641"/>
      <point x="1312" y="634"/>
      <point x="1327" y="623" type="curve" smooth="yes"/>
      <point x="1336" y="616"/>
      <point x="1343" y="596"/>
      <point x="1348" y="586" type="curve" smooth="yes"/>
      <point x="1362" y="558"/>
      <point x="1377" y="532"/>
      <point x="1391" y="505" type="curve" smooth="yes"/>
      <point x="1422" y="445"/>
      <point x="1453" y="385"/>
      <point x="1484" y="326" type="curve" smooth="yes"/>
      <point x="1494" y="306"/>
      <point x="1504" y="288"/>
      <point x="1514" y="269" type="curve" smooth="yes"/>
      <point x="1518" y="261"/>
      <point x="1524" y="252"/>
      <point x="1526" y="244" type="curve" smooth="yes"/>
      <point x="1528" y="235"/>
      <point x="1527" y="226"/>
      <point x="1527" y="218" type="curve" smooth="yes"/>
      <point x="1526" y="202"/>
      <point x="1527" y="186"/>
      <point x="1527" y="170" type="curve" smooth="yes"/>
      <point x="1526" y="119"/>
      <point x="1527" y="68"/>
      <point x="1527" y="17" type="curve" smooth="yes"/>
    </contour>
    <contour>
      <point x="1512" y="3109" type="move" smooth="yes"/>
      <point x="1512" y="3051"/>
      <point x="1515" y="2995"/>
      <point x="1516" y="2938" type="curve" smooth="yes"/>
      <point x="1516" y="2918"/>
      <point x="1521" y="2894"/>
      <point x="1517" y="2876" type="curve" smooth="yes"/>
      <point x="1515" y="2867"/>
      <point x="1509" y="2858"/>
      <point x="1505" y="2850" type="curve" smooth="yes"/>
      <point x="1480" y="2800" type="line" smooth="yes"/>
      <point x="1452" y="2743"/>
      <point x="1422" y="2687"/>
      <point x="1394" y="2631" type="curve" smooth="yes"/>
      <point x="1380" y="2603"/>
      <point x="1367" y="2575"/>
      <point x="1352" y="2549" type="curve" smooth="yes"/>
      <point x="1346" y="2538"/>
      <point x="1342" y="2523"/>
      <point x="1334" y="2514" type="curve" smooth="yes"/>
      <point x="1329" y="2509"/>
      <point x="1321" y="2506"/>
      <point x="1315" y="2503" type="curve" smooth="yes"/>
      <point x="1297" y="2494"/>
      <point x="1273" y="2487"/>
      <point x="1259" y="2474" type="curve" smooth="yes"/>
    </contour>
    <contour>
      <point x="1254" y="659" type="move" smooth="yes"/>
      <point x="1233" y="652"/>
      <point x="1214" y="642"/>
      <point x="1194" y="635" type="curve" smooth="yes"/>
      <point x="1183" y="631"/>
      <point x="1169" y="629"/>
      <point x="1160" y="623" type="curve" smooth="yes"/>
      <point x="1146" y="614"/>
      <point x="1135" y="597"/>
      <point x="1124" y="586" type="curve" smooth="yes"/>
      <point x="1105" y="567"/>
      <point x="1084" y="551"/>
      <point x="1063" y="537" type="curve" smooth="yes"/>
      <point x="1014" y="506"/>
      <point x="961" y="491"/>
      <point x="906" y="479" type="curve" smooth="yes"/>
      <point x="885" y="475"/>
      <point x="862" y="468"/>
      <point x="841" y="467" type="curve" smooth="yes"/>
      <point x="820" y="466"/>
      <point x="797" y="475"/>
      <point x="777" y="479" type="curve" smooth="yes"/>
      <point x="713" y="492"/>
      <point x="653" y="510"/>
      <point x="599" y="548" type="curve" smooth="yes"/>
      <point x="582" y="560"/>
      <point x="566" y="572"/>
      <point x="552" y="586" type="curve" smooth="yes"/>
      <point x="543" y="594"/>
      <point x="534" y="606"/>
      <point x="524" y="613" type="curve" smooth="yes"/>
      <point x="517" y="617"/>
      <point x="508" y="618"/>
      <point x="501" y="621" type="curve" smooth="yes"/>
      <point x="485" y="626"/>
      <point x="469" y="631"/>
      <point x="454" y="637" type="curve" smooth="yes"/>
      <point x="447" y="639"/>
      <point x="434" y="642"/>
      <point x="430" y="647" type="curve" smooth="yes"/>
      <point x="425" y="653"/>
      <point x="424" y="666"/>
      <point x="422" y="674" type="curve" smooth="yes"/>
      <point x="416" y="696"/>
      <point x="410" y="719"/>
      <point x="405" y="742" type="curve" smooth="yes"/>
      <point x="397" y="777"/>
      <point x="392" y="815"/>
      <point x="382" y="851" type="curve" smooth="yes"/>
      <point x="373" y="880"/>
      <point x="359" y="908"/>
      <point x="350" y="938" type="curve" smooth="yes"/>
      <point x="302" y="1081"/>
      <point x="282" y="1234"/>
      <point x="272" y="1384" type="curve" smooth="yes"/>
      <point x="266" y="1462"/>
      <point x="261" y="1542"/>
      <point x="263" y="1622" type="curve" smooth="yes"/>
      <point x="266" y="1748"/>
      <point x="278" y="1874"/>
      <point x="303" y="1999" type="curve" smooth="yes"/>
      <point x="315" y="2059"/>
      <point x="330" y="2120"/>
      <point x="349" y="2179" type="curve" smooth="yes"/>
      <point x="357" y="2203"/>
      <point x="365" y="2227"/>
      <point x="374" y="2251" type="curve" smooth="yes"/>
      <point x="378" y="2263"/>
      <point x="384" y="2275"/>
      <point x="388" y="2288" type="curve" smooth="yes"/>
      <point x="399" y="2328"/>
      <point x="404" y="2371"/>
      <point x="413" y="2413" type="curve" smooth="yes"/>
      <point x="419" y="2438"/>
      <point x="429" y="2464"/>
      <point x="433" y="2490" type="curve" smooth="yes"/>
    </contour>
    <contour>
      <point x="183" y="11" type="move" smooth="yes"/>
      <point x="183" y="69"/>
      <point x="180" y="127"/>
      <point x="179" y="186" type="curve" smooth="yes"/>
      <point x="178" y="209"/>
      <point x="173" y="236"/>
      <point x="177" y="260" type="curve" smooth="yes"/>
      <point x="179" y="271"/>
      <point x="188" y="284"/>
      <point x="193" y="295" type="curve" smooth="yes"/>
      <point x="206" y="323"/>
      <point x="221" y="350"/>
      <point x="235" y="379" type="curve" smooth="yes"/>
      <point x="261" y="431"/>
      <point x="287" y="483"/>
      <point x="313" y="536" type="curve" smooth="yes"/>
      <point x="321" y="551"/>
      <point x="329" y="567"/>
      <point x="337" y="583" type="curve" smooth="yes"/>
      <point x="341" y="590"/>
      <point x="344" y="600"/>
      <point x="349" y="606" type="curve" smooth="yes"/>
      <point x="355" y="612"/>
      <point x="366" y="615"/>
      <point x="373" y="619" type="curve" smooth="yes"/>
      <point x="391" y="628"/>
      <point x="409" y="638"/>
      <point x="428" y="646" type="curve" smooth="yes"/>
    </contour>
  </outline>
</glyph>
<glyph name="yen" format="1">
  <advance width="1705"/>
  <unicode hex="00A5"/>
  <outline>
    <contour>
      <point x="1603" y="3046" type="move" smooth="yes"/>
      <point x="1555" y="2966"/>
      <point x="1514" y="2882"/>
      <point x="1470" y="2801" type="curve" smooth="yes"/>
      <point x="1342" y="2563"/>
      <point x="1217" y="2324"/>
      <point x="1086" y="2088" type="curve" smooth="yes"/>
      <point x="1061" y="2041"/>
      <point x="1036" y="1994"/>
      <point x="1011" y="1948" type="curve" smooth="yes"/>
      <point x="1005" y="1937"/>
      <point x="1007" y="1923"/>
      <point x="1000" y="1914" type="curve" smooth="yes"/>
      <point x="986" y="1894"/>
      <point x="964" y="1877"/>
      <point x="947" y="1860" type="curve" smooth="yes"/>
      <point x="909" y="1822" type="line" smooth="yes"/>
      <point x="903" y="1816"/>
      <point x="897" y="1808"/>
      <point x="891" y="1805" type="curve" smooth="yes"/>
      <point x="884" y="1803"/>
      <point x="872" y="1804"/>
      <point x="865" y="1805" type="curve" smooth="yes"/>
      <point x="857" y="1805"/>
      <point x="851" y="1814"/>
      <point x="846" y="1820" type="curve" smooth="yes"/>
      <point x="803" y="1863" type="line" smooth="yes"/>
      <point x="787" y="1878"/>
      <point x="764" y="1895"/>
      <point x="752" y="1914" type="curve" smooth="yes"/>
      <point x="746" y="1923"/>
      <point x="747" y="1936"/>
      <point x="741" y="1947" type="curve" smooth="yes"/>
      <point x="713" y="1998"/>
      <point x="686" y="2049"/>
      <point x="658" y="2101" type="curve" smooth="yes"/>
      <point x="542" y="2309"/>
      <point x="429" y="2519"/>
      <point x="316" y="2729" type="curve" smooth="yes"/>
      <point x="279" y="2797"/>
      <point x="242" y="2865"/>
      <point x="205" y="2934" type="curve" smooth="yes"/>
      <point x="185" y="2969"/>
      <point x="168" y="3008"/>
      <point x="146" y="3042" type="curve" smooth="yes"/>
    </contour>
    <contour>
      <point x="860" y="1805" type="move"/>
      <point x="782" y="1727" type="line" smooth="yes"/>
      <point x="773" y="1718"/>
      <point x="760" y="1699"/>
      <point x="749" y="1695" type="curve" smooth="yes"/>
      <point x="743" y="1693"/>
      <point x="735" y="1695"/>
      <point x="730" y="1695" type="curve" smooth="yes"/>
      <point x="688" y="1695" type="line"/>
      <point x="546" y="1695" type="line"/>
      <point x="64" y="1695" type="line"/>
    </contour>
    <contour>
      <point x="893" y="1805" type="move"/>
      <point x="1673" y="1695" type="line"/>
      <point x="1203" y="1695" type="line"/>
      <point x="1064" y="1695" type="line"/>
      <point x="1023" y="1695" type="line" smooth="yes"/>
      <point x="1017" y="1695"/>
      <point x="1009" y="1693"/>
      <point x="1004" y="1695" type="curve" smooth="yes"/>
      <point x="992" y="1699"/>
      <point x="979" y="1718"/>
      <point x="971" y="1727" type="curve" smooth="yes"/>
    </contour>
    <contour>
      <point x="877" y="1804" type="move"/>
      <point x="877" y="306" type="line"/>
    </contour>
    <contour>
      <point x="64" y="882" type="move"/>
      <point x="1673" y="882" type="line"/>
    </contour>
  </outline>
</glyph>
<glyph name="dieresis" format="1">
  <advance width="1770"/>
  <unicode hex="00A8"/>
  <outline>
    <contour>
      <point x="400" y="2929" type="move"/>
      <point x="417" y="2929" type="line"/>
    </contour>
    <contour>
      <point x="1369" y="2929" type="move"/>
      <point x="1386" y="2929" type="line"/>
    </contour>
  </outline>
</glyph>
<glyph name="copyright" format="1">
  <advance width="2308"/>
  <unicode hex="00A9"/>
  <outline>
    <contour>
      <point x="1182" y="2706" type="curve" smooth="yes"/>
      <point x="1231" y="2702"/>
      <point x="1278" y="2698"/>
      <point x="1326" y="2689" type="curve" smooth="yes"/>
      <point x="1674" y="2624"/>
      <point x="1954" y="2349"/>
      <point x="2065" y="2018" type="curve" smooth="yes"/>
      <point x="2107" y="1891"/>
      <point x="2124" y="1761"/>
      <point x="2130" y="1629" type="curve" smooth="yes"/>
      <point x="2140" y="1399"/>
      <point x="2098" y="1165"/>
      <point x="1988" y="962" type="curve" smooth="yes"/>
      <point x="1928" y="851"/>
      <point x="1847" y="751"/>
      <point x="1754" y="667" type="curve" smooth="yes"/>
      <point x="1681" y="600"/>
      <point x="1598" y="552"/>
      <point x="1510" y="509" type="curve" smooth="yes"/>
      <point x="1432" y="471"/>
      <point x="1342" y="451"/>
      <point x="1256" y="440" type="curve" smooth="yes"/>
      <point x="1142" y="425"/>
      <point x="1021" y="428"/>
      <point x="908" y="451" type="curve" smooth="yes"/>
      <point x="837" y="465"/>
      <point x="766" y="486"/>
      <point x="701" y="518" type="curve" smooth="yes"/>
      <point x="644" y="547"/>
      <point x="589" y="579"/>
      <point x="539" y="619" type="curve" smooth="yes"/>
      <point x="484" y="663"/>
      <point x="433" y="712"/>
      <point x="387" y="766" type="curve" smooth="yes"/>
      <point x="179" y="1010"/>
      <point x="99" y="1334"/>
      <point x="113" y="1650" type="curve" smooth="yes"/>
      <point x="120" y="1809"/>
      <point x="154" y="1966"/>
      <point x="220" y="2112" type="curve" smooth="yes"/>
      <point x="335" y="2362"/>
      <point x="558" y="2574"/>
      <point x="820" y="2661" type="curve" smooth="yes"/>
      <point x="885" y="2683"/>
      <point x="952" y="2696"/>
      <point x="1020" y="2702" type="curve" smooth="yes"/>
      <point x="1050" y="2705"/>
      <point x="1081" y="2704"/>
      <point x="1111" y="2708" type="curve" smooth="yes"/>
      <point x="1134" y="2711"/>
      <point x="1159" y="2707"/>
    </contour>
    <contour>
      <point x="1544" y="1330" type="move" smooth="yes"/>
      <point x="1537" y="1297"/>
      <point x="1523" y="1263"/>
      <point x="1508" y="1234" type="curve" smooth="yes"/>
      <point x="1475" y="1169"/>
      <point x="1428" y="1110"/>
      <point x="1368" y="1069" type="curve" smooth="yes"/>
      <point x="1308" y="1029"/>
      <point x="1240" y="1012"/>
      <point x="1169" y="1005" type="curve" smooth="yes"/>
      <point x="1094" y="998"/>
      <point x="1014" y="1007"/>
      <point x="943" y="1036" type="curve" smooth="yes"/>
      <point x="816" y="1087"/>
      <point x="719" y="1209"/>
      <point x="678" y="1338" type="curve" smooth="yes"/>
      <point x="623" y="1511"/>
      <point x="633" y="1719"/>
      <point x="732" y="1876" type="curve" smooth="yes"/>
      <point x="783" y="1957"/>
      <point x="860" y="2026"/>
      <point x="948" y="2064" type="curve" smooth="yes"/>
      <point x="986" y="2080"/>
      <point x="1025" y="2087"/>
      <point x="1065" y="2092" type="curve" smooth="yes"/>
      <point x="1183" y="2106"/>
      <point x="1310" y="2080"/>
      <point x="1401" y="2000" type="curve" smooth="yes"/>
      <point x="1446" y="1960"/>
      <point x="1478" y="1906"/>
      <point x="1501" y="1852" type="curve" smooth="yes"/>
      <point x="1510" y="1831"/>
      <point x="1515" y="1809"/>
      <point x="1524" y="1789" type="curve" smooth="yes"/>
    </contour>
  </outline>
</glyph>
<glyph name="logicalnot" format="1">
  <advance width="2319"/>
  <unicode hex="00AC"/>
  <outline>
    <contour>
      <point x="224" y="2007" type="move"/>
      <point x="1538" y="2007" type="line"/>
      <point x="1858" y="2007" type="line"/>
      <point x="1927" y="2007" type="line" smooth="yes"/>
      <point x="1935" y="2007"/>
      <point x="1948" y="2009"/>
      <point x="1957" y="2006" type="curve" smooth="yes"/>
      <point x="1964" y="2003"/>
      <point x="1973" y="1992"/>
      <point x="1978" y="1986" type="curve" smooth="yes"/>
      <point x="1986" y="1976"/>
      <point x="1982" y="1950"/>
      <point x="1982" y="1938" type="curve" smooth="yes"/>
      <point x="1982" y="1808" type="line"/>
      <point x="1982" y="1297" type="line"/>
    </contour>
  </outline>
</glyph>
<glyph name="degree" format="1">
  <advance width="4244"/>
  <unicode hex="00B0"/>
  <outline>
    <contour>
      <point x="590" y="3220" type="move" smooth="yes"/>
      <point x="602" y="3222"/>
      <point x="615" y="3219"/>
      <point x="627" y="3218" type="curve" smooth="yes"/>
      <point x="653" y="3215"/>
      <point x="680" y="3212"/>
      <point x="707" y="3208" type="curve" smooth="yes"/>
      <point x="754" y="3201"/>
      <point x="800" y="3189"/>
      <point x="844" y="3168" type="curve" smooth="yes"/>
      <point x="956" y="3115"/>
      <point x="1046" y="3010"/>
      <point x="1088" y="2893" type="curve" smooth="yes"/>
      <point x="1103" y="2848"/>
      <point x="1110" y="2803"/>
      <point x="1116" y="2757" type="curve" smooth="yes"/>
      <point x="1120" y="2728"/>
      <point x="1124" y="2698"/>
      <point x="1124" y="2669" type="curve" smooth="yes"/>
      <point x="1123" y="2645"/>
      <point x="1119" y="2621"/>
      <point x="1117" y="2598" type="curve" smooth="yes"/>
      <point x="1108" y="2517"/>
      <point x="1091" y="2439"/>
      <point x="1049" y="2369" type="curve" smooth="yes"/>
      <point x="997" y="2281"/>
      <point x="907" y="2212"/>
      <point x="811" y="2180" type="curve" smooth="yes"/>
      <point x="772" y="2167"/>
      <point x="731" y="2160"/>
      <point x="691" y="2155" type="curve" smooth="yes"/>
      <point x="663" y="2151"/>
      <point x="634" y="2146"/>
      <point x="606" y="2146" type="curve" smooth="yes"/>
      <point x="577" y="2146"/>
      <point x="547" y="2151"/>
      <point x="519" y="2155" type="curve" smooth="yes"/>
      <point x="398" y="2171"/>
      <point x="287" y="2214"/>
      <point x="202" y="2306" type="curve" smooth="yes"/>
      <point x="133" y="2379"/>
      <point x="101" y="2475"/>
      <point x="89" y="2574" type="curve" smooth="yes"/>
      <point x="85" y="2607"/>
      <point x="80" y="2641"/>
      <point x="80" y="2675" type="curve" smooth="yes"/>
      <point x="79" y="2705"/>
      <point x="84" y="2737"/>
      <point x="87" y="2768" type="curve" smooth="yes"/>
      <point x="99" y="2879"/>
      <point x="132" y="2986"/>
      <point x="209" y="3071" type="curve" smooth="yes"/>
      <point x="270" y="3139"/>
      <point x="352" y="3181"/>
      <point x="441" y="3201" type="curve" smooth="yes"/>
      <point x="490" y="3212"/>
      <point x="540" y="3214"/>
      <point x="590" y="3220" type="curve" smooth="yes"/>
    </contour>
  </outline>
</glyph>
<glyph name="uni00B2" format="1">
  <advance width="438"/>
  <unicode hex="00B2"/>
  <outline>
    <contour>
      <point x="48" y="3139" type="move" smooth="yes"/>
      <point x="51" y="3158"/>
      <point x="50" y="3179"/>
      <point x="53" y="3199" type="curve" smooth="yes"/>
      <point x="60" y="3254"/>
      <point x="75" y="3306"/>
      <point x="117" y="3345" type="curve" smooth="yes"/>
      <point x="137" y="3365"/>
      <point x="161" y="3374"/>
      <point x="188" y="3382" type="curve" smooth="yes"/>
      <point x="197" y="3384"/>
      <point x="207" y="3388"/>
      <point x="217" y="3389" type="curve" smooth="yes"/>
      <point x="228" y="3389"/>
      <point x="242" y="3383"/>
      <point x="254" y="3380" type="curve" smooth="yes"/>
      <point x="295" y="3368"/>
      <point x="328" y="3347"/>
      <point x="352" y="3311" type="curve" smooth="yes"/>
      <point x="380" y="3268"/>
      <point x="386" y="3209"/>
      <point x="388" y="3160" type="curve" smooth="yes"/>
      <point x="393" y="3058"/>
      <point x="379" y="2957"/>
      <point x="345" y="2861" type="curve" smooth="yes"/>
      <point x="305" y="2749"/>
      <point x="242" y="2647"/>
      <point x="186" y="2544" type="curve" smooth="yes"/>
      <point x="163" y="2500"/>
      <point x="140" y="2457"/>
      <point x="116" y="2414" type="curve" smooth="yes"/>
      <point x="99" y="2382"/>
      <point x="80" y="2352"/>
      <point x="73" y="2317" type="curve" smooth="yes"/>
      <point x="69" y="2297"/>
      <point x="58" y="2270"/>
      <point x="63" y="2251" type="curve" smooth="yes"/>
      <point x="64" y="2246"/>
      <point x="69" y="2242"/>
      <point x="73" y="2239" type="curve" smooth="yes"/>
      <point x="77" y="2234"/>
      <point x="81" y="2228"/>
      <point x="87" y="2226" type="curve" smooth="yes"/>
      <point x="99" y="2221"/>
      <point x="120" y="2226"/>
      <point x="134" y="2226" type="curve" smooth="yes"/>
      <point x="352" y="2226" type="line"/>
    </contour>
  </outline>
</glyph>
<glyph name="uni00B3" format="1">
  <advance width="441"/>
  <unicode hex="00B3"/>
  <outline>
    <contour>
      <point x="64" y="3406" type="move"/>
      <point x="257" y="3406" type="line"/>
      <point x="316" y="3406" type="line"/>
      <point x="346" y="3405" type="line"/>
      <point x="338" y="3377"/>
      <point x="333" y="3349"/>
      <point x="327" y="3322" type="curve" smooth="yes"/>
      <point x="325" y="3311"/>
      <point x="324" y="3299"/>
      <point x="320" y="3290" type="curve" smooth="yes"/>
      <point x="311" y="3268"/>
      <point x="296" y="3247"/>
      <point x="284" y="3228" type="curve" smooth="yes"/>
      <point x="264" y="3193"/>
      <point x="245" y="3159"/>
      <point x="225" y="3125" type="curve" smooth="yes"/>
      <point x="206" y="3092"/>
      <point x="182" y="3058"/>
      <point x="167" y="3024" type="curve" smooth="yes"/>
      <point x="160" y="3006"/>
      <point x="158" y="2985"/>
      <point x="154" y="2967" type="curve" smooth="yes"/>
      <point x="151" y="2954"/>
      <point x="144" y="2937"/>
      <point x="145" y="2924" type="curve" smooth="yes"/>
      <point x="145" y="2919"/>
      <point x="150" y="2914"/>
      <point x="155" y="2914" type="curve" smooth="yes"/>
      <point x="169" y="2911"/>
      <point x="185" y="2912"/>
      <point x="200" y="2910" type="curve" smooth="yes"/>
      <point x="248" y="2905"/>
      <point x="287" y="2882"/>
      <point x="311" y="2838" type="curve" smooth="yes"/>
      <point x="347" y="2772"/>
      <point x="355" y="2695"/>
      <point x="359" y="2622" type="curve" smooth="yes"/>
      <point x="362" y="2548"/>
      <point x="363" y="2472"/>
      <point x="347" y="2400" type="curve" smooth="yes"/>
      <point x="335" y="2346"/>
      <point x="317" y="2290"/>
      <point x="273" y="2255" type="curve" smooth="yes"/>
      <point x="249" y="2237"/>
      <point x="222" y="2230"/>
      <point x="194" y="2226" type="curve" smooth="yes"/>
      <point x="150" y="2219"/>
      <point x="107" y="2218"/>
      <point x="64" y="2218" type="curve" smooth="yes"/>
    </contour>
  </outline>
</glyph>
<glyph name="acute" format="1">
  <advance width="1147"/>
  <unicode hex="00B4"/>
  <outline>
    <contour>
      <point x="699" y="3040" type="move"/>
      <point x="598" y="2910" type="line"/>
      <point x="496" y="2777" type="line"/>
    </contour>
  </outline>
</glyph>
<glyph name="mu" format="1">
  <advance width="1166"/>
  <unicode hex="00B5"/>
  <outline>
    <contour>
      <point x="1118" y="1828" type="move"/>
      <point x="1118" y="312" type="line"/>
    </contour>
    <contour>
      <point x="79" y="1820" type="move"/>
      <point x="79" y="-242" type="line"/>
    </contour>
    <contour>
      <point x="80" y="483" type="move" smooth="yes"/>
      <point x="94" y="482"/>
      <point x="109" y="472"/>
      <point x="123" y="466" type="curve" smooth="yes"/>
      <point x="147" y="454"/>
      <point x="172" y="443"/>
      <point x="197" y="432" type="curve" smooth="yes"/>
      <point x="228" y="419"/>
      <point x="259" y="407"/>
      <point x="292" y="396" type="curve" smooth="yes"/>
      <point x="307" y="391"/>
      <point x="328" y="388"/>
      <point x="343" y="380" type="curve" smooth="yes"/>
      <point x="350" y="376"/>
      <point x="355" y="368"/>
      <point x="361" y="363" type="curve" smooth="yes"/>
      <point x="372" y="351"/>
      <point x="385" y="341"/>
      <point x="399" y="332" type="curve" smooth="yes"/>
      <point x="427" y="314"/>
      <point x="458" y="305"/>
      <point x="491" y="297" type="curve" smooth="yes"/>
      <point x="510" y="292"/>
      <point x="530" y="286"/>
      <point x="551" y="284" type="curve" smooth="yes"/>
      <point x="570" y="282"/>
      <point x="595" y="290"/>
      <point x="615" y="294" type="curve" smooth="yes"/>
      <point x="676" y="307"/>
      <point x="732" y="325"/>
      <point x="784" y="361" type="curve" smooth="yes"/>
      <point x="799" y="372"/>
      <point x="813" y="383"/>
      <point x="828" y="395" type="curve" smooth="yes"/>
      <point x="836" y="402"/>
      <point x="845" y="412"/>
      <point x="855" y="418" type="curve" smooth="yes"/>
      <point x="865" y="424"/>
      <point x="880" y="427"/>
      <point x="892" y="430" type="curve" smooth="yes"/>
      <point x="911" y="436"/>
      <point x="930" y="442"/>
      <point x="949" y="449" type="curve" smooth="yes"/>
      <point x="1005" y="469"/>
      <point x="1060" y="493"/>
      <point x="1117" y="515" type="curve" smooth="yes"/>
    </contour>
  </outline>
</glyph>
<glyph name="paragraph" format="1">
  <advance width="979"/>
  <unicode hex="00B6"/>
  <outline>
    <contour>
      <point x="379" y="-85" type="move"/>
      <point x="379" y="1380" type="line"/>
      <point x="379" y="1854" type="line"/>
      <point x="379" y="2007" type="line" smooth="yes"/>
      <point x="379" y="2031"/>
      <point x="382" y="2058"/>
      <point x="378" y="2082" type="curve" smooth="yes"/>
      <point x="377" y="2091"/>
      <point x="362" y="2100"/>
      <point x="356" y="2108" type="curve" smooth="yes"/>
      <point x="341" y="2126"/>
      <point x="331" y="2147"/>
      <point x="321" y="2169" type="curve" smooth="yes"/>
      <point x="290" y="2236"/>
      <point x="273" y="2312"/>
      <point x="259" y="2385" type="curve" smooth="yes"/>
      <point x="247" y="2447"/>
      <point x="238" y="2509"/>
      <point x="231" y="2572" type="curve" smooth="yes"/>
      <point x="228" y="2599"/>
      <point x="224" y="2628"/>
      <point x="224" y="2657" type="curve" smooth="yes"/>
      <point x="223" y="2693"/>
      <point x="230" y="2730"/>
      <point x="234" y="2766" type="curve" smooth="yes"/>
      <point x="243" y="2840"/>
      <point x="256" y="2914"/>
      <point x="274" y="2987" type="curve" smooth="yes"/>
      <point x="286" y="3034"/>
      <point x="299" y="3081"/>
      <point x="319" y="3126" type="curve" smooth="yes"/>
      <point x="323" y="3136"/>
      <point x="328" y="3147"/>
      <point x="333" y="3158" type="curve" smooth="yes"/>
      <point x="335" y="3162"/>
      <point x="338" y="3168"/>
      <point x="343" y="3170" type="curve" smooth="yes"/>
      <point x="351" y="3174"/>
      <point x="363" y="3174"/>
      <point x="373" y="3175" type="curve" smooth="yes"/>
      <point x="395" y="3177"/>
      <point x="418" y="3179"/>
      <point x="441" y="3179" type="curve" smooth="yes"/>
      <point x="634" y="3179" type="line"/>
      <point x="701" y="3179" type="line" smooth="yes"/>
      <point x="705" y="3179"/>
      <point x="720" y="3181"/>
      <point x="722" y="3176" type="curve" smooth="yes"/>
      <point x="724" y="3171"/>
      <point x="723" y="3161"/>
      <point x="723" y="3156" type="curve" smooth="yes"/>
      <point x="723" y="3104" type="line"/>
      <point x="723" y="2920" type="line"/>
      <point x="723" y="2262" type="line"/>
      <point x="723" y="-85" type="line"/>
    </contour>
  </outline>
</glyph>
<glyph name="ordmasculine" format="1">
  <advance width="134"/>
  <unicode hex="00BA"/>
  <outline>
    <contour>
      <point x="299" y="3357" type="move" smooth="yes"/>
      <point x="312" y="3357"/>
      <point x="328" y="3348"/>
      <point x="339" y="3343" type="curve" smooth="yes"/>
      <point x="352" y="3338"/>
      <point x="365" y="3333"/>
      <point x="375" y="3325" type="curve" smooth="yes"/>
      <point x="394" y="3309"/>
      <point x="408" y="3286"/>
      <point x="418" y="3265" type="curve" smooth="yes"/>
      <point x="438" y="3223"/>
      <point x="449" y="3180"/>
      <point x="459" y="3136" type="curve" smooth="yes"/>
      <point x="479" y="3051"/>
      <point x="480" y="2963"/>
      <point x="484" y="2878" type="curve" smooth="yes"/>
      <point x="487" y="2813"/>
      <point x="486" y="2748"/>
      <point x="481" y="2684" type="curve" smooth="yes"/>
      <point x="476" y="2610"/>
      <point x="470" y="2536"/>
      <point x="453" y="2465" type="curve" smooth="yes"/>
      <point x="439" y="2410"/>
      <point x="421" y="2338"/>
      <point x="376" y="2300" type="curve" smooth="yes"/>
      <point x="364" y="2289"/>
      <point x="348" y="2284"/>
      <point x="333" y="2278" type="curve" smooth="yes"/>
      <point x="323" y="2274"/>
      <point x="310" y="2267"/>
      <point x="299" y="2267" type="curve" smooth="yes"/>
      <point x="287" y="2267"/>
      <point x="271" y="2275"/>
      <point x="260" y="2280" type="curve" smooth="yes"/>
      <point x="248" y="2285"/>
      <point x="235" y="2289"/>
      <point x="225" y="2297" type="curve" smooth="yes"/>
      <point x="204" y="2314"/>
      <point x="190" y="2339"/>
      <point x="179" y="2364" type="curve" smooth="yes"/>
      <point x="160" y="2404"/>
      <point x="149" y="2447"/>
      <point x="139" y="2491" type="curve" smooth="yes"/>
      <point x="118" y="2584"/>
      <point x="115" y="2681"/>
      <point x="112" y="2777" type="curve" smooth="yes"/>
      <point x="109" y="2903"/>
      <point x="116" y="3030"/>
      <point x="144" y="3154" type="curve" smooth="yes"/>
      <point x="156" y="3211"/>
      <point x="176" y="3285"/>
      <point x="223" y="3324" type="curve" smooth="yes"/>
      <point x="235" y="3334"/>
      <point x="250" y="3339"/>
      <point x="263" y="3344" type="curve" smooth="yes"/>
      <point x="274" y="3348"/>
      <point x="288" y="3356"/>
      <point x="299" y="3357" type="curve" smooth="yes"/>
    </contour>
  </outline>
</glyph>
<glyph name="onequarter" format="1">
  <advance width="2042"/>
  <unicode hex="00BC"/>
  <outline>
    <contour>
      <point x="475" y="3093" type="move" smooth="yes"/>
      <point x="474" y="3065"/>
      <point x="466" y="3034"/>
      <point x="458" y="3008" type="curve" smooth="yes"/>
      <point x="456" y="3000"/>
      <point x="454" y="2986"/>
      <point x="448" y="2980" type="curve" smooth="yes"/>
      <point x="444" y="2976"/>
      <point x="437" y="2976"/>
      <point x="433" y="2974" type="curve" smooth="yes"/>
      <point x="419" y="2971"/>
      <point x="406" y="2968"/>
      <point x="393" y="2966" type="curve" smooth="yes"/>
      <point x="337" y="2955"/>
      <point x="280" y="2953"/>
      <point x="224" y="2953" type="curve" smooth="yes"/>
    </contour>
    <contour>
      <point x="431" y="233" type="move" smooth="yes"/>
      <point x="440" y="266"/>
      <point x="458" y="300"/>
      <point x="472" y="333" type="curve" smooth="yes"/>
      <point x="553" y="526" type="line" smooth="yes"/>
      <point x="633" y="716"/>
      <point x="713" y="906"/>
      <point x="793" y="1097" type="curve" smooth="yes"/>
      <point x="972" y="1524"/>
      <point x="1152" y="1950"/>
      <point x="1331" y="2378" type="curve" smooth="yes"/>
      <point x="1535" y="2864" type="line" smooth="yes"/>
      <point x="1567" y="2939"/>
      <point x="1601" y="3015"/>
      <point x="1631" y="3092" type="curve" smooth="yes"/>
    </contour>
    <contour>
      <point x="449" y="2979" type="move" smooth="yes"/>
      <point x="453" y="2972"/>
      <point x="452" y="2962"/>
      <point x="452" y="2954" type="curve" smooth="yes"/>
      <point x="452" y="2896" type="line"/>
      <point x="452" y="2673" type="line"/>
      <point x="452" y="1821" type="line"/>
    </contour>
    <contour>
      <point x="1866" y="546" type="move"/>
      <point x="1266" y="546" type="line"/>
      <point x="1122" y="546" type="line"/>
      <point x="1088" y="546" type="line" smooth="yes"/>
      <point x="1083" y="546"/>
      <point x="1077" y="545"/>
      <point x="1074" y="550" type="curve" smooth="yes"/>
      <point x="1072" y="554"/>
      <point x="1075" y="563"/>
      <point x="1077" y="568" type="curve" smooth="yes"/>
      <point x="1080" y="584"/>
      <point x="1084" y="601"/>
      <point x="1088" y="618" type="curve" smooth="yes"/>
      <point x="1093" y="639"/>
      <point x="1095" y="663"/>
      <point x="1103" y="684" type="curve" smooth="yes"/>
      <point x="1109" y="699"/>
      <point x="1121" y="714"/>
      <point x="1130" y="729" type="curve" smooth="yes"/>
      <point x="1148" y="758"/>
      <point x="1165" y="787"/>
      <point x="1183" y="817" type="curve" smooth="yes"/>
      <point x="1246" y="919"/>
      <point x="1307" y="1023"/>
      <point x="1368" y="1127" type="curve" smooth="yes"/>
      <point x="1397" y="1176"/>
      <point x="1424" y="1229"/>
      <point x="1457" y="1275" type="curve" smooth="yes"/>
      <point x="1465" y="1286"/>
      <point x="1485" y="1291"/>
      <point x="1497" y="1297" type="curve" smooth="yes"/>
      <point x="1520" y="1307"/>
      <point x="1543" y="1318"/>
      <point x="1566" y="1328" type="curve" smooth="yes"/>
      <point x="1575" y="1333"/>
      <point x="1589" y="1336"/>
      <point x="1597" y="1343" type="curve" smooth="yes"/>
      <point x="1604" y="1350"/>
      <point x="1605" y="1370"/>
      <point x="1607" y="1380" type="curve" smooth="yes"/>
      <point x="1615" y="1413"/>
      <point x="1626" y="1448"/>
      <point x="1631" y="1483" type="curve" smooth="yes"/>
    </contour>
    <contour>
      <point x="1599" y="1344" type="move"/>
      <point x="1615" y="1326" type="line"/>
      <point x="1616" y="1304" type="line"/>
      <point x="1616" y="1257" type="line"/>
      <point x="1616" y="1057" type="line"/>
      <point x="1616" y="235" type="line"/>
    </contour>
  </outline>
</glyph>
<glyph name="onehalf" format="1">
  <advance width="2003"/>
  <unicode hex="00BD"/>
  <outline>
    <contour>
      <point x="460" y="1821" type="move"/>
      <point x="460" y="2604" type="line"/>
      <point x="460" y="2864" type="line" smooth="yes"/>
      <point x="460" y="2906"/>
      <point x="458" y="2949"/>
      <point x="459" y="2992" type="curve" smooth="yes"/>
      <point x="460" y="3001"/>
      <point x="466" y="3013"/>
      <point x="469" y="3023" type="curve" smooth="yes"/>
      <point x="475" y="3045"/>
      <point x="482" y="3069"/>
      <point x="483" y="3093" type="curve" smooth="yes"/>
    </contour>
    <contour>
      <point x="1639" y="3092" type="move"/>
      <point x="439" y="233" type="line"/>
      <point x="475" y="321" type="line"/>
      <point x="553" y="507" type="line"/>
      <point x="777" y="1040" type="line"/>
      <point x="1339" y="2378" type="line"/>
      <point x="1538" y="2852" type="line"/>
    </contour>
    <contour>
      <point x="459" y="2993" type="move" smooth="yes"/>
      <point x="385" y="2969"/>
      <point x="301" y="2961"/>
      <point x="224" y="2961" type="curve" smooth="yes"/>
    </contour>
    <contour>
      <point x="1177" y="1229" type="move" smooth="yes"/>
      <point x="1181" y="1291"/>
      <point x="1212" y="1361"/>
      <point x="1260" y="1402" type="curve" smooth="yes"/>
      <point x="1357" y="1485"/>
      <point x="1504" y="1494"/>
      <point x="1623" y="1462" type="curve" smooth="yes"/>
      <point x="1671" y="1449"/>
      <point x="1720" y="1426"/>
      <point x="1755" y="1389" type="curve" smooth="yes"/>
      <point x="1784" y="1358"/>
      <point x="1803" y="1318"/>
      <point x="1813" y="1278" type="curve" smooth="yes"/>
      <point x="1822" y="1243"/>
      <point x="1829" y="1204"/>
      <point x="1830" y="1169" type="curve" smooth="yes"/>
      <point x="1830" y="1151"/>
      <point x="1826" y="1133"/>
      <point x="1824" y="1116" type="curve" smooth="yes"/>
      <point x="1820" y="1084"/>
      <point x="1814" y="1053"/>
      <point x="1804" y="1024" type="curve" smooth="yes"/>
      <point x="1756" y="876"/>
      <point x="1638" y="764"/>
      <point x="1532" y="658" type="curve" smooth="yes"/>
      <point x="1408" y="534" type="line"/>
      <point x="1289" y="415" type="line"/>
      <point x="1252" y="378" type="line" smooth="yes"/>
      <point x="1246" y="372"/>
      <point x="1238" y="366"/>
      <point x="1234" y="359" type="curve" smooth="yes"/>
      <point x="1225" y="344"/>
      <point x="1221" y="323"/>
      <point x="1216" y="307" type="curve" smooth="yes"/>
      <point x="1197" y="251" type="line" smooth="yes"/>
      <point x="1195" y="245"/>
      <point x="1190" y="235"/>
      <point x="1192" y="230" type="curve" smooth="yes"/>
      <point x="1200" y="213"/>
      <point x="1220" y="218"/>
      <point x="1235" y="218" type="curve" smooth="yes"/>
      <point x="1351" y="218" type="line"/>
      <point x="1843" y="218" type="line"/>
    </contour>
  </outline>
</glyph>
<glyph name="questiondown" format="1">
  <advance width="1475"/>
  <unicode hex="00BF"/>
  <outline>
    <contour>
      <point x="763" y="3039" type="move"/>
      <point x="763" y="2977" type="line"/>
    </contour>
    <contour>
      <point x="771" y="2156" type="move" smooth="yes"/>
      <point x="766" y="2135"/>
      <point x="769" y="2110"/>
      <point x="769" y="2090" type="curve" smooth="yes"/>
      <point x="768" y="2055"/>
      <point x="766" y="2019"/>
      <point x="763" y="1985" type="curve" smooth="yes"/>
      <point x="754" y="1840"/>
      <point x="739" y="1690"/>
      <point x="660" y="1565" type="curve" smooth="yes"/>
      <point x="633" y="1521"/>
      <point x="599" y="1479"/>
      <point x="562" y="1444" type="curve" smooth="yes"/>
      <point x="530" y="1413"/>
      <point x="494" y="1387"/>
      <point x="460" y="1359" type="curve" smooth="yes"/>
      <point x="413" y="1322"/>
      <point x="367" y="1283"/>
      <point x="326" y="1240" type="curve" smooth="yes"/>
      <point x="267" y="1181"/>
      <point x="209" y="1120"/>
      <point x="170" y="1046" type="curve" smooth="yes"/>
      <point x="128" y="966"/>
      <point x="111" y="877"/>
      <point x="102" y="789" type="curve" smooth="yes"/>
      <point x="100" y="760"/>
      <point x="96" y="732"/>
      <point x="96" y="704" type="curve" smooth="yes"/>
      <point x="95" y="674"/>
      <point x="100" y="644"/>
      <point x="103" y="615" type="curve" smooth="yes"/>
      <point x="107" y="582"/>
      <point x="111" y="549"/>
      <point x="119" y="518" type="curve" smooth="yes"/>
      <point x="151" y="397"/>
      <point x="222" y="281"/>
      <point x="327" y="211" type="curve" smooth="yes"/>
      <point x="413" y="153"/>
      <point x="512" y="128"/>
      <point x="615" y="117" type="curve" smooth="yes"/>
      <point x="640" y="115"/>
      <point x="667" y="111"/>
      <point x="693" y="112" type="curve" smooth="yes"/>
      <point x="728" y="112"/>
      <point x="765" y="117"/>
      <point x="801" y="120" type="curve" smooth="yes"/>
      <point x="916" y="132"/>
      <point x="1028" y="163"/>
      <point x="1123" y="234" type="curve" smooth="yes"/>
      <point x="1230" y="316"/>
      <point x="1302" y="442"/>
      <point x="1334" y="572" type="curve" smooth="yes"/>
      <point x="1347" y="625"/>
      <point x="1353" y="680"/>
      <point x="1357" y="736" type="curve" smooth="yes"/>
      <point x="1359" y="766"/>
      <point x="1362" y="798"/>
      <point x="1363" y="829" type="curve" smooth="yes"/>
    </contour>
  </outline>
</glyph>
<glyph name="Agrave" format="1">
  <advance width="1882"/>
  <unicode hex="00C0"/>
  <outline>
    <contour>
      <point x="843" y="3399" type="move"/>
      <point x="1041" y="3051" type="line"/>
      <point x="1109" y="2932" type="line"/>
      <point x="1145" y="2870" type="line"/>
    </contour>
    <contour>
      <point x="917" y="2165" type="move" smooth="yes"/>
      <point x="938" y="2148"/>
      <point x="962" y="2134"/>
      <point x="985" y="2120" type="curve" smooth="yes"/>
      <point x="994" y="2114"/>
      <point x="1008" y="2107"/>
      <point x="1015" y="2098" type="curve" smooth="yes"/>
      <point x="1019" y="2092"/>
      <point x="1020" y="2082"/>
      <point x="1022" y="2075" type="curve" smooth="yes"/>
      <point x="1027" y="2057"/>
      <point x="1032" y="2040"/>
      <point x="1036" y="2023" type="curve" smooth="yes"/>
      <point x="1052" y="1964"/>
      <point x="1068" y="1906"/>
      <point x="1084" y="1848" type="curve" smooth="yes"/>
      <point x="1138" y="1647"/>
      <point x="1194" y="1446"/>
      <point x="1245" y="1245" type="curve" smooth="yes"/>
      <point x="1251" y="1221"/>
      <point x="1260" y="1197"/>
      <point x="1264" y="1174" type="curve" smooth="yes"/>
      <point x="1273" y="1121"/>
      <point x="1277" y="1066"/>
      <point x="1283" y="1013" type="curve" smooth="yes"/>
      <point x="1285" y="993"/>
      <point x="1287" y="975"/>
      <point x="1289" y="956" type="curve" smooth="yes"/>
      <point x="1290" y="949"/>
      <point x="1293" y="939"/>
      <point x="1288" y="934" type="curve" smooth="yes"/>
      <point x="1282" y="925"/>
      <point x="1260" y="930"/>
      <point x="1251" y="930" type="curve" smooth="yes"/>
      <point x="1144" y="930" type="line"/>
      <point x="706" y="930" type="line"/>
      <point x="582" y="930" type="line" smooth="yes"/>
      <point x="571" y="930"/>
      <point x="546" y="925"/>
      <point x="542" y="937" type="curve" smooth="yes"/>
      <point x="539" y="944"/>
      <point x="543" y="958"/>
      <point x="544" y="966" type="curve" smooth="yes"/>
      <point x="547" y="988"/>
      <point x="549" y="1012"/>
      <point x="552" y="1035" type="curve" smooth="yes"/>
      <point x="558" y="1082"/>
      <point x="560" y="1131"/>
      <point x="569" y="1178" type="curve" smooth="yes"/>
      <point x="576" y="1219"/>
      <point x="591" y="1260"/>
      <point x="601" y="1301" type="curve" smooth="yes"/>
      <point x="639" y="1452"/>
      <point x="679" y="1602"/>
      <point x="719" y="1753" type="curve" smooth="yes"/>
      <point x="739" y="1831"/>
      <point x="759" y="1909"/>
      <point x="780" y="1988" type="curve" smooth="yes"/>
      <point x="788" y="2021"/>
      <point x="795" y="2055"/>
      <point x="805" y="2088" type="curve" smooth="yes"/>
      <point x="809" y="2098"/>
      <point x="824" y="2104"/>
      <point x="833" y="2110" type="curve" smooth="yes"/>
      <point x="852" y="2123"/>
      <point x="871" y="2135"/>
      <point x="891" y="2148" type="curve" smooth="yes"/>
      <point x="898" y="2153"/>
      <point x="910" y="2157"/>
      <point x="915" y="2165" type="curve" smooth="yes"/>
      <point x="919" y="2171"/>
      <point x="916" y="2189"/>
      <point x="916" y="2197" type="curve" smooth="yes"/>
      <point x="916" y="2223"/>
      <point x="914" y="2252"/>
      <point x="917" y="2279" type="curve" smooth="yes"/>
    </contour>
    <contour>
      <point x="320" y="238" type="move" smooth="yes"/>
      <point x="322" y="255"/>
      <point x="328" y="272"/>
      <point x="333" y="289" type="curve" smooth="yes"/>
      <point x="361" y="396" type="line" smooth="yes"/>
      <point x="390" y="506"/>
      <point x="418" y="617"/>
      <point x="448" y="728" type="curve" smooth="yes"/>
      <point x="459" y="766"/>
      <point x="469" y="806"/>
      <point x="479" y="845" type="curve" smooth="yes"/>
      <point x="483" y="859"/>
      <point x="485" y="882"/>
      <point x="493" y="893" type="curve" smooth="yes"/>
      <point x="497" y="899"/>
      <point x="504" y="902"/>
      <point x="510" y="905" type="curve" smooth="yes"/>
      <point x="522" y="913"/>
      <point x="534" y="921"/>
      <point x="547" y="930" type="curve" smooth="yes"/>
    </contour>
    <contour>
      <point x="1287" y="929" type="move" smooth="yes"/>
      <point x="1299" y="921"/>
      <point x="1321" y="911"/>
      <point x="1330" y="899" type="curve" smooth="yes"/>
      <point x="1333" y="895"/>
      <point x="1334" y="889"/>
      <point x="1336" y="884" type="curve" smooth="yes"/>
      <point x="1339" y="871"/>
      <point x="1342" y="859"/>
      <point x="1345" y="847" type="curve" smooth="yes"/>
      <point x="1355" y="809"/>
      <point x="1367" y="772"/>
      <point x="1376" y="735" type="curve" smooth="yes"/>
      <point x="1420" y="568"/>
      <point x="1467" y="403"/>
      <point x="1514" y="238" type="curve" smooth="yes"/>
    </contour>
  </outline>
</glyph>
<glyph name="Acircumflex" format="1">
  <advance width="1882"/>
  <unicode hex="00C2"/>
  <outline>
    <contour>
      <point x="909" y="3423" type="move" smooth="yes"/>
      <point x="909" y="3413"/>
      <point x="905" y="3393"/>
      <point x="910" y="3385" type="curve" smooth="yes"/>
      <point x="913" y="3379"/>
      <point x="923" y="3377"/>
      <point x="929" y="3375" type="curve" smooth="yes"/>
      <point x="946" y="3367"/>
      <point x="964" y="3361"/>
      <point x="981" y="3352" type="curve" smooth="yes"/>
      <point x="992" y="3345"/>
      <point x="1000" y="3325"/>
      <point x="1007" y="3314" type="curve" smooth="yes"/>
      <point x="1058" y="3232"/>
      <point x="1109" y="3150"/>
      <point x="1160" y="3069" type="curve" smooth="yes"/>
      <point x="1192" y="3017"/>
      <point x="1222" y="2965"/>
      <point x="1256" y="2916" type="curve" smooth="yes"/>
    </contour>
    <contour>
      <point x="563" y="2916" type="move" smooth="yes"/>
      <point x="578" y="2949"/>
      <point x="602" y="2980"/>
      <point x="621" y="3011" type="curve" smooth="yes"/>
      <point x="660" y="3072"/>
      <point x="699" y="3134"/>
      <point x="737" y="3196" type="curve" smooth="yes"/>
      <point x="758" y="3231"/>
      <point x="780" y="3266"/>
      <point x="802" y="3301" type="curve" smooth="yes"/>
      <point x="811" y="3315"/>
      <point x="820" y="3337"/>
      <point x="833" y="3349" type="curve" smooth="yes"/>
      <point x="838" y="3354"/>
      <point x="846" y="3356"/>
      <point x="853" y="3359" type="curve" smooth="yes"/>
      <point x="871" y="3367"/>
      <point x="892" y="3373"/>
      <point x="909" y="3385" type="curve" smooth="yes"/>
    </contour>
    <contour>
      <point x="917" y="2281" type="move"/>
      <point x="917" y="2196" type="line" smooth="yes"/>
      <point x="917" y="2188"/>
      <point x="913" y="2170"/>
      <point x="918" y="2164" type="curve" smooth="yes"/>
      <point x="924" y="2157"/>
      <point x="935" y="2152"/>
      <point x="943" y="2148" type="curve" smooth="yes"/>
      <point x="961" y="2135"/>
      <point x="981" y="2123"/>
      <point x="1000" y="2110" type="curve" smooth="yes"/>
      <point x="1008" y="2104"/>
      <point x="1024" y="2098"/>
      <point x="1027" y="2088" type="curve" smooth="yes"/>
      <point x="1051" y="2004"/>
      <point x="1070" y="1919"/>
      <point x="1092" y="1836" type="curve" smooth="yes"/>
      <point x="1140" y="1655"/>
      <point x="1186" y="1475"/>
      <point x="1233" y="1295" type="curve" smooth="yes"/>
      <point x="1244" y="1254"/>
      <point x="1258" y="1213"/>
      <point x="1265" y="1172" type="curve" smooth="yes"/>
      <point x="1273" y="1127"/>
      <point x="1275" y="1081"/>
      <point x="1281" y="1036" type="curve" smooth="yes"/>
      <point x="1284" y="1013"/>
      <point x="1286" y="990"/>
      <point x="1289" y="968" type="curve" smooth="yes"/>
      <point x="1290" y="960"/>
      <point x="1294" y="945"/>
      <point x="1291" y="938" type="curve" smooth="yes"/>
      <point x="1286" y="925"/>
      <point x="1262" y="930"/>
      <point x="1251" y="930" type="curve" smooth="yes"/>
      <point x="1128" y="930" type="line"/>
      <point x="689" y="930" type="line"/>
      <point x="582" y="930" type="line" smooth="yes"/>
      <point x="572" y="930"/>
      <point x="550" y="925"/>
      <point x="544" y="934" type="curve" smooth="yes"/>
      <point x="539" y="939"/>
      <point x="542" y="949"/>
      <point x="543" y="956" type="curve" smooth="yes"/>
      <point x="545" y="973"/>
      <point x="548" y="991"/>
      <point x="549" y="1009" type="curve" smooth="yes"/>
      <point x="555" y="1064"/>
      <point x="559" y="1121"/>
      <point x="569" y="1176" type="curve" smooth="yes"/>
      <point x="573" y="1197"/>
      <point x="581" y="1218"/>
      <point x="586" y="1239" type="curve" smooth="yes"/>
      <point x="640" y="1450"/>
      <point x="698" y="1661"/>
      <point x="756" y="1872" type="curve" smooth="yes"/>
      <point x="771" y="1925"/>
      <point x="784" y="1980"/>
      <point x="799" y="2034" type="curve" smooth="yes"/>
      <point x="803" y="2049"/>
      <point x="807" y="2064"/>
      <point x="812" y="2080" type="curve" smooth="yes"/>
      <point x="813" y="2085"/>
      <point x="814" y="2093"/>
      <point x="817" y="2098" type="curve" smooth="yes"/>
      <point x="824" y="2108"/>
      <point x="840" y="2115"/>
      <point x="850" y="2121" type="curve" smooth="yes"/>
      <point x="872" y="2134"/>
      <point x="893" y="2151"/>
      <point x="916" y="2164" type="curve" smooth="yes"/>
    </contour>
    <contour>
      <point x="547" y="930" type="move"/>
      <point x="320" y="238" type="line"/>
      <point x="363" y="405" type="line"/>
      <point x="442" y="701" type="line"/>
      <point x="476" y="831" type="line"/>
      <point x="488" y="875" type="line"/>
      <point x="493" y="892" type="line"/>
      <point x="510" y="905" type="line"/>
    </contour>
    <contour>
      <point x="1287" y="929" type="move" smooth="yes"/>
      <point x="1296" y="924"/>
      <point x="1304" y="917"/>
      <point x="1313" y="912" type="curve" smooth="yes"/>
      <point x="1319" y="908"/>
      <point x="1327" y="904"/>
      <point x="1331" y="898" type="curve" smooth="yes"/>
      <point x="1340" y="886"/>
      <point x="1341" y="864"/>
      <point x="1345" y="850" type="curve" smooth="yes"/>
      <point x="1354" y="816"/>
      <point x="1364" y="783"/>
      <point x="1373" y="750" type="curve" smooth="yes"/>
      <point x="1401" y="647"/>
      <point x="1429" y="545"/>
      <point x="1457" y="443" type="curve" smooth="yes"/>
      <point x="1469" y="400"/>
      <point x="1480" y="358"/>
      <point x="1492" y="316" type="curve" smooth="yes"/>
      <point x="1499" y="290"/>
      <point x="1508" y="264"/>
      <point x="1514" y="239" type="curve" smooth="yes"/>
    </contour>
  </outline>
</glyph>
